%FSTAX23Y23*%
%MOIN*%
%SFA1B1*%

%IPPOS*%
%AMD11*
4,1,8,0.016600,0.018000,-0.016600,0.018000,-0.034500,0.000000,-0.034500,0.000000,-0.016600,-0.018000,0.016600,-0.018000,0.034500,0.000000,0.034500,0.000000,0.016600,0.018000,0.0*
1,1,0.035960,0.016600,0.000000*
1,1,0.035960,-0.016600,0.000000*
1,1,0.035960,-0.016600,0.000000*
1,1,0.035960,0.016600,0.000000*
%
%AMD12*
4,1,8,0.016600,0.062400,-0.016600,0.062400,-0.034500,0.044500,-0.034500,-0.044500,-0.016600,-0.062400,0.016600,-0.062400,0.034500,-0.044500,0.034500,0.044500,0.016600,0.062400,0.0*
1,1,0.035912,0.016600,0.044500*
1,1,0.035912,-0.016600,0.044500*
1,1,0.035912,-0.016600,-0.044500*
1,1,0.035912,0.016600,-0.044500*
%
%AMD72*
4,1,8,-0.011800,-0.020500,-0.011800,-0.020500,0.020500,-0.011800,0.020500,-0.011800,0.011800,0.020500,0.011800,0.020500,-0.020500,0.011800,-0.020500,0.011800,-0.011800,-0.020500,0.0*
1,1,0.047370,0.000000,0.000000*
1,1,0.047370,0.000000,0.000000*
1,1,0.047370,0.000000,0.000000*
1,1,0.047370,0.000000,0.000000*
%
%AMD73*
4,1,8,-0.023700,0.000000,-0.023700,0.000000,0.000000,-0.023700,0.000000,-0.023700,0.023700,0.000000,0.023700,0.000000,0.000000,0.023700,0.000000,0.023700,-0.023700,0.000000,0.0*
1,1,0.047370,0.000000,0.000000*
1,1,0.047370,0.000000,0.000000*
1,1,0.047370,0.000000,0.000000*
1,1,0.047370,0.000000,0.000000*
%
%AMD74*
4,1,8,0.011900,-0.020500,0.011900,-0.020500,0.020500,0.011800,0.020500,0.011800,-0.011900,0.020500,-0.011900,0.020500,-0.020500,-0.011900,-0.020500,-0.011900,0.011900,-0.020500,0.0*
1,1,0.047370,0.000000,0.000000*
1,1,0.047370,0.000000,0.000000*
1,1,0.047370,0.000000,0.000000*
1,1,0.047370,0.000000,0.000000*
%
%ADD10R,0.069061X0.035960*%
G04~CAMADD=11~8~0.0~0.0~690.6~359.6~179.8~0.0~15~0.0~0.0~0.0~0.0~0~0.0~0.0~0.0~0.0~0~0.0~0.0~0.0~0.0~690.6~359.6*
%ADD11D11*%
G04~CAMADD=12~8~0.0~0.0~690.6~1248.9~179.6~0.0~15~0.0~0.0~0.0~0.0~0~0.0~0.0~0.0~0.0~0~0.0~0.0~0.0~0.0~690.6~1248.9*
%ADD12D12*%
%ADD13R,0.066929X0.023622*%
%ADD14R,0.026195X0.026476*%
%ADD15R,0.018321X0.018601*%
%ADD16R,0.019198X0.018601*%
%ADD17R,0.018601X0.020289*%
%ADD18R,0.018601X0.022876*%
%ADD21R,0.031496X0.035433*%
%ADD22R,0.035433X0.031496*%
%ADD24R,0.022369X0.022538*%
%ADD29R,0.059055X0.068898*%
%ADD30R,0.039370X0.216535*%
%ADD31R,0.062992X0.118110*%
%ADD32R,0.110236X0.039370*%
%ADD33R,0.031496X0.031496*%
%ADD36R,0.020472X0.020472*%
%ADD37R,0.028163X0.026476*%
%ADD39C,0.061811*%
%ADD40R,0.061811X0.061811*%
%ADD68R,0.038976X0.029134*%
%ADD69R,0.045401X0.039496*%
%ADD70R,0.027685X0.029653*%
%ADD71R,0.056031X0.043827*%
G04~CAMADD=72~8~0.0~0.0~473.7~473.7~236.9~0.0~15~0.0~0.0~0.0~0.0~0~0.0~0.0~0.0~0.0~0~0.0~0.0~0.0~150.0~474.0~473.0*
%ADD72D72*%
G04~CAMADD=73~8~0.0~0.0~473.7~473.7~236.9~0.0~15~0.0~0.0~0.0~0.0~0~0.0~0.0~0.0~0.0~0~0.0~0.0~0.0~90.0~474.0~473.0*
%ADD73D73*%
G04~CAMADD=74~8~0.0~0.0~473.7~473.7~236.9~0.0~15~0.0~0.0~0.0~0.0~0~0.0~0.0~0.0~0.0~0~0.0~0.0~0.0~210.0~474.0~473.0*
%ADD74D74*%
%ADD75R,0.063000X0.051000*%
%ADD76R,0.030047X0.030835*%
%ADD77C,0.034000*%
G36*
X00604Y00755D02*
X00619Y00749D01*
X00632Y00739*
X00643Y00728*
X00651Y00714*
X00656Y00699*
X00658Y00683*
X00657Y00667*
X00652Y00652*
X00648Y00645*
X00645Y00647*
X00642Y00641*
X00633Y00631*
X00624Y00622*
X00612Y00615*
X006Y00611*
X00587Y00608*
X00574*
X00561Y00611*
X00549Y00615*
X00538Y00622*
X00528Y00631*
X0052Y00641*
X00516Y00647*
X00513Y00645*
X00509Y00652*
X00505Y00667*
X00503Y00683*
X00505Y00699*
X0051Y00714*
X00519Y00728*
X00529Y00739*
X00542Y00749*
X00557Y00755*
X00573Y00758*
X00589*
X00604Y00755*
G37*
G36*
X-00576D02*
X-00561Y00749D01*
X-00548Y00739*
X-00537Y00728*
X-00529Y00714*
X-00524Y00699*
X-00522Y00683*
X-00523Y00667*
X-00528Y00652*
X-00532Y00645*
X-00535Y00647*
X-00538Y00641*
X-00547Y00631*
X-00556Y00622*
X-00568Y00615*
X-0058Y00611*
X-00593Y00608*
X-00606*
X-00619Y00611*
X-00631Y00615*
X-00643Y00622*
X-00652Y00631*
X-00661Y00641*
X-00664Y00647*
X-00667Y00645*
X-00671Y00652*
X-00676Y00667*
X-00677Y00683*
X-00675Y00699*
X-0067Y00714*
X-00662Y00728*
X-00651Y00739*
X-00638Y00749*
X-00623Y00755*
X-00607Y00758*
X-00592*
X-00576Y00755*
G37*
G36*
X-00363Y00547D02*
X-00363Y00547D01*
X-00303Y00513*
X-00244Y00478*
X-00244Y00478*
X-00244Y00478*
X-00247Y00472*
X-00256Y00462*
X-00267Y00453*
X-00279Y00447*
X-00292Y00443*
X-00306Y00442*
X-0032Y00443*
X-00333Y00448*
X-00339Y00451*
X-00345Y00455*
X-00355Y00464*
X-00363Y00475*
X-00369Y00487*
X-00373Y00501*
X-00374Y00515*
X-00371Y00528*
X-00367Y00541*
X-00363Y00547*
X-00363Y00547*
G37*
G36*
X-00833Y00541D02*
X-00828Y00528D01*
X-00826Y00515*
X-00826Y00501*
X-0083Y00487*
X-00836Y00475*
X-00844Y00464*
X-00854Y00455*
X-00866Y00448*
X-00879Y00443*
X-00893Y00442*
X-00907Y00443*
X-0092Y00447*
X-00932Y00453*
X-00943Y00462*
X-00952Y00472*
X-00955Y00478*
X-00836Y00547*
X-00833Y00541*
G37*
G36*
X-01121Y00375D02*
X-01116Y00362D01*
X-01113Y00348*
X-01113Y00335*
X-01115Y00321*
X-0112Y00308*
X-01127Y00296*
X-01136Y00285*
X-01146Y00277*
X-01159Y0027*
X-01172Y00265*
X-01185Y00263*
X-01192Y00264*
X-01192Y00267*
X-01192*
X-01192Y00342*
X-01128Y00379*
X-01128Y00379*
X-01124Y00381*
X-01121Y00375*
G37*
G36*
X01109Y00379D02*
X01109Y00379D01*
X01109*
X01173Y00342*
X01173Y00267*
X01173Y00267*
Y00264*
X01166Y00264*
X01153Y00266*
X0114Y0027*
X01128Y00277*
X01117Y00286*
X01108Y00296*
X01101Y00308*
X01096Y00321*
X01094Y00335*
X01094Y00348*
X01097Y00362*
X01102Y00375*
X01105Y00381*
X01109Y00379*
G37*
G36*
X-00009Y00343D02*
X00056Y00381D01*
X00059Y00375*
X00064Y00362*
X00067Y00348*
X00067Y00335*
X00065Y00321*
X0006Y00308*
X00053Y00296*
X00044Y00286*
X00034Y00277*
X00022Y0027*
X00009Y00266*
X-00004Y00264*
X-00009Y00264*
X-00014Y00264*
X-00027Y00266*
X-00041Y0027*
X-00053Y00277*
X-00063Y00286*
X-00072Y00296*
X-00079Y00308*
X-00084Y00321*
X-00086Y00335*
X-00086Y00348*
X-00083Y00362*
X-00078Y00375*
X-00075Y00381*
X-00009Y00343*
G37*
G36*
X-01171Y00066D02*
X-01159Y00061D01*
X-01147Y00054*
X-01137Y00044*
X-01129Y00033*
X-01124Y0002*
X-01121Y00006*
Y-00006*
X-01124Y-0002*
X-01129Y-00033*
X-01137Y-00044*
X-01147Y-00054*
X-01159Y-00061*
X-01171Y-00066*
X-01172Y-00066*
X-01172Y-00066*
X-01185Y-00069*
X-01192Y-00068*
X-01192Y00068*
X-01192Y00068*
Y00068*
X-01185Y00069*
X-01171Y00066*
G37*
G36*
X00009Y-00266D02*
X00022Y-0027D01*
X00034Y-00277*
X00044Y-00286*
X00053Y-00296*
X0006Y-00308*
X00065Y-00321*
X00067Y-00335*
X00067Y-00348*
X00064Y-00362*
X00059Y-00375*
X00056Y-00381*
X-00009Y-00343*
X-00075Y-00381*
X-00078Y-00375*
X-00083Y-00362*
X-00086Y-00348*
X-00086Y-00335*
X-00084Y-00321*
X-00079Y-00308*
X-00072Y-00296*
X-00063Y-00286*
X-00053Y-00277*
X-00041Y-0027*
X-00027Y-00266*
X-00014Y-00264*
X-00009Y-00264*
X-00004Y-00264*
X00009Y-00266*
G37*
G36*
X01173Y-00264D02*
Y-00267D01*
X01173Y-00267*
X01173Y-00342*
X01109Y-00379*
X01109Y-00379*
X01105Y-00381*
X01102Y-00375*
X01097Y-00362*
X01094Y-00348*
X01094Y-00335*
X01096Y-00321*
X01101Y-00308*
X01108Y-00296*
X01117Y-00286*
X01128Y-00277*
X0114Y-0027*
X01153Y-00266*
X01166Y-00264*
X01173Y-00264*
G37*
G36*
X-01192Y-00267D02*
X-01186Y-00267D01*
X-01173Y-00269*
X-0116Y-00274*
X-01149Y-0028*
X-01139Y-00288*
X-0113Y-00298*
X-01124Y-0031*
X-01119Y-00322*
X-01117Y-00335*
X-01117Y-00348*
X-0112Y-00361*
X-01124Y-00373*
X-01128Y-00379*
X-01124Y-00381*
X-01129Y-00387*
X-0114Y-00399*
X-01153Y-00408*
X-01167Y-00414*
X-01183Y-00418*
X-01199Y-00417*
X-01215Y-00414*
X-01229Y-00407*
X-01242Y-00398*
X-01253Y-00386*
X-01261Y-00372*
X-01266Y-00357*
X-01268Y-00341*
X-01266Y-00325*
X-01261Y-0031*
X-01253Y-00296*
X-01243Y-00284*
X-0123Y-00274*
X-01216Y-00267*
X-012Y-00264*
X-01192Y-00264*
X-01192Y-00267*
G37*
G36*
X-00244Y-00478D02*
Y-00478D01*
Y-00478*
G37*
G36*
X-00292Y-00443D02*
X-00279Y-00447D01*
X-00267Y-00453*
X-00256Y-00462*
X-00247Y-00472*
X-00244Y-00478*
X-00244Y-00478*
X-00363Y-00547*
X-00366Y-00541*
X-00371Y-00528*
X-00373Y-00515*
X-00373Y-00501*
X-00369Y-00487*
X-00363Y-00475*
X-00355Y-00464*
X-00345Y-00455*
Y-00455*
X-00333Y-00448*
X-0032Y-00443*
X-00306Y-00442*
X-00292Y-00443*
G37*
G36*
X-00879Y-00443D02*
X-00866Y-00448D01*
X-0086Y-00451*
X-00854Y-00455*
X-00844Y-00464*
X-00836Y-00475*
X-0083Y-00487*
X-00826Y-00501*
X-00825Y-00515*
X-00828Y-00528*
X-00832Y-00541*
X-00836Y-00547*
X-00836Y-00547*
X-00836Y-00547*
X-00896Y-00513*
X-00955Y-00478*
X-00955Y-00478*
X-00955Y-00478*
X-00952Y-00472*
X-00943Y-00462*
X-00932Y-00453*
X-0092Y-00447*
X-00907Y-00443*
X-00893Y-00442*
X-00879Y-00443*
G37*
G36*
X006Y-00611D02*
X00612Y-00615D01*
X00624Y-00622*
X00633Y-00631*
X00642Y-00641*
X00645Y-00647*
X00581Y-00684*
X00516Y-00647*
X0052Y-00641*
X00528Y-00631*
X00538Y-00622*
X00549Y-00615*
X00561Y-00611*
X00574Y-00608*
X00587*
X006Y-00611*
G37*
G36*
X-0058D02*
X-00568Y-00615D01*
X-00556Y-00622*
X-00547Y-00631*
X-00538Y-00641*
X-00535Y-00647*
X-006Y-00684*
X-00664Y-00647*
X-00661Y-00641*
X-00652Y-00631*
X-00643Y-00622*
X-00631Y-00615*
X-00619Y-00611*
X-00606Y-00608*
X-00593*
X-0058Y-00611*
G37*
G54D10*
X00801Y00297D03*
G54D11*
X00801Y00116D03*
Y00207D03*
G54D12*
X01047Y00207D03*
G54D13*
X00909Y-00031D03*
Y-0008D03*
G54D14*
X0079Y00397D03*
X0075D03*
G54D15*
X00619Y-00102D03*
X00587D03*
G54D16*
X00233Y-00394D03*
X00266D03*
G54D17*
X00479Y-00547D03*
Y-00517D03*
X0088Y-00418D03*
Y-00389D03*
G54D18*
X00362Y-00481D03*
Y-00452D03*
G54D21*
X-00258Y-00179D03*
X-00333D03*
X-00295Y-001D03*
G54D22*
X-00404Y-00365D03*
Y-0029D03*
X-00326Y-00327D03*
G54D24*
X0052Y-00229D03*
X00485D03*
G54D29*
X00057Y00154D03*
Y00046D03*
G54D30*
X00583Y00085D03*
X00504D03*
G54D31*
X00677Y00174D03*
X0041D03*
G54D32*
X01041Y00041D03*
Y-00153D03*
G54D33*
X0011Y-00165D03*
Y-00106D03*
X00708Y-00258D03*
Y-00317D03*
G54D36*
X-0019Y00107D03*
X-00221D03*
G54D37*
X-0036Y00038D03*
X-00322D03*
X-00176Y-00278D03*
X-00139D03*
G54D39*
X-00604Y-00341D03*
X-00704D03*
G54D40*
X-00804Y-00341D03*
G54D68*
X-00209Y0032D03*
Y00265D03*
X-00752Y00284D03*
Y00229D03*
G54D69*
X00168Y-00307D03*
Y-00258D03*
G54D70*
X-00631Y-00524D03*
Y-00494D03*
G54D71*
X00355Y-00127D03*
Y00001D03*
X00308Y00159D03*
Y00288D03*
G54D72*
X-01163Y00325D03*
X01144Y-00325D03*
X-01163Y0D03*
G54D73*
X-006Y0065D03*
X00581Y-0065D03*
X-00006Y00305D03*
X00581Y0065D03*
X-00006Y-00305D03*
X-006Y-0065D03*
X-00881Y00487D03*
X-00318Y-00487D03*
G54D74*
X-01163Y-00325D03*
X01144Y00325D03*
X-00318Y00487D03*
X-00881Y-00487D03*
G54D75*
X-00837Y00266D03*
Y00193D03*
X-00913Y00079D03*
Y00006D03*
G54D76*
X-00117Y00185D03*
Y00154D03*
X00157Y0032D03*
Y00289D03*
G54D77*
X00833Y-00031D03*
D03*
X-00964Y00036D03*
X00754Y00251D03*
X0088Y-00445D03*
X00319Y-00394D03*
X-00295Y-00163D03*
X00022Y-00145D03*
X00283Y00364D03*
X00836Y-00111D03*
X00314Y00242D03*
X00547Y-00494D03*
X00628Y-00178D03*
X00807Y-00239D03*
X-00914Y-00065D03*
X-00988Y00006D03*
X-00608Y00097D03*
X-01017Y00325D03*
X-00649Y00251D03*
X-01008Y00196D03*
X-00817Y-00263D03*
X-00672Y00225D03*
X-00856Y-0015D03*
X-00454Y00453D03*
X-00391Y-00409D03*
X-00515Y0013D03*
X-00551Y00152D03*
X-00522Y00352D03*
X-00599Y00349D03*
X-00588Y00144D03*
X00012Y-00204D03*
X-01062Y-00383D03*
X-006Y-00524D03*
Y-00516D03*
X-00964Y00036D03*
X-00964Y00137D03*
X-006Y00501D03*
X00833Y-00031D03*
X-00745Y-00227D03*
M02*