%FSTAX23Y23*%
%MOIN*%
%SFA1B1*%

%IPPOS*%
%AMD11*
4,1,8,0.016600,0.018000,-0.016600,0.018000,-0.034500,0.000000,-0.034500,0.000000,-0.016600,-0.018000,0.016600,-0.018000,0.034500,0.000000,0.034500,0.000000,0.016600,0.018000,0.0*
1,1,0.035960,0.016600,0.000000*
1,1,0.035960,-0.016600,0.000000*
1,1,0.035960,-0.016600,0.000000*
1,1,0.035960,0.016600,0.000000*
%
%AMD12*
4,1,8,0.016600,0.062400,-0.016600,0.062400,-0.034500,0.044500,-0.034500,-0.044500,-0.016600,-0.062400,0.016600,-0.062400,0.034500,-0.044500,0.034500,0.044500,0.016600,0.062400,0.0*
1,1,0.035912,0.016600,0.044500*
1,1,0.035912,-0.016600,0.044500*
1,1,0.035912,-0.016600,-0.044500*
1,1,0.035912,0.016600,-0.044500*
%
%AMD26*
4,1,8,-0.009800,-0.017100,-0.009800,-0.017100,0.017100,-0.009800,0.017100,-0.009800,0.009800,0.017100,0.009800,0.017100,-0.017100,0.009800,-0.017100,0.009800,-0.009800,-0.017100,0.0*
1,1,0.039370,0.000000,0.000000*
1,1,0.039370,0.000000,0.000000*
1,1,0.039370,0.000000,0.000000*
1,1,0.039370,0.000000,0.000000*
%
%AMD27*
4,1,8,-0.019700,0.000000,-0.019700,0.000000,0.000000,-0.019700,0.000000,-0.019700,0.019700,0.000000,0.019700,0.000000,0.000000,0.019700,0.000000,0.019700,-0.019700,0.000000,0.0*
1,1,0.039370,0.000000,0.000000*
1,1,0.039370,0.000000,0.000000*
1,1,0.039370,0.000000,0.000000*
1,1,0.039370,0.000000,0.000000*
%
%AMD28*
4,1,8,0.009900,-0.017100,0.009900,-0.017100,0.017100,0.009800,0.017100,0.009800,-0.009900,0.017100,-0.009900,0.017100,-0.017100,-0.009900,-0.017100,-0.009900,0.009900,-0.017100,0.0*
1,1,0.039370,0.000000,0.000000*
1,1,0.039370,0.000000,0.000000*
1,1,0.039370,0.000000,0.000000*
1,1,0.039370,0.000000,0.000000*
%
%ADD10R,0.069061X0.035960*%
G04~CAMADD=11~8~0.0~0.0~690.6~359.6~179.8~0.0~15~0.0~0.0~0.0~0.0~0~0.0~0.0~0.0~0.0~0~0.0~0.0~0.0~0.0~690.6~359.6*
%ADD11D11*%
G04~CAMADD=12~8~0.0~0.0~690.6~1248.9~179.6~0.0~15~0.0~0.0~0.0~0.0~0~0.0~0.0~0.0~0.0~0~0.0~0.0~0.0~0.0~690.6~1248.9*
%ADD12D12*%
%ADD13R,0.066929X0.023622*%
%ADD14R,0.026195X0.026476*%
%ADD15R,0.018321X0.018601*%
%ADD16R,0.019198X0.018601*%
%ADD17R,0.018601X0.020289*%
%ADD18R,0.018601X0.022876*%
%ADD19R,0.035039X0.025197*%
%ADD20R,0.037401X0.031496*%
%ADD21R,0.031496X0.035433*%
%ADD22R,0.035433X0.031496*%
%ADD23R,0.019685X0.021654*%
%ADD24R,0.022369X0.022538*%
%ADD25R,0.048031X0.035827*%
G04~CAMADD=26~8~0.0~0.0~393.7~393.7~196.9~0.0~15~0.0~0.0~0.0~0.0~0~0.0~0.0~0.0~0.0~0~0.0~0.0~0.0~150.0~392.0~392.0*
%ADD26D26*%
G04~CAMADD=27~8~0.0~0.0~393.7~393.7~196.9~0.0~15~0.0~0.0~0.0~0.0~0~0.0~0.0~0.0~0.0~0~0.0~0.0~0.0~90.0~394.0~393.0*
%ADD27D27*%
G04~CAMADD=28~8~0.0~0.0~393.7~393.7~196.9~0.0~15~0.0~0.0~0.0~0.0~0~0.0~0.0~0.0~0.0~0~0.0~0.0~0.0~210.0~392.0~392.0*
%ADD28D28*%
%ADD29R,0.059055X0.068898*%
%ADD30R,0.039370X0.216535*%
%ADD31R,0.062992X0.118110*%
%ADD32R,0.110236X0.039370*%
%ADD33R,0.031496X0.031496*%
%ADD34R,0.055000X0.043000*%
%ADD35R,0.022047X0.022835*%
%ADD36R,0.020472X0.020472*%
%ADD37R,0.028163X0.026476*%
G54D10*
X00801Y00297D03*
G54D11*
X00801Y00116D03*
Y00207D03*
G54D12*
X01047Y00207D03*
G54D13*
X00909Y-00031D03*
Y-0008D03*
G54D14*
X0079Y00397D03*
X0075D03*
G54D15*
X00619Y-00102D03*
X00587D03*
G54D16*
X00233Y-00394D03*
X00266D03*
G54D17*
X00479Y-00547D03*
Y-00517D03*
X0088Y-00418D03*
Y-00389D03*
G54D18*
X00362Y-00481D03*
Y-00452D03*
G54D19*
X-00209Y0032D03*
Y00265D03*
X-00752Y00284D03*
Y00229D03*
G54D20*
X00168Y-00307D03*
Y-00258D03*
G54D21*
X-00258Y-00179D03*
X-00333D03*
X-00295Y-001D03*
G54D22*
X-00404Y-00365D03*
Y-0029D03*
X-00326Y-00327D03*
G54D23*
X-00631Y-00524D03*
Y-00494D03*
G54D24*
X0052Y-00229D03*
X00485D03*
G54D25*
X00355Y-00127D03*
Y00001D03*
X00308Y00159D03*
Y00288D03*
G54D26*
X-01163Y00325D03*
X01144Y-00325D03*
X-01163Y0D03*
G54D27*
X-006Y0065D03*
X00581Y-0065D03*
X-00006Y00305D03*
X00581Y0065D03*
X-00006Y-00305D03*
X-006Y-0065D03*
X-00881Y00487D03*
X-00318Y-00487D03*
G54D28*
X-01163Y-00325D03*
X01144Y00325D03*
X-00318Y00487D03*
X-00881Y-00487D03*
G54D29*
X00057Y00154D03*
Y00046D03*
G54D30*
X00583Y00085D03*
X00504D03*
G54D31*
X00677Y00174D03*
X0041D03*
G54D32*
X01041Y00041D03*
Y-00153D03*
G54D33*
X0011Y-00165D03*
Y-00106D03*
X00708Y-00258D03*
Y-00317D03*
G54D34*
X-00837Y00266D03*
Y00193D03*
X-00913Y00079D03*
Y00006D03*
G54D35*
X-00117Y00185D03*
Y00154D03*
X00157Y0032D03*
Y00289D03*
G54D36*
X-0019Y00107D03*
X-00221D03*
G54D37*
X-0036Y00038D03*
X-00322D03*
X-00176Y-00278D03*
X-00139D03*
M02*