%TF.GenerationSoftware,Altium Limited,Altium Designer,25.8.1 (18)*%
G04 Layer_Physical_Order=3*
G04 Layer_Color=16440176*
%FSLAX45Y45*%
%MOMM*%
%TF.SameCoordinates,BEAAF126-004A-4FDE-BC72-2481657C333F*%
%TF.FilePolarity,Positive*%
%TF.FileFunction,Copper,L3,Inr,Signal*%
%TF.Part,Single*%
G01*
G75*
%TA.AperFunction,Conductor*%
%ADD38C,0.25400*%
%TA.AperFunction,ComponentPad*%
%ADD39C,1.57000*%
%ADD40R,1.57000X1.57000*%
%TA.AperFunction,ViaPad*%
%ADD41C,0.66040*%
G36*
X2573895Y1088704D02*
X2967824Y857889D01*
Y-861275D01*
X1475992Y-1722574D01*
X-19922Y-858918D01*
X-21016Y-858774D01*
X-21891Y-858102D01*
X-24005Y-858380D01*
X-26118Y-858102D01*
X-26993Y-858774D01*
X-28087Y-858918D01*
X-1524002Y-1722574D01*
X-2708798Y-1038540D01*
X-2708588Y-1009332D01*
X-2707541Y-1008711D01*
X-2702553Y-1008392D01*
X-2707004Y-1008392D01*
X-2707003Y-1008392D01*
X-2692857Y-1008392D01*
X-2679787Y-1002978D01*
X-2669784Y-992975D01*
X-2668273Y-989327D01*
X-1868654D01*
X-1558051Y-1299931D01*
X-1559562Y-1303578D01*
Y-1317725D01*
X-1558152Y-1321129D01*
X-1559562Y-1324533D01*
Y-1338680D01*
X-1554148Y-1351750D01*
X-1544145Y-1361753D01*
X-1531075Y-1367167D01*
X-1516928D01*
X-1503859Y-1361753D01*
X-1493856Y-1351750D01*
X-1488442Y-1338680D01*
Y-1324533D01*
X-1489852Y-1321129D01*
X-1488442Y-1317725D01*
Y-1303578D01*
X-1493856Y-1290508D01*
X-1503859Y-1280505D01*
X-1516928Y-1275092D01*
X-1531075D01*
X-1534723Y-1276602D01*
X-1850158Y-961167D01*
X-1918986Y-892339D01*
Y-703592D01*
X-1923817Y-691927D01*
X-2173773Y-441972D01*
X-2170093Y-427818D01*
X-2164399Y-415425D01*
X-2154099Y-411158D01*
X-2144096Y-401155D01*
X-2138682Y-388085D01*
Y-373938D01*
X-2144096Y-360868D01*
X-2154099Y-350865D01*
X-2167168Y-345452D01*
X-2181315D01*
X-2194385Y-350865D01*
X-2204388Y-360868D01*
X-2208655Y-371169D01*
X-2221048Y-376863D01*
X-2235202Y-380543D01*
X-2433483Y-182262D01*
Y62311D01*
X-2429836Y63822D01*
X-2419833Y73825D01*
X-2414419Y86895D01*
Y101042D01*
X-2419833Y114112D01*
X-2429836Y124115D01*
X-2442906Y129528D01*
X-2457052D01*
X-2470122Y124115D01*
X-2480125Y114112D01*
X-2485539Y101042D01*
Y86895D01*
X-2480644Y75077D01*
X-2481003Y71530D01*
X-2481566Y70059D01*
X-2502449Y51560D01*
X-2516595D01*
X-2529665Y46147D01*
X-2539668Y36144D01*
X-2545082Y23074D01*
Y8927D01*
X-2539668Y-4143D01*
X-2529665Y-14146D01*
X-2516595Y-19560D01*
X-2502448D01*
X-2491875Y-15180D01*
X-2479864Y-19553D01*
X-2466475Y-27163D01*
Y-189094D01*
X-2461643Y-200759D01*
X-2049868Y-612534D01*
X-2064255Y-634068D01*
X-2068108Y-632472D01*
X-2082255D01*
X-2095325Y-637885D01*
X-2105328Y-647888D01*
X-2110742Y-660958D01*
Y-675105D01*
X-2105328Y-688175D01*
X-2095325Y-698178D01*
X-2082255Y-703592D01*
X-2068108D01*
X-2055039Y-698178D01*
X-2045036Y-688175D01*
X-2039622Y-675105D01*
Y-660958D01*
X-2041218Y-657105D01*
X-2019685Y-642718D01*
X-1951978Y-710425D01*
Y-765450D01*
X-1961330Y-786976D01*
X-1977378Y-786976D01*
X-2123410D01*
Y-930936D01*
X-2123410Y-949056D01*
X-2145795Y-956336D01*
X-2668273D01*
X-2669784Y-952688D01*
X-2679787Y-942685D01*
X-2692857Y-937272D01*
X-2707004D01*
X-2720074Y-942685D01*
X-2730077Y-952688D01*
X-2735490Y-965758D01*
Y-979905D01*
X-2732997Y-985925D01*
X-2739291Y-1008103D01*
X-2751294Y-1014005D01*
X-3015833Y-861275D01*
Y861272D01*
X-1524002Y1722571D01*
X-28087Y858915D01*
X-26993Y858771D01*
X-26118Y858099D01*
X-24005Y858377D01*
X-21891Y858099D01*
X-21016Y858771D01*
X-19922Y858915D01*
X1475992Y1722571D01*
X2573895Y1088704D01*
D02*
G37*
%LPC*%
G36*
X-1516928Y1310628D02*
X-1531075D01*
X-1544145Y1305215D01*
X-1554148Y1295212D01*
X-1559562Y1282142D01*
Y1267995D01*
X-1554148Y1254925D01*
X-1544145Y1244922D01*
X-1531075Y1239508D01*
X-1516928D01*
X-1503859Y1244922D01*
X-1493856Y1254925D01*
X-1488442Y1267995D01*
Y1282142D01*
X-1493856Y1295212D01*
X-1503859Y1305215D01*
X-1516928Y1310628D01*
D02*
G37*
G36*
X-1146088Y1188708D02*
X-1160235D01*
X-1173305Y1183295D01*
X-1183308Y1173292D01*
X-1188722Y1160222D01*
Y1146075D01*
X-1183308Y1133005D01*
X-1173305Y1123002D01*
X-1160235Y1117588D01*
X-1146088D01*
X-1133019Y1123002D01*
X-1123016Y1133005D01*
X-1117602Y1146075D01*
Y1160222D01*
X-1123016Y1173292D01*
X-1133019Y1183295D01*
X-1146088Y1188708D01*
D02*
G37*
G36*
X728081Y961795D02*
X713934D01*
X700864Y956381D01*
X690861Y946378D01*
X685448Y933308D01*
Y919161D01*
X690861Y906092D01*
X700864Y896089D01*
X713934Y890675D01*
X728081D01*
X741151Y896089D01*
X751154Y906092D01*
X756568Y919161D01*
Y933308D01*
X751154Y946378D01*
X741151Y956381D01*
X728081Y961795D01*
D02*
G37*
G36*
X-2578643Y861566D02*
X-2592790D01*
X-2605860Y856153D01*
X-2615863Y846150D01*
X-2621277Y833080D01*
Y818933D01*
X-2615863Y805863D01*
X-2605860Y795860D01*
X-2592790Y790446D01*
X-2578643D01*
X-2565573Y795860D01*
X-2555570Y805863D01*
X-2550157Y818933D01*
Y833080D01*
X-2555570Y846150D01*
X-2565573Y856153D01*
X-2578643Y861566D01*
D02*
G37*
G36*
X1923725Y674556D02*
X1909578D01*
X1896509Y669143D01*
X1886505Y659140D01*
X1881092Y646070D01*
Y631923D01*
X1886505Y618853D01*
X1896509Y608850D01*
X1909578Y603436D01*
X1923725D01*
X1936795Y608850D01*
X1946798Y618853D01*
X1952212Y631923D01*
Y646070D01*
X1946798Y659140D01*
X1936795Y669143D01*
X1923725Y674556D01*
D02*
G37*
G36*
X807172Y651945D02*
X793025D01*
X779955Y646532D01*
X769952Y636529D01*
X764538Y623459D01*
Y609312D01*
X769952Y596242D01*
X779955Y586239D01*
X793025Y580825D01*
X807172D01*
X820241Y586239D01*
X830244Y596242D01*
X835658Y609312D01*
Y623459D01*
X830244Y636529D01*
X820241Y646532D01*
X807172Y651945D01*
D02*
G37*
G36*
X-1641388Y674612D02*
X-1655535D01*
X-1668605Y669199D01*
X-1678608Y659196D01*
X-1684022Y646126D01*
Y631979D01*
X-1682668Y628711D01*
X-1699809Y608318D01*
X-1713955D01*
X-1727025Y602905D01*
X-1737028Y592902D01*
X-1742442Y579832D01*
Y565685D01*
X-1737028Y552615D01*
X-1727025Y542612D01*
X-1713955Y537198D01*
X-1699808D01*
X-1686739Y542612D01*
X-1676736Y552615D01*
X-1671322Y565685D01*
Y579832D01*
X-1672675Y583099D01*
X-1655535Y603492D01*
X-1641388D01*
X-1628319Y608906D01*
X-1618316Y618909D01*
X-1612902Y631979D01*
Y646126D01*
X-1618316Y659196D01*
X-1628319Y669199D01*
X-1641388Y674612D01*
D02*
G37*
G36*
X-2553248Y534613D02*
X-2567395D01*
X-2580465Y529199D01*
X-2590468Y519196D01*
X-2595882Y506126D01*
Y491979D01*
X-2590468Y478909D01*
X-2580465Y468906D01*
X-2567395Y463493D01*
X-2553248D01*
X-2540179Y468906D01*
X-2530176Y478909D01*
X-2524762Y491979D01*
Y506126D01*
X-2530176Y519196D01*
X-2540179Y529199D01*
X-2553248Y534613D01*
D02*
G37*
G36*
X-1320974Y930689D02*
X-1335121D01*
X-1348191Y925275D01*
X-1358194Y915272D01*
X-1363608Y902202D01*
Y888056D01*
X-1358194Y874986D01*
X-1348191Y864983D01*
X-1344544Y863472D01*
Y633058D01*
X-1414970Y562632D01*
X-1419802Y550968D01*
Y418681D01*
X-1420610Y418346D01*
X-1430613Y408343D01*
X-1436026Y395273D01*
Y381126D01*
X-1430613Y368057D01*
X-1420610Y358054D01*
X-1407540Y352640D01*
X-1393393D01*
X-1380323Y358054D01*
X-1370320Y368057D01*
X-1364906Y381126D01*
Y395273D01*
X-1370320Y408343D01*
X-1380323Y418346D01*
X-1386810Y421033D01*
Y544135D01*
X-1316384Y614562D01*
X-1311552Y626226D01*
Y863472D01*
X-1307905Y864983D01*
X-1297902Y874986D01*
X-1292488Y888056D01*
Y902202D01*
X-1297902Y915272D01*
X-1307905Y925275D01*
X-1320974Y930689D01*
D02*
G37*
G36*
X-1515510Y923587D02*
X-1529657D01*
X-1542727Y918173D01*
X-1552730Y908170D01*
X-1558143Y895100D01*
Y880953D01*
X-1552730Y867883D01*
X-1542727Y857880D01*
X-1539079Y856370D01*
Y404874D01*
X-1534248Y393210D01*
X-1526433Y385395D01*
X-1531165Y373972D01*
Y359825D01*
X-1525751Y346755D01*
X-1515748Y336752D01*
X-1502678Y331338D01*
X-1488531D01*
X-1475461Y336752D01*
X-1465458Y346755D01*
X-1460045Y359825D01*
Y373972D01*
X-1465458Y387042D01*
X-1475461Y397045D01*
X-1488531Y402458D01*
X-1496839D01*
X-1506088Y411707D01*
Y856370D01*
X-1502440Y857880D01*
X-1492437Y867883D01*
X-1487023Y880953D01*
Y895100D01*
X-1492437Y908170D01*
X-1502440Y918173D01*
X-1515510Y923587D01*
D02*
G37*
G36*
X-2441488Y386068D02*
X-2455635D01*
X-2468705Y380655D01*
X-2478708Y370652D01*
X-2484122Y357582D01*
Y343435D01*
X-2478708Y330365D01*
X-2468705Y320362D01*
X-2455635Y314948D01*
X-2441488D01*
X-2428419Y320362D01*
X-2418416Y330365D01*
X-2413002Y343435D01*
Y357582D01*
X-2418416Y370652D01*
X-2428419Y380655D01*
X-2441488Y386068D01*
D02*
G37*
G36*
X-1302515Y366959D02*
X-1316662D01*
X-1329731Y361545D01*
X-1339734Y351542D01*
X-1345148Y338472D01*
Y324325D01*
X-1339734Y311256D01*
X-1329731Y301253D01*
X-1316662Y295839D01*
X-1302515D01*
X-1289445Y301253D01*
X-1279442Y311256D01*
X-1274028Y324325D01*
Y338472D01*
X-1279442Y351542D01*
X-1289445Y361545D01*
X-1302515Y366959D01*
D02*
G37*
G36*
X-1537248Y284468D02*
X-1551395D01*
X-1564465Y279055D01*
X-1574468Y269052D01*
X-1579882Y255982D01*
Y241835D01*
X-1574468Y228765D01*
X-1564465Y218762D01*
X-1551395Y213348D01*
X-1537248D01*
X-1524179Y218762D01*
X-1514176Y228765D01*
X-1508762Y241835D01*
Y255982D01*
X-1514176Y269052D01*
X-1524179Y279055D01*
X-1537248Y284468D01*
D02*
G37*
G36*
X2125432Y-43192D02*
X2111285D01*
X2098215Y-48605D01*
X2088212Y-58608D01*
X2082798Y-71678D01*
Y-85825D01*
X2088212Y-98895D01*
X2098215Y-108898D01*
X2111285Y-114312D01*
X2125432D01*
X2138501Y-108898D01*
X2148504Y-98895D01*
X2153918Y-85825D01*
Y-71678D01*
X2148504Y-58608D01*
X2138501Y-48605D01*
X2125432Y-43192D01*
D02*
G37*
G36*
X-2314488Y-129552D02*
X-2328635D01*
X-2341705Y-134965D01*
X-2351708Y-144968D01*
X-2357122Y-158038D01*
Y-172185D01*
X-2351708Y-185255D01*
X-2341705Y-195258D01*
X-2328635Y-200672D01*
X-2314488D01*
X-2301419Y-195258D01*
X-2291416Y-185255D01*
X-2286002Y-172185D01*
Y-158038D01*
X-2291416Y-144968D01*
X-2301419Y-134965D01*
X-2314488Y-129552D01*
D02*
G37*
G36*
X2130923Y-248124D02*
X2116776D01*
X2103706Y-253538D01*
X2093703Y-263541D01*
X2088290Y-276611D01*
Y-290757D01*
X2093703Y-303827D01*
X2103706Y-313830D01*
X2116776Y-319244D01*
X2130923D01*
X2143993Y-313830D01*
X2153996Y-303827D01*
X2159410Y-290757D01*
Y-276611D01*
X2153996Y-263541D01*
X2143993Y-253538D01*
X2130923Y-248124D01*
D02*
G37*
G36*
X65492Y-332752D02*
X51345D01*
X38275Y-338165D01*
X28272Y-348168D01*
X22858Y-361238D01*
Y-375385D01*
X28272Y-388455D01*
X38275Y-398458D01*
X51345Y-403872D01*
X65492D01*
X78561Y-398458D01*
X88564Y-388455D01*
X93978Y-375385D01*
Y-361238D01*
X88564Y-348168D01*
X78561Y-338165D01*
X65492Y-332752D01*
D02*
G37*
G36*
X-742228Y-378472D02*
X-756375D01*
X-769445Y-383885D01*
X-779448Y-393888D01*
X-784862Y-406958D01*
Y-421105D01*
X-779448Y-434175D01*
X-769445Y-444178D01*
X-756375Y-449592D01*
X-742228D01*
X-729159Y-444178D01*
X-719156Y-434175D01*
X-713742Y-421105D01*
Y-406958D01*
X-719156Y-393888D01*
X-729159Y-383885D01*
X-742228Y-378472D01*
D02*
G37*
G36*
X1602740Y-416572D02*
X1588593D01*
X1575524Y-421985D01*
X1565521Y-431988D01*
X1560107Y-445058D01*
Y-459205D01*
X1565521Y-472275D01*
X1575524Y-482278D01*
X1588593Y-487692D01*
X1602740D01*
X1615810Y-482278D01*
X1625813Y-472275D01*
X1631227Y-459205D01*
Y-445058D01*
X1625813Y-431988D01*
X1615810Y-421985D01*
X1602740Y-416572D01*
D02*
G37*
G36*
X37948Y-482612D02*
X23801D01*
X10731Y-488025D01*
X728Y-498028D01*
X-4686Y-511098D01*
Y-525245D01*
X728Y-538315D01*
X10731Y-548318D01*
X23801Y-553732D01*
X37948D01*
X51018Y-548318D01*
X61021Y-538315D01*
X66434Y-525245D01*
Y-511098D01*
X61021Y-498028D01*
X51018Y-488025D01*
X37948Y-482612D01*
D02*
G37*
G36*
X-1885228Y-541032D02*
X-1899375D01*
X-1912445Y-546445D01*
X-1922448Y-556448D01*
X-1927862Y-569518D01*
Y-583665D01*
X-1922448Y-596735D01*
X-1912445Y-606738D01*
X-1899375Y-612152D01*
X-1885228D01*
X-1872159Y-606738D01*
X-1862156Y-596735D01*
X-1856742Y-583665D01*
Y-569518D01*
X-1862156Y-556448D01*
X-1872159Y-546445D01*
X-1885228Y-541032D01*
D02*
G37*
G36*
X2059392Y-572157D02*
X2045245D01*
X2032175Y-577571D01*
X2022172Y-587574D01*
X2016758Y-600643D01*
Y-614790D01*
X2022172Y-627860D01*
X2032175Y-637863D01*
X2045245Y-643277D01*
X2059392D01*
X2072461Y-637863D01*
X2082464Y-627860D01*
X2087878Y-614790D01*
Y-600643D01*
X2082464Y-587574D01*
X2072461Y-577571D01*
X2059392Y-572157D01*
D02*
G37*
G36*
X-1523701Y-786976D02*
X-1545039D01*
X-1565650Y-792499D01*
X-1584130Y-803168D01*
X-1599218Y-818256D01*
X-1609887Y-836736D01*
X-1615410Y-857347D01*
Y-878685D01*
X-1609887Y-899296D01*
X-1599218Y-917776D01*
X-1584130Y-932864D01*
X-1565650Y-943533D01*
X-1545039Y-949056D01*
X-1523701D01*
X-1503090Y-943533D01*
X-1484610Y-932864D01*
X-1469522Y-917776D01*
X-1458853Y-899296D01*
X-1453330Y-878685D01*
Y-857347D01*
X-1458853Y-836736D01*
X-1469522Y-818256D01*
X-1484610Y-803168D01*
X-1503090Y-792499D01*
X-1523701Y-786976D01*
D02*
G37*
G36*
X-1777701D02*
X-1799039D01*
X-1819650Y-792499D01*
X-1838130Y-803168D01*
X-1853218Y-818256D01*
X-1863887Y-836736D01*
X-1869410Y-857347D01*
Y-878685D01*
X-1863887Y-899296D01*
X-1853218Y-917776D01*
X-1838130Y-932864D01*
X-1819650Y-943533D01*
X-1799039Y-949056D01*
X-1777701D01*
X-1757090Y-943533D01*
X-1738610Y-932864D01*
X-1723522Y-917776D01*
X-1712853Y-899296D01*
X-1707330Y-878685D01*
Y-857347D01*
X-1712853Y-836736D01*
X-1723522Y-818256D01*
X-1738610Y-803168D01*
X-1757090Y-792499D01*
X-1777701Y-786976D01*
D02*
G37*
G36*
X818155Y-967411D02*
X804008D01*
X790938Y-972825D01*
X780935Y-982828D01*
X775521Y-995898D01*
Y-1010045D01*
X780935Y-1023115D01*
X790938Y-1033118D01*
X804008Y-1038531D01*
X818155D01*
X831224Y-1033118D01*
X841227Y-1023115D01*
X846641Y-1010045D01*
Y-995898D01*
X841227Y-982828D01*
X831224Y-972825D01*
X818155Y-967411D01*
D02*
G37*
G36*
X-988090Y-1004942D02*
X-1002237D01*
X-1015307Y-1010356D01*
X-1025310Y-1020359D01*
X-1030724Y-1033429D01*
Y-1047576D01*
X-1025310Y-1060646D01*
X-1015307Y-1070649D01*
X-1002237Y-1076062D01*
X-988090D01*
X-975020Y-1070649D01*
X-965017Y-1060646D01*
X-959604Y-1047576D01*
Y-1033429D01*
X-965017Y-1020359D01*
X-975020Y-1010356D01*
X-988090Y-1004942D01*
D02*
G37*
G36*
X2244578Y-1095519D02*
X2230431D01*
X2217361Y-1100933D01*
X2207358Y-1110936D01*
X2201945Y-1124005D01*
Y-1138152D01*
X2207358Y-1151222D01*
X2217361Y-1161225D01*
X2230431Y-1166639D01*
X2244578D01*
X2257648Y-1161225D01*
X2267651Y-1151222D01*
X2273065Y-1138152D01*
Y-1124005D01*
X2267651Y-1110936D01*
X2257648Y-1100933D01*
X2244578Y-1095519D01*
D02*
G37*
G36*
X1398992Y-1219212D02*
X1384845D01*
X1371775Y-1224625D01*
X1361772Y-1234628D01*
X1356358Y-1247698D01*
Y-1261845D01*
X1361772Y-1274915D01*
X1371775Y-1284918D01*
X1384845Y-1290332D01*
X1398992D01*
X1412061Y-1284918D01*
X1422064Y-1274915D01*
X1427478Y-1261845D01*
Y-1247698D01*
X1422064Y-1234628D01*
X1412061Y-1224625D01*
X1398992Y-1219212D01*
D02*
G37*
%LPD*%
D38*
X-2449979Y93968D02*
Y104128D01*
Y-189094D02*
Y93968D01*
Y-189094D02*
X-1935482Y-703592D01*
X-1403306Y391040D02*
X-1400466Y388200D01*
X-1403306Y391040D02*
Y550968D01*
X-1328048Y626226D01*
Y895129D01*
X-1522583Y404874D02*
X-1495605Y377896D01*
X-1522583Y404874D02*
Y888027D01*
X-1495605Y366898D02*
Y377896D01*
X-1861822Y-972832D02*
X-1524002Y-1310652D01*
X-2699930Y-972832D02*
X-1861822D01*
X-1935482Y-899172D02*
X-1861822Y-972832D01*
X-1935482Y-899172D02*
Y-703592D01*
D39*
X-1534370Y-868016D02*
D03*
X-1788370D02*
D03*
D40*
X-2042370D02*
D03*
D41*
X2118358Y-78752D02*
D03*
D03*
X-2449979Y93968D02*
D03*
X1916652Y638996D02*
D03*
X2237505Y-1131079D02*
D03*
X811081Y-1002971D02*
D03*
X-749302Y-414032D02*
D03*
X58418Y-368312D02*
D03*
X721008Y926235D02*
D03*
X2123850Y-283684D02*
D03*
X800098Y616385D02*
D03*
X1391918Y-1254772D02*
D03*
X1595667Y-452132D02*
D03*
X2052318Y-607717D02*
D03*
X-2321562Y-165112D02*
D03*
X-2509522Y16000D02*
D03*
X-1544322Y248908D02*
D03*
X-2585717Y826006D02*
D03*
X-1648462Y639052D02*
D03*
X-2560322Y499053D02*
D03*
X-2075182Y-668032D02*
D03*
X-1706882Y572758D02*
D03*
X-2174242Y-381012D02*
D03*
X-1153162Y1153148D02*
D03*
X-995164Y-1040502D02*
D03*
X-1309588Y331399D02*
D03*
X-1400466Y388200D02*
D03*
X-1328048Y895129D02*
D03*
X-1522583Y888027D02*
D03*
X-1495605Y366898D02*
D03*
X30874Y-518172D02*
D03*
X-2699930Y-972832D02*
D03*
X-1524002Y-1331607D02*
D03*
Y-1310652D02*
D03*
X-2449979Y93968D02*
D03*
X-2448562Y350508D02*
D03*
X-1524002Y1275068D02*
D03*
X2118358Y-78752D02*
D03*
X-1892302Y-576592D02*
D03*
%TF.MD5,5627e88af0dcfde33b0f50c0bbe49ba5*%
M02*
