%TF.GenerationSoftware,Altium Limited,Altium Designer,25.8.1 (18)*%
G04 Layer_Color=16711935*
%FSLAX45Y45*%
%MOMM*%
%TF.SameCoordinates,BEAAF126-004A-4FDE-BC72-2481657C333F*%
%TF.FilePolarity,Negative*%
%TF.FileFunction,Soldermask,Bot*%
%TF.Part,Single*%
G01*
G75*
%TA.AperFunction,SMDPad,CuDef*%
%ADD18R,0.47247X0.58106*%
%TA.AperFunction,ComponentPad*%
%ADD39C,1.57000*%
%ADD40R,1.57000X1.57000*%
%TA.AperFunction,SMDPad,CuDef*%
%ADD42R,1.10620X1.30506*%
%ADD44R,0.61107X0.29247*%
%ADD45R,0.65000X1.65000*%
%ADD48R,5.70000X5.70000*%
%ADD51R,1.36213X1.15776*%
%ADD53R,0.85000X0.30000*%
%ADD54R,0.30000X0.85000*%
%ADD55R,0.80000X0.60000*%
%ADD56R,0.58106X0.47247*%
%ADD57R,0.57247X0.56818*%
G04:AMPARAMS|DCode=58|XSize=0.61107mm|YSize=0.29247mm|CornerRadius=0.14624mm|HoleSize=0mm|Usage=FLASHONLY|Rotation=180.000|XOffset=0mm|YOffset=0mm|HoleType=Round|Shape=RoundedRectangle|*
%AMROUNDEDRECTD58*
21,1,0.61107,0.00000,0,0,180.0*
21,1,0.31860,0.29247,0,0,180.0*
1,1,0.29247,-0.15930,0.00000*
1,1,0.29247,0.15930,0.00000*
1,1,0.29247,0.15930,0.00000*
1,1,0.29247,-0.15930,0.00000*
%
%ADD58ROUNDEDRECTD58*%
%ADD59R,0.67248X0.66535*%
G04:AMPARAMS|DCode=72|XSize=1.2032mm|YSize=1.2032mm|CornerRadius=0.6016mm|HoleSize=0mm|Usage=FLASHONLY|Rotation=150.000|XOffset=0mm|YOffset=0mm|HoleType=Round|Shape=RoundedRectangle|*
%AMROUNDEDRECTD72*
21,1,1.20320,0.00000,0,0,150.0*
21,1,0.00000,1.20320,0,0,150.0*
1,1,1.20320,0.00000,0.00000*
1,1,1.20320,0.00000,0.00000*
1,1,1.20320,0.00000,0.00000*
1,1,1.20320,0.00000,0.00000*
%
%ADD72ROUNDEDRECTD72*%
G04:AMPARAMS|DCode=73|XSize=1.2032mm|YSize=1.2032mm|CornerRadius=0.6016mm|HoleSize=0mm|Usage=FLASHONLY|Rotation=90.000|XOffset=0mm|YOffset=0mm|HoleType=Round|Shape=RoundedRectangle|*
%AMROUNDEDRECTD73*
21,1,1.20320,0.00000,0,0,90.0*
21,1,0.00000,1.20320,0,0,90.0*
1,1,1.20320,0.00000,0.00000*
1,1,1.20320,0.00000,0.00000*
1,1,1.20320,0.00000,0.00000*
1,1,1.20320,0.00000,0.00000*
%
%ADD73ROUNDEDRECTD73*%
G04:AMPARAMS|DCode=74|XSize=1.2032mm|YSize=1.2032mm|CornerRadius=0.6016mm|HoleSize=0mm|Usage=FLASHONLY|Rotation=210.000|XOffset=0mm|YOffset=0mm|HoleType=Round|Shape=RoundedRectangle|*
%AMROUNDEDRECTD74*
21,1,1.20320,0.00000,0,0,210.0*
21,1,0.00000,1.20320,0,0,210.0*
1,1,1.20320,0.00000,0.00000*
1,1,1.20320,0.00000,0.00000*
1,1,1.20320,0.00000,0.00000*
1,1,1.20320,0.00000,0.00000*
%
%ADD74ROUNDEDRECTD74*%
%TA.AperFunction,ViaPad*%
%ADD77C,0.86360*%
%TA.AperFunction,SMDPad,CuDef*%
%ADD78R,0.78320X0.74320*%
%ADD79R,1.10320X0.85320*%
%ADD80R,0.60325X2.10320*%
%ADD81R,0.70320X1.10320*%
%ADD82R,1.00320X1.15320*%
%ADD83R,1.11320X1.42320*%
%ADD84R,0.74000X0.99000*%
G36*
X1536021Y1919455D02*
X1573190Y1903134D01*
X1606215Y1879526D01*
X1633686Y1849638D01*
X1654432Y1814745D01*
X1667569Y1776334D01*
X1672536Y1736044D01*
X1669121Y1695593D01*
X1657470Y1656706D01*
X1647775Y1638873D01*
X1475994Y1737775D01*
X1304213Y1638873D01*
X1294518Y1656706D01*
X1282867Y1695593D01*
X1279452Y1736044D01*
X1284419Y1776334D01*
X1297555Y1814745D01*
X1318302Y1849638D01*
X1345773Y1879526D01*
X1378797Y1903134D01*
X1415967Y1919455D01*
X1455696Y1927794D01*
X1496291D01*
X1536021Y1919455D01*
D02*
G37*
G36*
X-1463973D02*
X-1426804Y1903134D01*
X-1393779Y1879526D01*
X-1366308Y1849638D01*
X-1345562Y1814745D01*
X-1332425Y1776334D01*
X-1327458Y1736044D01*
X-1330873Y1695593D01*
X-1342524Y1656706D01*
X-1352219Y1638873D01*
X-1524000Y1737775D01*
X-1695781Y1638873D01*
X-1705476Y1656706D01*
X-1717127Y1695593D01*
X-1720542Y1736044D01*
X-1715575Y1776334D01*
X-1702439Y1814745D01*
X-1681692Y1849638D01*
X-1654221Y1879526D01*
X-1621197Y1903134D01*
X-1584027Y1919455D01*
X-1544298Y1927794D01*
X-1503703D01*
X-1463973Y1919455D01*
D02*
G37*
G36*
X1647696Y1638198D02*
X1639323Y1622840D01*
X1617381Y1595590D01*
X1590942Y1572678D01*
X1560850Y1554833D01*
X1528063Y1542625D01*
X1493628Y1536442D01*
X1458643Y1536483D01*
X1424222Y1542745D01*
X1391464Y1555029D01*
X1361413Y1572943D01*
X1335028Y1595917D01*
X1313149Y1623217D01*
X1304811Y1638595D01*
X1304811Y1638595D01*
X1476127Y1737504D01*
X1647696Y1638198D01*
D02*
G37*
G36*
X-1352298D02*
X-1360671Y1622840D01*
X-1382613Y1595590D01*
X-1409052Y1572678D01*
X-1439144Y1554833D01*
X-1471931Y1542625D01*
X-1506366Y1536442D01*
X-1541351Y1536483D01*
X-1575772Y1542745D01*
X-1608530Y1555029D01*
X-1638581Y1572943D01*
X-1664966Y1595917D01*
X-1686845Y1623217D01*
X-1695183Y1638595D01*
X-1695183Y1638595D01*
X-1523867Y1737504D01*
X-1352298Y1638198D01*
D02*
G37*
G36*
X-922890Y1390600D02*
X-922769Y1390796D01*
X-771736Y1303464D01*
X-620652Y1216368D01*
X-620761Y1216166D01*
X-620225Y1215856D01*
X-628563Y1200432D01*
X-651035Y1173511D01*
X-678405Y1151590D01*
X-709583Y1135541D01*
X-743328Y1126003D01*
X-778295Y1123357D01*
X-813090Y1127708D01*
X-846329Y1138883D01*
X-861645Y1147739D01*
X-877035Y1156611D01*
X-903332Y1179809D01*
X-924498Y1207768D01*
X-939690Y1239373D01*
X-948302Y1273365D01*
X-949993Y1308391D01*
X-944693Y1343055D01*
X-932615Y1375976D01*
X-923427Y1390910D01*
X-922890Y1390600D01*
D02*
G37*
G36*
X-2116024Y1375875D02*
X-2103902Y1342970D01*
X-2098557Y1308313D01*
X-2100201Y1273284D01*
X-2108768Y1239280D01*
X-2123919Y1207655D01*
X-2145048Y1179669D01*
X-2171314Y1156436D01*
X-2201671Y1138883D01*
X-2234910Y1127708D01*
X-2269706Y1123357D01*
X-2304672Y1126003D01*
X-2338417Y1135541D01*
X-2369596Y1151590D01*
X-2396966Y1173511D01*
X-2419437Y1200432D01*
X-2427776Y1215856D01*
X-2125231Y1390796D01*
X-2116024Y1375875D01*
D02*
G37*
G36*
X-24003Y871762D02*
X142779Y967810D01*
X151894Y952880D01*
X164521Y920253D01*
X171144Y885900D01*
X171552Y850917D01*
X165732Y816419D01*
X153868Y783506D01*
X136341Y753228D01*
X113707Y726550D01*
X86690Y704322D01*
X56150Y687255D01*
X23062Y675891D01*
X-11520Y670593D01*
X-24003Y670927D01*
X-36486Y670593D01*
X-71068Y675891D01*
X-104156Y687255D01*
X-134696Y704322D01*
X-161713Y726550D01*
X-184347Y753228D01*
X-201875Y783506D01*
X-213738Y816419D01*
X-219558Y850917D01*
X-219150Y885900D01*
X-212527Y920253D01*
X-199900Y952880D01*
X-190785Y967810D01*
Y967811D01*
X-24003Y871762D01*
D02*
G37*
G36*
X-2857093Y967690D02*
X-2856885Y967810D01*
X-2847770Y952880D01*
X-2835143Y920253D01*
X-2828520Y885900D01*
X-2828112Y850917D01*
X-2833932Y816419D01*
X-2845795Y783506D01*
X-2863323Y753228D01*
X-2885957Y726550D01*
X-2912974Y704322D01*
X-2913279Y704152D01*
X-2913301Y704134D01*
X-2943881Y686998D01*
X-2977020Y675573D01*
X-3011664Y670225D01*
X-3029185Y670675D01*
X-3028946Y868874D01*
X-2857404Y968198D01*
X-2857093Y967690D01*
D02*
G37*
G36*
X2809769Y967488D02*
X2809812Y967559D01*
X2809812D01*
X2875506Y929630D01*
X2980995Y868880D01*
Y868726D01*
X2981128Y868649D01*
X2980995Y746783D01*
Y671061D01*
X2980912Y671059D01*
X2980911Y670413D01*
X2963424Y669985D01*
X2928854Y675363D01*
X2895792Y686803D01*
X2865292Y703942D01*
X2838326Y726231D01*
X2815754Y752962D01*
X2806947Y768258D01*
X2798119Y783506D01*
X2786256Y816419D01*
X2780436Y850917D01*
X2780844Y885900D01*
X2787467Y920253D01*
X2800094Y952880D01*
X2809209Y967810D01*
X2809769Y967488D01*
D02*
G37*
G36*
X-2976865Y169451D02*
X-2944151Y156716D01*
X-2914619Y137737D01*
X-2889444Y113272D01*
X-2869628Y84294D01*
X-2855963Y51958D01*
X-2848991Y17552D01*
Y-17553D01*
X-2855963Y-51958D01*
X-2869628Y-84294D01*
X-2889444Y-113272D01*
X-2914619Y-137737D01*
X-2944151Y-156716D01*
X-2976865Y-169451D01*
X-2977155Y-169502D01*
X-2977264Y-169544D01*
X-3011813Y-175544D01*
X-3029340Y-175054D01*
X-3029339D01*
X-3029570Y174427D01*
X-3029001Y174444D01*
Y174934D01*
X-3011456Y175436D01*
X-2976865Y169451D01*
D02*
G37*
G36*
X2980995Y-671062D02*
X2980995D01*
Y-868880D01*
X2809209Y-967811D01*
D01*
X2809209D01*
X2800094Y-952880D01*
X2787467Y-920253D01*
X2780844Y-885900D01*
X2780436Y-850917D01*
X2786256Y-816419D01*
X2798119Y-783506D01*
X2815647Y-753228D01*
X2838281Y-726550D01*
X2865298Y-704323D01*
X2895838Y-687255D01*
X2928926Y-675891D01*
X2963508Y-670593D01*
X2963508D01*
D01*
X2980995Y-671062D01*
D02*
G37*
G36*
X23062Y-675891D02*
X56150Y-687255D01*
X86690Y-704323D01*
X113707Y-726550D01*
X136341Y-753228D01*
X153868Y-783506D01*
X165732Y-816419D01*
X171552Y-850917D01*
X171144Y-885900D01*
X164521Y-920253D01*
X151894Y-952880D01*
X142779Y-967811D01*
X142779D01*
X142779D01*
X-24003Y-871762D01*
X-190785Y-967811D01*
X-199900Y-952880D01*
X-212527Y-920253D01*
X-219150Y-885900D01*
X-219558Y-850917D01*
X-213738Y-816419D01*
X-201875Y-783506D01*
X-184347Y-753228D01*
X-161713Y-726550D01*
X-134696Y-704323D01*
X-104156Y-687255D01*
X-71068Y-675891D01*
X-36486Y-670593D01*
X-24003Y-670928D01*
X-11520Y-670593D01*
X23062Y-675891D01*
D02*
G37*
G36*
X-2976530Y-675363D02*
X-2943468Y-686804D01*
X-2912968Y-703942D01*
X-2886002Y-726232D01*
X-2863430Y-752962D01*
X-2845972Y-783280D01*
X-2834185Y-816221D01*
X-2828445Y-850732D01*
X-2828934Y-885714D01*
X-2835636Y-920051D01*
X-2848339Y-952649D01*
X-2857488Y-967559D01*
Y-967559D01*
X-3028804Y-868649D01*
X-3028587Y-670413D01*
X-3011100Y-669985D01*
X-2976530Y-675363D01*
D02*
G37*
G36*
X-3028946Y-868874D02*
X-2857404Y-968199D01*
X-2867999Y-985511D01*
X-2895850Y-1015044D01*
X-2929173Y-1038227D01*
X-2966547Y-1054070D01*
X-3006379Y-1061899D01*
X-3046970Y-1061380D01*
X-3086588Y-1052534D01*
X-3123544Y-1035739D01*
X-3156263Y-1011711D01*
X-3183349Y-981475D01*
X-3203647Y-946319D01*
X-3216290Y-907745D01*
X-3220741Y-867396D01*
X-3216809Y-826993D01*
X-3204661Y-788259D01*
X-3184817Y-752846D01*
X-3158122Y-722264D01*
X-3125714Y-697818D01*
X-3088977Y-680550D01*
X-3049475Y-671196D01*
X-3029185Y-670675D01*
X-3028946Y-868874D01*
D02*
G37*
G36*
X-743328Y-1126003D02*
X-709583Y-1135541D01*
X-678405Y-1151590D01*
X-651035Y-1173512D01*
X-628563Y-1200432D01*
X-620225Y-1215856D01*
D01*
Y-1215856D01*
X-922769Y-1390796D01*
X-931977Y-1375875D01*
X-944098Y-1342970D01*
X-949444Y-1308313D01*
X-947800Y-1273285D01*
X-939232Y-1239281D01*
X-924081Y-1207656D01*
X-902952Y-1179669D01*
X-876686Y-1156437D01*
X-846329Y-1138883D01*
X-813090Y-1127708D01*
X-778295Y-1123357D01*
X-743328Y-1126003D01*
D02*
G37*
G36*
X-2234910Y-1127708D02*
X-2201671Y-1138883D01*
X-2186355Y-1147740D01*
X-2170965Y-1156611D01*
X-2144669Y-1179809D01*
X-2123502Y-1207768D01*
X-2108310Y-1239373D01*
X-2099698Y-1273365D01*
X-2098008Y-1308392D01*
X-2103307Y-1343055D01*
X-2115386Y-1375976D01*
X-2124573Y-1390910D01*
D01*
X-2124574Y-1390910D01*
X-2124573Y-1390910D01*
X-2125110Y-1390600D01*
X-2125231Y-1390796D01*
X-2276378Y-1303399D01*
X-2427348Y-1216369D01*
X-2427239Y-1216166D01*
X-2427776Y-1215856D01*
X-2419437Y-1200432D01*
X-2396966Y-1173512D01*
X-2369596Y-1151590D01*
X-2338417Y-1135541D01*
X-2304672Y-1126003D01*
X-2269706Y-1123357D01*
X-2234910Y-1127708D01*
D02*
G37*
G36*
X1493345Y-1536483D02*
X1527765Y-1542745D01*
X1560523Y-1555029D01*
X1590574Y-1572944D01*
X1616960Y-1595917D01*
X1638839Y-1623217D01*
X1647177Y-1638595D01*
X1647177D01*
X1638847Y-1643404D01*
X1639099Y-1643868D01*
X1475994Y-1737775D01*
X1312888Y-1643868D01*
X1313175Y-1643340D01*
X1304292Y-1638198D01*
X1312665Y-1622840D01*
X1334607Y-1595590D01*
X1361046Y-1572678D01*
X1391138Y-1554833D01*
X1423924Y-1542625D01*
X1458359Y-1536442D01*
X1493345Y-1536483D01*
D02*
G37*
G36*
X-1506649D02*
X-1472229Y-1542745D01*
X-1439471Y-1555029D01*
X-1409420Y-1572944D01*
X-1383034Y-1595917D01*
X-1361155Y-1623217D01*
X-1352817Y-1638595D01*
X-1352817D01*
X-1361147Y-1643404D01*
X-1360895Y-1643868D01*
X-1524000Y-1737775D01*
X-1687106Y-1643868D01*
X-1686819Y-1643340D01*
X-1695702Y-1638198D01*
X-1687329Y-1622840D01*
X-1665387Y-1595590D01*
X-1638948Y-1572678D01*
X-1608856Y-1554833D01*
X-1576070Y-1542625D01*
X-1541635Y-1536442D01*
X-1506649Y-1536483D01*
D02*
G37*
D18*
X691041Y616385D02*
D03*
Y543274D02*
D03*
D39*
X-1534370Y-868016D02*
D03*
X-1788370D02*
D03*
D40*
X-2042370D02*
D03*
D42*
X1847422Y-123567D02*
D03*
X2165577Y-767828D02*
D03*
Y-607717D02*
D03*
X1847422Y-283684D02*
D03*
D44*
X1875753Y-1081076D02*
D03*
D45*
X1780701Y-1131079D02*
D03*
D48*
X-1536615Y-184406D02*
D03*
D51*
X1410912Y638996D02*
D03*
Y804437D02*
D03*
D53*
X-1191612Y40598D02*
D03*
X-1881613Y-209404D02*
D03*
X-1191612Y-9405D02*
D03*
Y-259402D02*
D03*
Y-109404D02*
D03*
X-1881613Y-259402D02*
D03*
X-1191612Y-209404D02*
D03*
Y-59402D02*
D03*
X-1881613Y90595D02*
D03*
X-1191612D02*
D03*
X-1881613Y40598D02*
D03*
X-1191612Y-159402D02*
D03*
Y-309404D02*
D03*
Y-359401D02*
D03*
Y-409404D02*
D03*
Y-459406D02*
D03*
X-1881613D02*
D03*
Y-409404D02*
D03*
Y-359401D02*
D03*
Y-309404D02*
D03*
Y-159402D02*
D03*
Y-109404D02*
D03*
Y-59402D02*
D03*
Y-9405D02*
D03*
D54*
X-1361614Y160598D02*
D03*
X-1311612D02*
D03*
X-1461614Y-529404D02*
D03*
Y160598D02*
D03*
X-1411612D02*
D03*
X-1761614Y-529404D02*
D03*
X-1261615Y160598D02*
D03*
X-1511612D02*
D03*
X-1561614D02*
D03*
X-1611611D02*
D03*
X-1661614D02*
D03*
X-1611611Y-529404D02*
D03*
X-1811611D02*
D03*
Y160598D02*
D03*
X-1761614D02*
D03*
X-1711611D02*
D03*
X-1261615Y-529404D02*
D03*
X-1311612D02*
D03*
X-1361614D02*
D03*
X-1411612D02*
D03*
X-1511612D02*
D03*
X-1561614D02*
D03*
X-1661614D02*
D03*
X-1711611D02*
D03*
D55*
X-2458920Y639052D02*
D03*
Y499053D02*
D03*
D56*
X174857Y-180794D02*
D03*
X101751D02*
D03*
D57*
X1563754Y-1383372D02*
D03*
Y-1292943D02*
D03*
D58*
X1875753Y-1131079D02*
D03*
X1685649Y-1081076D02*
D03*
X1875753Y-1181076D02*
D03*
X1685649D02*
D03*
Y-1131079D02*
D03*
D59*
X-288759Y-160855D02*
D03*
Y-60139D02*
D03*
D72*
X2907003Y826006D02*
D03*
X-2954682Y-826010D02*
D03*
X-2955012Y-2D02*
D03*
D73*
X2907003Y-826010D02*
D03*
X-16791Y775206D02*
D03*
X-2954682Y826006D02*
D03*
X-16791Y-775210D02*
D03*
X-2239012Y1239010D02*
D03*
X-808992Y-1239014D02*
D03*
D74*
X1475992Y1651989D02*
D03*
Y-1651992D02*
D03*
X-1524002Y1651989D02*
D03*
Y-1651992D02*
D03*
X-808992Y1239010D02*
D03*
X-2239012Y-1239014D02*
D03*
D77*
X2118358Y-78752D02*
D03*
D03*
X-2449979Y93968D02*
D03*
X1916652Y638996D02*
D03*
X2237505Y-1131079D02*
D03*
X811081Y-1002971D02*
D03*
X-749302Y-414032D02*
D03*
X58418Y-368312D02*
D03*
X721008Y926235D02*
D03*
X2123850Y-283684D02*
D03*
X800098Y616385D02*
D03*
X1391918Y-1254772D02*
D03*
X1595667Y-452132D02*
D03*
X2052318Y-607717D02*
D03*
X-2321562Y-165112D02*
D03*
X-2509522Y16000D02*
D03*
X-1544322Y248908D02*
D03*
X-2585717Y826006D02*
D03*
X-1648462Y639052D02*
D03*
X-2560322Y499053D02*
D03*
X-2075182Y-668032D02*
D03*
X-1706882Y572758D02*
D03*
X-2174242Y-381012D02*
D03*
X-1153162Y1153148D02*
D03*
X-995164Y-1040502D02*
D03*
X-1309588Y331399D02*
D03*
X-1400466Y388200D02*
D03*
X-1328048Y895129D02*
D03*
X-1522583Y888027D02*
D03*
X-1495605Y366898D02*
D03*
X30874Y-518172D02*
D03*
X-2699930Y-972832D02*
D03*
X-1524002Y-1331607D02*
D03*
Y-1310652D02*
D03*
X-2449979Y93968D02*
D03*
X-2448562Y350508D02*
D03*
X-1524002Y1275068D02*
D03*
X2118358Y-78752D02*
D03*
X-1892302Y-576592D02*
D03*
D78*
X623512Y-170827D02*
D03*
X545514D02*
D03*
D79*
X888434Y-614219D02*
D03*
Y-709215D02*
D03*
X648435D02*
D03*
Y-519218D02*
D03*
X888434D02*
D03*
D80*
X-1426461Y1080377D02*
D03*
X-1546450D02*
D03*
X-1306471D02*
D03*
D81*
X-2686738Y609289D02*
D03*
Y839286D02*
D03*
D82*
X-2449979Y-454976D02*
D03*
X-2778670Y-606975D02*
D03*
X-2324976Y-454976D02*
D03*
X-2653667Y-606975D02*
D03*
D83*
X942557Y861089D02*
D03*
X1254601Y1210044D02*
D03*
X927601D02*
D03*
X615557Y861089D02*
D03*
D84*
X-1834131Y342639D02*
D03*
X-1694131D02*
D03*
%TF.MD5,6666125a63c866ee8cf2be599665fb26*%
M02*
