M48
;Layer_Color=9474304
;FILE_FORMAT=4:4
METRIC,LZ
;TYPE=PLATED
T01F00S00C0.3048
T02F00S00C1.0200
%
T01
X0022375Y-00113108
X00205232Y-00060772
X00212385Y-00028368
X00211836Y-00007875
X00191665Y000639
X0008001Y00061638
X00081108Y-00100297
X00139192Y-00125477
X00159567Y-00045213
X00005842Y-00036831
X00003087Y-00051817
X-0007493Y-00041403
X-00099516Y-0010405
X-001524Y-00131065
Y-00133161
X-0018923Y-00057659
X-00207518Y-00066803
X-00154432Y00024891
X-0014956Y0003669
X-00140047Y0003882
X-00130959Y0003314
X-00170688Y00057276
X-00164846Y00063905
X-00256032Y00049905
X-00244856Y00035051
X-00244998Y00009397
X-00250952Y000016
X-00232156Y-00016511
X-00217424Y-00038101
X-00269993Y-00097283
X-00258572Y00082601
X-00152258Y00088803
X-00132805Y00089513
X-00115316Y00115315
X-001524Y00127507
X00072101Y00092624
T02
X-00204237Y-00086802
X-00178837
X-00153437
M30
