%TF.GenerationSoftware,Altium Limited,Altium Designer,25.8.1 (18)*%
G04 Layer_Color=8388736*
%FSLAX45Y45*%
%MOMM*%
%TF.SameCoordinates,BEAAF126-004A-4FDE-BC72-2481657C333F*%
%TF.FilePolarity,Negative*%
%TF.FileFunction,Soldermask,Top*%
%TF.Part,Single*%
G01*
G75*
%TA.AperFunction,SMDPad,CuDef*%
%ADD10R,1.75415X0.91339*%
G04:AMPARAMS|DCode=11|XSize=1.75415mm|YSize=0.91339mm|CornerRadius=0.45669mm|HoleSize=0mm|Usage=FLASHONLY|Rotation=0.000|XOffset=0mm|YOffset=0mm|HoleType=Round|Shape=RoundedRectangle|*
%AMROUNDEDRECTD11*
21,1,1.75415,0.00000,0,0,0.0*
21,1,0.84076,0.91339,0,0,0.0*
1,1,0.91339,0.42038,0.00000*
1,1,0.91339,-0.42038,0.00000*
1,1,0.91339,-0.42038,0.00000*
1,1,0.91339,0.42038,0.00000*
%
%ADD11ROUNDEDRECTD11*%
G04:AMPARAMS|DCode=12|XSize=1.75415mm|YSize=3.17213mm|CornerRadius=0.45608mm|HoleSize=0mm|Usage=FLASHONLY|Rotation=0.000|XOffset=0mm|YOffset=0mm|HoleType=Round|Shape=RoundedRectangle|*
%AMROUNDEDRECTD12*
21,1,1.75415,2.25997,0,0,0.0*
21,1,0.84199,3.17213,0,0,0.0*
1,1,0.91216,0.42100,-1.12999*
1,1,0.91216,-0.42100,-1.12999*
1,1,0.91216,-0.42100,1.12999*
1,1,0.91216,0.42100,1.12999*
%
%ADD12ROUNDEDRECTD12*%
%ADD13R,1.70000X0.60000*%
%ADD14R,0.66535X0.67248*%
%ADD15R,0.46535X0.47247*%
%ADD16R,0.48764X0.47247*%
%ADD17R,0.47247X0.51535*%
%ADD18R,0.47247X0.58106*%
%ADD21R,0.80000X0.90000*%
%ADD22R,0.90000X0.80000*%
%ADD24R,0.56818X0.57247*%
%ADD29R,1.50000X1.75000*%
%ADD30R,1.00000X5.50000*%
%ADD31R,1.60000X3.00000*%
%ADD32R,2.80000X1.00000*%
%ADD33R,0.80000X0.80000*%
%ADD36R,0.52000X0.52000*%
%ADD37R,0.71535X0.67248*%
%TA.AperFunction,ComponentPad*%
%ADD39C,1.57000*%
%ADD40R,1.57000X1.57000*%
%TA.AperFunction,SMDPad,CuDef*%
%ADD68R,0.99000X0.74000*%
%ADD69R,1.15320X1.00320*%
%ADD70R,0.70320X0.75320*%
%ADD71R,1.42320X1.11320*%
G04:AMPARAMS|DCode=72|XSize=1.2032mm|YSize=1.2032mm|CornerRadius=0.6016mm|HoleSize=0mm|Usage=FLASHONLY|Rotation=150.000|XOffset=0mm|YOffset=0mm|HoleType=Round|Shape=RoundedRectangle|*
%AMROUNDEDRECTD72*
21,1,1.20320,0.00000,0,0,150.0*
21,1,0.00000,1.20320,0,0,150.0*
1,1,1.20320,0.00000,0.00000*
1,1,1.20320,0.00000,0.00000*
1,1,1.20320,0.00000,0.00000*
1,1,1.20320,0.00000,0.00000*
%
%ADD72ROUNDEDRECTD72*%
G04:AMPARAMS|DCode=73|XSize=1.2032mm|YSize=1.2032mm|CornerRadius=0.6016mm|HoleSize=0mm|Usage=FLASHONLY|Rotation=90.000|XOffset=0mm|YOffset=0mm|HoleType=Round|Shape=RoundedRectangle|*
%AMROUNDEDRECTD73*
21,1,1.20320,0.00000,0,0,90.0*
21,1,0.00000,1.20320,0,0,90.0*
1,1,1.20320,0.00000,0.00000*
1,1,1.20320,0.00000,0.00000*
1,1,1.20320,0.00000,0.00000*
1,1,1.20320,0.00000,0.00000*
%
%ADD73ROUNDEDRECTD73*%
G04:AMPARAMS|DCode=74|XSize=1.2032mm|YSize=1.2032mm|CornerRadius=0.6016mm|HoleSize=0mm|Usage=FLASHONLY|Rotation=210.000|XOffset=0mm|YOffset=0mm|HoleType=Round|Shape=RoundedRectangle|*
%AMROUNDEDRECTD74*
21,1,1.20320,0.00000,0,0,210.0*
21,1,0.00000,1.20320,0,0,210.0*
1,1,1.20320,0.00000,0.00000*
1,1,1.20320,0.00000,0.00000*
1,1,1.20320,0.00000,0.00000*
1,1,1.20320,0.00000,0.00000*
%
%ADD74ROUNDEDRECTD74*%
%ADD75R,1.60020X1.29540*%
%ADD76R,0.76320X0.78320*%
%TA.AperFunction,ViaPad*%
%ADD77C,0.86360*%
G36*
X1536021Y1919455D02*
X1573190Y1903134D01*
X1606215Y1879526D01*
X1633686Y1849638D01*
X1654432Y1814745D01*
X1667569Y1776334D01*
X1672536Y1736044D01*
X1669121Y1695593D01*
X1657470Y1656706D01*
X1647775Y1638873D01*
X1639099Y1643868D01*
X1631165Y1629229D01*
X1610338Y1603245D01*
X1585216Y1581384D01*
X1556603Y1564347D01*
X1525414Y1552677D01*
X1492644Y1546747D01*
X1459343D01*
X1426574Y1552677D01*
X1395385Y1564347D01*
X1366772Y1581384D01*
X1341650Y1603245D01*
X1320822Y1629229D01*
X1312888Y1643868D01*
X1304213Y1638873D01*
X1294518Y1656706D01*
X1282867Y1695593D01*
X1279452Y1736044D01*
X1284419Y1776334D01*
X1297555Y1814745D01*
X1318302Y1849638D01*
X1345773Y1879526D01*
X1378797Y1903134D01*
X1415967Y1919455D01*
X1455696Y1927794D01*
X1496291D01*
X1536021Y1919455D01*
D02*
G37*
G36*
X-1463973D02*
X-1426804Y1903134D01*
X-1393779Y1879526D01*
X-1366308Y1849638D01*
X-1345562Y1814745D01*
X-1332425Y1776334D01*
X-1327458Y1736044D01*
X-1330873Y1695593D01*
X-1342524Y1656706D01*
X-1352219Y1638873D01*
X-1360895Y1643868D01*
X-1368829Y1629229D01*
X-1389656Y1603245D01*
X-1414778Y1581384D01*
X-1443391Y1564347D01*
X-1474580Y1552677D01*
X-1507350Y1546747D01*
X-1540651D01*
X-1573420Y1552677D01*
X-1604609Y1564347D01*
X-1633222Y1581384D01*
X-1658344Y1603245D01*
X-1679172Y1629229D01*
X-1687106Y1643868D01*
X-1695781Y1638873D01*
X-1705476Y1656706D01*
X-1717127Y1695593D01*
X-1720542Y1736044D01*
X-1715575Y1776334D01*
X-1702439Y1814745D01*
X-1681692Y1849638D01*
X-1654221Y1879526D01*
X-1621197Y1903134D01*
X-1584027Y1919455D01*
X-1544298Y1927794D01*
X-1503703D01*
X-1463973Y1919455D01*
D02*
G37*
G36*
X-922890Y1390600D02*
X-922769Y1390796D01*
X-771736Y1303464D01*
X-620652Y1216368D01*
X-620761Y1216166D01*
X-620225Y1215856D01*
X-628563Y1200432D01*
X-651035Y1173511D01*
X-678405Y1151590D01*
X-709583Y1135541D01*
X-743328Y1126003D01*
X-778295Y1123357D01*
X-813090Y1127708D01*
X-846329Y1138883D01*
X-861645Y1147739D01*
X-877035Y1156611D01*
X-903332Y1179809D01*
X-924498Y1207768D01*
X-939690Y1239373D01*
X-948302Y1273365D01*
X-949993Y1308391D01*
X-944693Y1343055D01*
X-932615Y1375976D01*
X-923427Y1390910D01*
X-922890Y1390600D01*
D02*
G37*
G36*
X-2116024Y1375875D02*
X-2103902Y1342970D01*
X-2098557Y1308313D01*
X-2100201Y1273284D01*
X-2108768Y1239280D01*
X-2123919Y1207655D01*
X-2145048Y1179669D01*
X-2171314Y1156436D01*
X-2201671Y1138883D01*
X-2234910Y1127708D01*
X-2269706Y1123357D01*
X-2304672Y1126003D01*
X-2338417Y1135541D01*
X-2369596Y1151590D01*
X-2396966Y1173511D01*
X-2419437Y1200432D01*
X-2427776Y1215856D01*
X-2125231Y1390796D01*
X-2116024Y1375875D01*
D02*
G37*
G36*
X-2848254Y953249D02*
X-2835565Y920573D01*
X-2828890Y886161D01*
X-2828441Y851110D01*
X-2834234Y816538D01*
X-2846082Y783548D01*
X-2863610Y753191D01*
X-2886257Y726435D01*
X-2913301Y704134D01*
X-2943881Y686998D01*
X-2977020Y675573D01*
X-3011664Y670225D01*
X-3029185Y670675D01*
X-3029173Y680693D01*
X-3029199Y680693D01*
Y680694D01*
X-3028971Y868900D01*
X-2866094Y963200D01*
X-2866079Y963176D01*
X-2857404Y968198D01*
X-2848254Y953249D01*
D02*
G37*
G36*
X2818104Y962688D02*
X2818419Y963202D01*
X2818420D01*
X2981297Y868901D01*
X2981525Y680695D01*
X2980995Y680681D01*
Y671061D01*
X2963508Y670593D01*
X2928926Y675891D01*
X2895838Y687255D01*
X2865298Y704322D01*
X2838281Y726550D01*
X2815647Y753228D01*
X2798119Y783506D01*
X2786256Y816419D01*
X2780436Y850917D01*
X2780844Y885900D01*
X2787467Y920253D01*
X2800094Y952880D01*
X2809209Y967810D01*
X2818104Y962688D01*
D02*
G37*
G36*
X-24003Y871762D02*
X142779Y967810D01*
X151894Y952880D01*
X164521Y920253D01*
X171144Y885900D01*
X171552Y850917D01*
X165732Y816419D01*
X153868Y783506D01*
X136341Y753228D01*
X113707Y726550D01*
X86690Y704322D01*
X56150Y687255D01*
X23062Y675891D01*
X-11520Y670593D01*
X-24003Y670927D01*
X-36486Y670593D01*
X-71068Y675891D01*
X-104156Y687255D01*
X-134696Y704322D01*
X-161713Y726550D01*
X-184347Y753228D01*
X-201875Y783506D01*
X-213738Y816419D01*
X-219558Y850917D01*
X-219150Y885900D01*
X-212527Y920253D01*
X-199900Y952880D01*
X-190785Y967810D01*
Y967811D01*
X-24003Y871762D01*
D02*
G37*
G36*
X-2976865Y169451D02*
X-2944151Y156716D01*
X-2914619Y137737D01*
X-2889444Y113272D01*
X-2869628Y84294D01*
X-2855963Y51958D01*
X-2848991Y17552D01*
Y-17553D01*
X-2855963Y-51958D01*
X-2869628Y-84294D01*
X-2889444Y-113272D01*
X-2914619Y-137737D01*
X-2944151Y-156716D01*
X-2976865Y-169451D01*
X-2977155Y-169502D01*
X-2977264Y-169544D01*
X-3011813Y-175544D01*
X-3029340Y-175054D01*
X-3029339D01*
X-3029570Y174427D01*
X-3029001Y174444D01*
Y174934D01*
X-3011456Y175436D01*
X-2976865Y169451D01*
D02*
G37*
G36*
X23062Y-675891D02*
X56150Y-687255D01*
X86690Y-704323D01*
X113707Y-726550D01*
X136341Y-753228D01*
X153868Y-783506D01*
X165732Y-816419D01*
X171552Y-850917D01*
X171144Y-885900D01*
X164521Y-920253D01*
X151894Y-952880D01*
X142779Y-967811D01*
X142779D01*
X142779D01*
X-24003Y-871762D01*
X-190785Y-967811D01*
X-199900Y-952880D01*
X-212527Y-920253D01*
X-219150Y-885900D01*
X-219558Y-850917D01*
X-213738Y-816419D01*
X-201875Y-783506D01*
X-184347Y-753228D01*
X-161713Y-726550D01*
X-134696Y-704323D01*
X-104156Y-687255D01*
X-71068Y-675891D01*
X-36486Y-670593D01*
X-24003Y-670928D01*
X-11520Y-670593D01*
X23062Y-675891D01*
D02*
G37*
G36*
X2980995Y-671062D02*
Y-680680D01*
X2981523Y-680694D01*
X2981523Y-680694D01*
X2981296Y-868900D01*
X2818418Y-963201D01*
X2818103Y-962688D01*
X2809209Y-967811D01*
X2800094Y-952880D01*
X2787467Y-920253D01*
X2780844Y-885900D01*
X2780436Y-850917D01*
X2786256Y-816419D01*
X2798119Y-783506D01*
X2815647Y-753228D01*
X2838281Y-726550D01*
X2865298Y-704323D01*
X2895838Y-687255D01*
X2928926Y-675891D01*
X2963508Y-670593D01*
X2980995Y-671062D01*
D02*
G37*
G36*
X-3029173Y-680693D02*
X-3012554Y-680245D01*
X-2979637Y-685290D01*
X-2948145Y-696116D01*
X-2919083Y-712377D01*
X-2893382Y-733553D01*
X-2871862Y-758966D01*
X-2855211Y-787806D01*
X-2843962Y-819150D01*
X-2838474Y-851996D01*
X-2838923Y-885294D01*
X-2845294Y-917981D01*
X-2857383Y-949010D01*
X-2866079Y-963176D01*
X-2857404Y-968199D01*
X-2867999Y-985511D01*
X-2895850Y-1015044D01*
X-2929173Y-1038227D01*
X-2966547Y-1054070D01*
X-3006379Y-1061899D01*
X-3046970Y-1061380D01*
X-3086588Y-1052534D01*
X-3123544Y-1035739D01*
X-3156263Y-1011711D01*
X-3183349Y-981475D01*
X-3203647Y-946319D01*
X-3216290Y-907745D01*
X-3220741Y-867396D01*
X-3216809Y-826993D01*
X-3204661Y-788259D01*
X-3184817Y-752846D01*
X-3158122Y-722264D01*
X-3125714Y-697818D01*
X-3088977Y-680550D01*
X-3049475Y-671196D01*
X-3029185Y-670675D01*
X-3029173Y-680693D01*
D02*
G37*
G36*
X-620223Y-1215855D02*
Y-1215854D01*
D01*
Y-1215855D01*
D02*
G37*
G36*
X-743326Y-1126002D02*
X-709581Y-1135540D01*
X-678403Y-1151589D01*
X-651033Y-1173510D01*
X-628562Y-1200431D01*
X-620223Y-1215854D01*
X-620225Y-1215856D01*
X-620225Y-1215856D01*
X-922769Y-1390796D01*
X-931977Y-1375875D01*
X-944098Y-1342970D01*
X-949444Y-1308313D01*
X-947800Y-1273285D01*
X-939232Y-1239281D01*
X-924081Y-1207656D01*
X-902952Y-1179669D01*
X-876686Y-1156437D01*
X-876686D01*
X-876684Y-1156435D01*
X-846327Y-1138882D01*
X-813089Y-1127707D01*
X-778293Y-1123356D01*
X-743326Y-1126002D01*
D02*
G37*
G36*
X-2234910Y-1127708D02*
X-2201671Y-1138883D01*
X-2186355Y-1147740D01*
X-2170965Y-1156611D01*
X-2144669Y-1179809D01*
X-2123502Y-1207768D01*
X-2108310Y-1239373D01*
X-2099698Y-1273365D01*
X-2098008Y-1308392D01*
X-2103307Y-1343055D01*
X-2115386Y-1375976D01*
X-2124573Y-1390910D01*
D01*
X-2124574Y-1390910D01*
X-2124573Y-1390910D01*
X-2125110Y-1390600D01*
X-2125231Y-1390796D01*
X-2276378Y-1303399D01*
X-2427348Y-1216369D01*
X-2427239Y-1216166D01*
X-2427776Y-1215856D01*
X-2419437Y-1200432D01*
X-2396966Y-1173512D01*
X-2369596Y-1151590D01*
X-2338417Y-1135541D01*
X-2304672Y-1126003D01*
X-2269706Y-1123357D01*
X-2234910Y-1127708D01*
D02*
G37*
G36*
X1525414Y-1552677D02*
X1556603Y-1564347D01*
X1585216Y-1581385D01*
X1610338Y-1603245D01*
X1631165Y-1629230D01*
X1639099Y-1643868D01*
X1475994Y-1737775D01*
X1312888Y-1643868D01*
X1320822Y-1629230D01*
X1341650Y-1603245D01*
X1366772Y-1581385D01*
X1395385Y-1564347D01*
X1426574Y-1552677D01*
X1459343Y-1546747D01*
X1492644D01*
X1525414Y-1552677D01*
D02*
G37*
G36*
X-1474580D02*
X-1443391Y-1564347D01*
X-1414778Y-1581385D01*
X-1389656Y-1603245D01*
X-1368829Y-1629230D01*
X-1360895Y-1643868D01*
X-1524000Y-1737775D01*
X-1687106Y-1643868D01*
X-1679172Y-1629230D01*
X-1658344Y-1603245D01*
X-1633222Y-1581385D01*
X-1604609Y-1564347D01*
X-1573420Y-1552677D01*
X-1540651Y-1546747D01*
X-1507350D01*
X-1474580Y-1552677D01*
D02*
G37*
D10*
X2036189Y756883D02*
D03*
D11*
Y296884D02*
D03*
Y526881D02*
D03*
D12*
X2661187D02*
D03*
D13*
X2310636Y-78853D02*
D03*
Y-203857D02*
D03*
D14*
X2006801Y1010136D02*
D03*
X1906085D02*
D03*
D15*
X1573726Y-260819D02*
D03*
X1493015D02*
D03*
D16*
X593982Y-1002971D02*
D03*
X676802D02*
D03*
D17*
X1217537Y-1390834D02*
D03*
Y-1315122D02*
D03*
X2237505Y-1063845D02*
D03*
Y-988133D02*
D03*
D18*
X921266Y-1223210D02*
D03*
Y-1150103D02*
D03*
D21*
X-656221Y-455937D02*
D03*
X-846223D02*
D03*
X-751222Y-255937D02*
D03*
D22*
X-1028509Y-927284D02*
D03*
Y-737287D02*
D03*
X-828509Y-832288D02*
D03*
D24*
X1322561Y-583699D02*
D03*
X1232132D02*
D03*
D29*
X144946Y393312D02*
D03*
Y118312D02*
D03*
D30*
X1481545Y218012D02*
D03*
X1281540D02*
D03*
D31*
X1721544Y443010D02*
D03*
X1041540D02*
D03*
D32*
X2645637Y106145D02*
D03*
Y-388855D02*
D03*
D33*
X279794Y-419249D02*
D03*
Y-269252D02*
D03*
X1800391Y-656856D02*
D03*
Y-806858D02*
D03*
D36*
X-483049Y272845D02*
D03*
X-563049D02*
D03*
D37*
X-914884Y98373D02*
D03*
X-819172D02*
D03*
X-449135Y-706188D02*
D03*
X-353422D02*
D03*
D39*
X-1534370Y-868016D02*
D03*
X-1788370D02*
D03*
D40*
X-2042370D02*
D03*
D68*
X-532172Y814424D02*
D03*
Y674424D02*
D03*
X-1911423Y723568D02*
D03*
Y583569D02*
D03*
D69*
X429111Y-781742D02*
D03*
Y-656744D02*
D03*
D70*
X-1602752Y-1331607D02*
D03*
Y-1256606D02*
D03*
D71*
X902674Y-324360D02*
D03*
Y2640D02*
D03*
X783573Y405931D02*
D03*
Y732931D02*
D03*
D72*
X-2954682Y826006D02*
D03*
X2907003Y-826010D02*
D03*
X-2955012Y-2D02*
D03*
D73*
X-1524002Y1651989D02*
D03*
X1475992Y-1651992D02*
D03*
X-16791Y775206D02*
D03*
X1475992Y1651989D02*
D03*
X-16791Y-775210D02*
D03*
X-1524002Y-1651992D02*
D03*
X-2239012Y1239010D02*
D03*
X-808992Y-1239014D02*
D03*
D74*
X-2954682Y-826010D02*
D03*
X2907003Y826006D02*
D03*
X-808992Y1239010D02*
D03*
X-2239012Y-1239014D02*
D03*
D75*
X-2128212Y677127D02*
D03*
Y491707D02*
D03*
X-2319286Y201420D02*
D03*
Y16000D02*
D03*
D76*
X-298731Y471367D02*
D03*
Y393368D02*
D03*
X399185Y814460D02*
D03*
Y736461D02*
D03*
D77*
X2118358Y-78752D02*
D03*
D03*
X-2449979Y93968D02*
D03*
X1916652Y638996D02*
D03*
X2237505Y-1131079D02*
D03*
X811081Y-1002971D02*
D03*
X-749302Y-414032D02*
D03*
X58418Y-368312D02*
D03*
X721008Y926235D02*
D03*
X2123850Y-283684D02*
D03*
X800098Y616385D02*
D03*
X1391918Y-1254772D02*
D03*
X1595667Y-452132D02*
D03*
X2052318Y-607717D02*
D03*
X-2321562Y-165112D02*
D03*
X-2509522Y16000D02*
D03*
X-1544322Y248908D02*
D03*
X-2585717Y826006D02*
D03*
X-1648462Y639052D02*
D03*
X-2560322Y499053D02*
D03*
X-2075182Y-668032D02*
D03*
X-1706882Y572758D02*
D03*
X-2174242Y-381012D02*
D03*
X-1153162Y1153148D02*
D03*
X-995164Y-1040502D02*
D03*
X-1309588Y331399D02*
D03*
X-1400466Y388200D02*
D03*
X-1328048Y895129D02*
D03*
X-1522583Y888027D02*
D03*
X-1495605Y366898D02*
D03*
X30874Y-518172D02*
D03*
X-2699930Y-972832D02*
D03*
X-1524002Y-1331607D02*
D03*
Y-1310652D02*
D03*
X-2449979Y93968D02*
D03*
X-2448562Y350508D02*
D03*
X-1524002Y1275068D02*
D03*
X2118358Y-78752D02*
D03*
X-1892302Y-576592D02*
D03*
%TF.MD5,da1de2f39e9711821b90a9affa460f4a*%
M02*
