%TF.GenerationSoftware,Altium Limited,Altium Designer,25.8.1 (18)*%
G04 Layer_Color=32896*
%FSLAX45Y45*%
%MOMM*%
%TF.SameCoordinates,BEAAF126-004A-4FDE-BC72-2481657C333F*%
%TF.FilePolarity,Positive*%
%TF.FileFunction,Legend,Bot*%
%TF.Part,Single*%
G01*
G75*
%TA.AperFunction,NonConductor*%
%ADD61C,0.25000*%
%ADD62C,0.20000*%
%ADD63C,0.08000*%
%ADD64C,0.10000*%
%ADD66C,0.25400*%
%ADD67C,0.07620*%
G36*
X741202Y-357848D02*
X742799Y-357942D01*
X744303Y-358224D01*
X745713Y-358506D01*
X747028Y-358882D01*
X748250Y-359258D01*
X749378Y-359727D01*
X750412Y-360197D01*
X751352Y-360667D01*
X752103Y-361137D01*
X752761Y-361513D01*
X753325Y-361889D01*
X753795Y-362171D01*
X754077Y-362453D01*
X754265Y-362547D01*
X754359Y-362641D01*
X755299Y-363581D01*
X756145Y-364614D01*
X756990Y-365742D01*
X757648Y-366870D01*
X758776Y-369125D01*
X759528Y-371381D01*
X759810Y-372415D01*
X760092Y-373449D01*
X760280Y-374294D01*
X760468Y-375046D01*
X760562Y-375704D01*
Y-376174D01*
X760656Y-376456D01*
Y-376550D01*
X752479Y-377396D01*
X752291Y-375234D01*
X751915Y-373355D01*
X751352Y-371663D01*
X750694Y-370347D01*
X750130Y-369219D01*
X749566Y-368468D01*
X749190Y-367998D01*
X749002Y-367810D01*
X747592Y-366682D01*
X746089Y-365836D01*
X744491Y-365178D01*
X743081Y-364802D01*
X741766Y-364520D01*
X740638Y-364427D01*
X740262Y-364333D01*
X739698D01*
X737724Y-364427D01*
X735939Y-364802D01*
X734435Y-365366D01*
X733119Y-365930D01*
X732086Y-366588D01*
X731428Y-367058D01*
X730958Y-367434D01*
X730770Y-367622D01*
X729642Y-368938D01*
X728796Y-370253D01*
X728138Y-371569D01*
X727763Y-372885D01*
X727481Y-373918D01*
X727387Y-374858D01*
X727293Y-375422D01*
Y-375516D01*
Y-375610D01*
X727481Y-377302D01*
X727857Y-379087D01*
X728514Y-380685D01*
X729172Y-382189D01*
X729924Y-383410D01*
X730582Y-384444D01*
X730770Y-384820D01*
X730958Y-385102D01*
X731146Y-385196D01*
Y-385290D01*
X731898Y-386324D01*
X732837Y-387358D01*
X733871Y-388485D01*
X734999Y-389613D01*
X737349Y-391869D01*
X739698Y-394124D01*
X740920Y-395158D01*
X741954Y-396098D01*
X742987Y-396944D01*
X743833Y-397695D01*
X744491Y-398259D01*
X745055Y-398729D01*
X745431Y-399011D01*
X745525Y-399105D01*
X747874Y-401079D01*
X750036Y-402958D01*
X751821Y-404650D01*
X753231Y-406060D01*
X754453Y-407281D01*
X755299Y-408127D01*
X755769Y-408691D01*
X755957Y-408785D01*
Y-408879D01*
X757272Y-410477D01*
X758306Y-411980D01*
X759246Y-413484D01*
X759998Y-414800D01*
X760562Y-415928D01*
X760938Y-416773D01*
X761125Y-417337D01*
X761219Y-417431D01*
Y-417525D01*
X761595Y-418559D01*
X761783Y-419499D01*
X761971Y-420439D01*
X762065Y-421284D01*
X762159Y-422036D01*
Y-422600D01*
Y-422976D01*
Y-423070D01*
X719022D01*
Y-415364D01*
X751070D01*
X749942Y-413766D01*
X749378Y-413108D01*
X748908Y-412450D01*
X748438Y-411886D01*
X748062Y-411510D01*
X747780Y-411229D01*
X747686Y-411135D01*
X747216Y-410665D01*
X746653Y-410195D01*
X745337Y-408973D01*
X743833Y-407563D01*
X742235Y-406154D01*
X740732Y-404932D01*
X740074Y-404368D01*
X739510Y-403804D01*
X739040Y-403428D01*
X738664Y-403146D01*
X738476Y-402958D01*
X738382Y-402864D01*
X736879Y-401549D01*
X735375Y-400327D01*
X734059Y-399105D01*
X732837Y-398071D01*
X731710Y-397038D01*
X730770Y-396098D01*
X729830Y-395252D01*
X729078Y-394500D01*
X728326Y-393748D01*
X727763Y-393184D01*
X727293Y-392714D01*
X726823Y-392245D01*
X726353Y-391681D01*
X726165Y-391493D01*
X724849Y-389895D01*
X723721Y-388485D01*
X722782Y-387076D01*
X722030Y-385948D01*
X721466Y-384914D01*
X721090Y-384162D01*
X720902Y-383692D01*
X720808Y-383504D01*
X720244Y-382095D01*
X719868Y-380685D01*
X719492Y-379369D01*
X719304Y-378242D01*
X719210Y-377208D01*
X719116Y-376456D01*
Y-375986D01*
Y-375798D01*
X719210Y-374388D01*
X719398Y-373073D01*
X719586Y-371757D01*
X719962Y-370629D01*
X720902Y-368374D01*
X721842Y-366588D01*
X722406Y-365742D01*
X722876Y-365084D01*
X723346Y-364427D01*
X723815Y-363957D01*
X724191Y-363581D01*
X724379Y-363205D01*
X724567Y-363111D01*
X724661Y-363017D01*
X725695Y-362077D01*
X726823Y-361231D01*
X728045Y-360573D01*
X729266Y-360009D01*
X731710Y-359070D01*
X734153Y-358412D01*
X735187Y-358224D01*
X736221Y-358036D01*
X737161Y-357942D01*
X737912Y-357848D01*
X738570Y-357754D01*
X739510D01*
X741202Y-357848D01*
D02*
G37*
G36*
X823246Y-395628D02*
Y-397507D01*
X823152Y-399293D01*
X823058Y-400985D01*
X822870Y-402582D01*
X822682Y-403992D01*
X822494Y-405308D01*
X822212Y-406530D01*
X822025Y-407657D01*
X821837Y-408691D01*
X821555Y-409537D01*
X821367Y-410289D01*
X821179Y-410853D01*
X820991Y-411323D01*
X820897Y-411698D01*
X820803Y-411886D01*
Y-411980D01*
X819769Y-414048D01*
X818453Y-415928D01*
X817138Y-417431D01*
X815728Y-418747D01*
X814506Y-419781D01*
X813472Y-420533D01*
X813096Y-420721D01*
X812814Y-420908D01*
X812627Y-421096D01*
X812533D01*
X810183Y-422130D01*
X807740Y-422882D01*
X805202Y-423446D01*
X802853Y-423822D01*
X801819Y-423916D01*
X800785Y-424010D01*
X799845Y-424104D01*
X799093D01*
X798436Y-424198D01*
X797590D01*
X794206Y-424010D01*
X792703Y-423822D01*
X791293Y-423634D01*
X789883Y-423352D01*
X788662Y-423070D01*
X787534Y-422788D01*
X786500Y-422412D01*
X785560Y-422036D01*
X784808Y-421754D01*
X784057Y-421472D01*
X783493Y-421190D01*
X783023Y-420908D01*
X782741Y-420815D01*
X782553Y-420627D01*
X782459D01*
X780391Y-419217D01*
X778700Y-417619D01*
X777384Y-416115D01*
X776256Y-414612D01*
X775410Y-413296D01*
X774847Y-412262D01*
X774659Y-411886D01*
X774471Y-411604D01*
X774377Y-411416D01*
Y-411323D01*
X774001Y-410195D01*
X773625Y-408973D01*
X773061Y-406436D01*
X772685Y-403804D01*
X772403Y-401267D01*
X772309Y-400139D01*
X772215Y-399011D01*
Y-398071D01*
X772121Y-397226D01*
Y-396568D01*
Y-396098D01*
Y-395722D01*
Y-395628D01*
Y-358036D01*
X780767D01*
Y-395628D01*
Y-397789D01*
X780955Y-399857D01*
X781143Y-401643D01*
X781425Y-403334D01*
X781707Y-404838D01*
X782083Y-406248D01*
X782365Y-407469D01*
X782741Y-408503D01*
X783117Y-409349D01*
X783493Y-410195D01*
X783869Y-410759D01*
X784151Y-411323D01*
X784433Y-411698D01*
X784620Y-411980D01*
X784714Y-412074D01*
X784808Y-412168D01*
X785654Y-412920D01*
X786594Y-413578D01*
X788662Y-414612D01*
X790823Y-415364D01*
X793079Y-415834D01*
X795146Y-416209D01*
X795992Y-416303D01*
X796838D01*
X797402Y-416397D01*
X798342D01*
X800315Y-416303D01*
X802101Y-416022D01*
X803792Y-415740D01*
X805108Y-415270D01*
X806236Y-414894D01*
X807082Y-414612D01*
X807552Y-414330D01*
X807740Y-414236D01*
X809055Y-413390D01*
X810183Y-412356D01*
X811123Y-411323D01*
X811781Y-410383D01*
X812345Y-409443D01*
X812814Y-408785D01*
X813002Y-408315D01*
X813096Y-408127D01*
X813378Y-407281D01*
X813566Y-406436D01*
X813942Y-404462D01*
X814224Y-402394D01*
X814412Y-400327D01*
X814506Y-398541D01*
Y-397695D01*
X814600Y-397038D01*
Y-396474D01*
Y-396004D01*
Y-395722D01*
Y-395628D01*
Y-358036D01*
X823246D01*
Y-395628D01*
D02*
G37*
G36*
X1739438Y-964003D02*
X1740472Y-965507D01*
X1741694Y-967010D01*
X1742822Y-968326D01*
X1743950Y-969454D01*
X1744795Y-970394D01*
X1745171Y-970675D01*
X1745453Y-970957D01*
X1745547Y-971051D01*
X1745641Y-971145D01*
X1747615Y-972743D01*
X1749588Y-974247D01*
X1751468Y-975562D01*
X1753348Y-976596D01*
X1754945Y-977536D01*
X1755603Y-977912D01*
X1756167Y-978194D01*
X1756637Y-978476D01*
X1757013Y-978570D01*
X1757201Y-978758D01*
X1757295D01*
Y-986464D01*
X1755885Y-985900D01*
X1754475Y-985242D01*
X1753066Y-984585D01*
X1751750Y-983927D01*
X1750622Y-983363D01*
X1749682Y-982893D01*
X1749118Y-982517D01*
X1749024Y-982423D01*
X1748930D01*
X1747239Y-981389D01*
X1745735Y-980355D01*
X1744419Y-979416D01*
X1743386Y-978570D01*
X1742446Y-977912D01*
X1741882Y-977348D01*
X1741412Y-976972D01*
X1741318Y-976878D01*
Y-1027721D01*
X1733330D01*
Y-962405D01*
X1738499D01*
X1739438Y-964003D01*
D02*
G37*
G36*
X1825618Y-1000279D02*
Y-1002159D01*
X1825524Y-1003944D01*
X1825430Y-1005636D01*
X1825242Y-1007234D01*
X1825054Y-1008643D01*
X1824866Y-1009959D01*
X1824584Y-1011181D01*
X1824396Y-1012309D01*
X1824208Y-1013342D01*
X1823927Y-1014188D01*
X1823739Y-1014940D01*
X1823551Y-1015504D01*
X1823363Y-1015974D01*
X1823269Y-1016350D01*
X1823175Y-1016538D01*
Y-1016632D01*
X1822141Y-1018699D01*
X1820825Y-1020579D01*
X1819509Y-1022083D01*
X1818100Y-1023398D01*
X1816878Y-1024432D01*
X1815844Y-1025184D01*
X1815468Y-1025372D01*
X1815186Y-1025560D01*
X1814998Y-1025748D01*
X1814904D01*
X1812555Y-1026782D01*
X1810111Y-1027533D01*
X1807574Y-1028097D01*
X1805224Y-1028473D01*
X1804191Y-1028567D01*
X1803157Y-1028661D01*
X1802217Y-1028755D01*
X1801465D01*
X1800807Y-1028849D01*
X1799962D01*
X1796578Y-1028661D01*
X1795075Y-1028473D01*
X1793665Y-1028285D01*
X1792255Y-1028003D01*
X1791034Y-1027721D01*
X1789906Y-1027439D01*
X1788872Y-1027063D01*
X1787932Y-1026688D01*
X1787180Y-1026406D01*
X1786428Y-1026124D01*
X1785865Y-1025842D01*
X1785395Y-1025560D01*
X1785113Y-1025466D01*
X1784925Y-1025278D01*
X1784831D01*
X1782763Y-1023868D01*
X1781072Y-1022270D01*
X1779756Y-1020767D01*
X1778628Y-1019263D01*
X1777782Y-1017947D01*
X1777218Y-1016914D01*
X1777030Y-1016538D01*
X1776843Y-1016256D01*
X1776749Y-1016068D01*
Y-1015974D01*
X1776373Y-1014846D01*
X1775997Y-1013624D01*
X1775433Y-1011087D01*
X1775057Y-1008455D01*
X1774775Y-1005918D01*
X1774681Y-1004790D01*
X1774587Y-1003662D01*
Y-1002723D01*
X1774493Y-1001877D01*
Y-1001219D01*
Y-1000749D01*
Y-1000373D01*
Y-1000279D01*
Y-962687D01*
X1783139D01*
Y-1000279D01*
Y-1002441D01*
X1783327Y-1004508D01*
X1783515Y-1006294D01*
X1783797Y-1007986D01*
X1784079Y-1009489D01*
X1784455Y-1010899D01*
X1784737Y-1012121D01*
X1785113Y-1013154D01*
X1785489Y-1014000D01*
X1785865Y-1014846D01*
X1786241Y-1015410D01*
X1786522Y-1015974D01*
X1786804Y-1016350D01*
X1786992Y-1016632D01*
X1787086Y-1016726D01*
X1787180Y-1016820D01*
X1788026Y-1017571D01*
X1788966Y-1018229D01*
X1791034Y-1019263D01*
X1793195Y-1020015D01*
X1795451Y-1020485D01*
X1797518Y-1020861D01*
X1798364Y-1020955D01*
X1799210D01*
X1799774Y-1021049D01*
X1800713D01*
X1802687Y-1020955D01*
X1804473Y-1020673D01*
X1806164Y-1020391D01*
X1807480Y-1019921D01*
X1808608Y-1019545D01*
X1809454Y-1019263D01*
X1809923Y-1018981D01*
X1810111Y-1018887D01*
X1811427Y-1018041D01*
X1812555Y-1017008D01*
X1813495Y-1015974D01*
X1814153Y-1015034D01*
X1814716Y-1014094D01*
X1815186Y-1013436D01*
X1815374Y-1012966D01*
X1815468Y-1012779D01*
X1815750Y-1011933D01*
X1815938Y-1011087D01*
X1816314Y-1009113D01*
X1816596Y-1007046D01*
X1816784Y-1004978D01*
X1816878Y-1003193D01*
Y-1002347D01*
X1816972Y-1001689D01*
Y-1001125D01*
Y-1000655D01*
Y-1000373D01*
Y-1000279D01*
Y-962687D01*
X1825618D01*
Y-1000279D01*
D02*
G37*
G36*
X796329Y660230D02*
X797833D01*
X799336Y660136D01*
X800652Y659948D01*
X801968Y659854D01*
X803095Y659760D01*
X804129Y659572D01*
X805069Y659478D01*
X805915Y659290D01*
X806573Y659196D01*
X807137Y659102D01*
X807606Y659008D01*
X807888Y658914D01*
X808076Y658820D01*
X808170D01*
X810238Y658256D01*
X812118Y657599D01*
X813715Y656847D01*
X815125Y656283D01*
X816347Y655625D01*
X817192Y655249D01*
X817662Y654873D01*
X817850Y654779D01*
X819260Y653745D01*
X820482Y652712D01*
X821516Y651584D01*
X822455Y650550D01*
X823113Y649610D01*
X823583Y648858D01*
X823865Y648389D01*
X823959Y648295D01*
Y648201D01*
X824711Y646697D01*
X825181Y645099D01*
X825557Y643596D01*
X825839Y642186D01*
X826027Y640964D01*
X826121Y639930D01*
Y639085D01*
X825933Y636547D01*
X825557Y634198D01*
X824899Y632224D01*
X824241Y630532D01*
X823489Y629123D01*
X823207Y628559D01*
X822831Y628089D01*
X822643Y627713D01*
X822455Y627431D01*
X822267Y627337D01*
Y627243D01*
X820764Y625551D01*
X818978Y624142D01*
X817192Y622920D01*
X815501Y621980D01*
X813903Y621228D01*
X813245Y620852D01*
X812587Y620664D01*
X812118Y620477D01*
X811742Y620289D01*
X811554Y620195D01*
X811460D01*
X810050Y619819D01*
X808640Y619443D01*
X805539Y618879D01*
X802438Y618409D01*
X799524Y618127D01*
X798114Y618033D01*
X796893Y617939D01*
X795765D01*
X794731Y617845D01*
X793979D01*
X793322D01*
X792946D01*
X792852D01*
X789562Y617939D01*
X786461Y618127D01*
X783642Y618409D01*
X781010Y618879D01*
X778567Y619349D01*
X776405Y619913D01*
X774432Y620477D01*
X772740Y621040D01*
X771236Y621604D01*
X769920Y622262D01*
X768793Y622732D01*
X767947Y623202D01*
X767195Y623672D01*
X766725Y623954D01*
X766443Y624142D01*
X766349Y624236D01*
X765221Y625270D01*
X764188Y626397D01*
X763248Y627619D01*
X762496Y628841D01*
X761838Y630062D01*
X761274Y631284D01*
X760898Y632506D01*
X760522Y633634D01*
X760241Y634761D01*
X760053Y635795D01*
X759865Y636735D01*
X759771Y637487D01*
X759677Y638145D01*
Y639085D01*
X759865Y641622D01*
X760241Y643972D01*
X760898Y645945D01*
X761556Y647637D01*
X762214Y649046D01*
X762590Y649516D01*
X762872Y649986D01*
X763060Y650362D01*
X763248Y650644D01*
X763436Y650738D01*
Y650832D01*
X765034Y652524D01*
X766725Y653933D01*
X768605Y655155D01*
X770296Y656095D01*
X771894Y656847D01*
X772552Y657223D01*
X773210Y657411D01*
X773680Y657599D01*
X774056Y657787D01*
X774244Y657881D01*
X774338D01*
X775747Y658350D01*
X777157Y658726D01*
X780164Y659290D01*
X783266Y659760D01*
X786273Y660042D01*
X787589Y660136D01*
X788810Y660230D01*
X789938D01*
X790972Y660324D01*
X791724D01*
X792382D01*
X792758D01*
X792852D01*
X794637D01*
X796329Y660230D01*
D02*
G37*
G36*
X826121Y592189D02*
X824523Y591249D01*
X823019Y590215D01*
X821516Y588993D01*
X820200Y587865D01*
X819072Y586738D01*
X818132Y585892D01*
X817850Y585516D01*
X817568Y585234D01*
X817474Y585140D01*
X817380Y585046D01*
X815783Y583072D01*
X814279Y581099D01*
X812963Y579219D01*
X811930Y577340D01*
X810990Y575742D01*
X810614Y575084D01*
X810332Y574520D01*
X810050Y574050D01*
X809956Y573674D01*
X809768Y573487D01*
Y573393D01*
X802062D01*
X802626Y574802D01*
X803283Y576212D01*
X803941Y577622D01*
X804599Y578937D01*
X805163Y580065D01*
X805633Y581005D01*
X806009Y581569D01*
X806103Y581663D01*
Y581757D01*
X807137Y583448D01*
X808170Y584952D01*
X809110Y586268D01*
X809956Y587302D01*
X810614Y588241D01*
X811178Y588805D01*
X811554Y589275D01*
X811648Y589369D01*
X760804D01*
Y597357D01*
X826121D01*
Y592189D01*
D02*
G37*
G36*
X778473Y551025D02*
X780352Y549710D01*
X782044Y548488D01*
X783454Y547266D01*
X784769Y546232D01*
X785709Y545293D01*
X786461Y544541D01*
X786931Y544071D01*
X787119Y543883D01*
X787683Y543131D01*
X788341Y542285D01*
X789374Y540594D01*
X789750Y539842D01*
X790126Y539278D01*
X790314Y538902D01*
X790408Y538714D01*
X790690Y540406D01*
X790972Y542003D01*
X791442Y543413D01*
X791818Y544823D01*
X792288Y546044D01*
X792852Y547172D01*
X793322Y548206D01*
X793791Y549146D01*
X794355Y549898D01*
X794825Y550649D01*
X795201Y551213D01*
X795577Y551683D01*
X795859Y552059D01*
X796141Y552341D01*
X796235Y552435D01*
X796329Y552529D01*
X797269Y553281D01*
X798208Y554033D01*
X800182Y555160D01*
X802156Y555912D01*
X804035Y556476D01*
X805633Y556852D01*
X806291Y556946D01*
X806949D01*
X807419Y557040D01*
X807794D01*
X807982D01*
X808076D01*
X810050Y556946D01*
X811836Y556664D01*
X813527Y556194D01*
X814937Y555724D01*
X816159Y555160D01*
X817098Y554785D01*
X817662Y554409D01*
X817756Y554315D01*
X817850D01*
X819354Y553187D01*
X820670Y552059D01*
X821797Y550837D01*
X822643Y549710D01*
X823301Y548676D01*
X823677Y547830D01*
X823959Y547266D01*
X824053Y547172D01*
Y547078D01*
X824335Y546232D01*
X824617Y545199D01*
X825087Y543131D01*
X825369Y540875D01*
X825651Y538808D01*
X825745Y536834D01*
Y535989D01*
X825839Y535237D01*
Y505069D01*
X760804D01*
Y513715D01*
X789656D01*
Y524805D01*
X789562Y525839D01*
Y526591D01*
X789468Y527248D01*
X789374Y527718D01*
Y528094D01*
X789280Y528282D01*
Y528376D01*
X788810Y529880D01*
X788529Y530538D01*
X788247Y531102D01*
X787965Y531665D01*
X787777Y532041D01*
X787683Y532229D01*
X787589Y532323D01*
X787025Y533075D01*
X786367Y533827D01*
X784957Y535237D01*
X784299Y535895D01*
X783736Y536364D01*
X783360Y536646D01*
X783266Y536740D01*
X781950Y537680D01*
X780540Y538714D01*
X779037Y539748D01*
X777627Y540781D01*
X776311Y541627D01*
X775277Y542285D01*
X774901Y542567D01*
X774619Y542755D01*
X774432Y542943D01*
X774338D01*
X760804Y551495D01*
Y562209D01*
X778473Y551025D01*
D02*
G37*
G36*
X109063Y-47828D02*
X110660Y-47922D01*
X112164Y-48204D01*
X113574Y-48486D01*
X114889Y-48862D01*
X116111Y-49238D01*
X117239Y-49708D01*
X118273Y-50177D01*
X119212Y-50647D01*
X119964Y-51117D01*
X120622Y-51493D01*
X121186Y-51869D01*
X121656Y-52151D01*
X121938Y-52433D01*
X122126Y-52527D01*
X122220Y-52621D01*
X123160Y-53561D01*
X124005Y-54595D01*
X124851Y-55722D01*
X125509Y-56850D01*
X126637Y-59106D01*
X127389Y-61361D01*
X127671Y-62395D01*
X127953Y-63429D01*
X128140Y-64274D01*
X128328Y-65026D01*
X128422Y-65684D01*
Y-66154D01*
X128516Y-66436D01*
Y-66530D01*
X120340Y-67376D01*
X120152Y-65214D01*
X119776Y-63335D01*
X119212Y-61643D01*
X118554Y-60327D01*
X117991Y-59200D01*
X117427Y-58448D01*
X117051Y-57978D01*
X116863Y-57790D01*
X115453Y-56662D01*
X113949Y-55816D01*
X112352Y-55158D01*
X110942Y-54782D01*
X109626Y-54501D01*
X108499Y-54407D01*
X108123Y-54313D01*
X107559D01*
X105585Y-54407D01*
X103800Y-54782D01*
X102296Y-55346D01*
X100980Y-55910D01*
X99946Y-56568D01*
X99289Y-57038D01*
X98819Y-57414D01*
X98631Y-57602D01*
X97503Y-58918D01*
X96657Y-60233D01*
X95999Y-61549D01*
X95623Y-62865D01*
X95341Y-63899D01*
X95247Y-64838D01*
X95153Y-65402D01*
Y-65496D01*
Y-65590D01*
X95341Y-67282D01*
X95717Y-69067D01*
X96375Y-70665D01*
X97033Y-72169D01*
X97785Y-73391D01*
X98443Y-74424D01*
X98631Y-74800D01*
X98819Y-75082D01*
X99007Y-75176D01*
Y-75270D01*
X99758Y-76304D01*
X100698Y-77338D01*
X101732Y-78465D01*
X102860Y-79593D01*
X105209Y-81849D01*
X107559Y-84104D01*
X108781Y-85138D01*
X109814Y-86078D01*
X110848Y-86924D01*
X111694Y-87675D01*
X112352Y-88239D01*
X112916Y-88709D01*
X113292Y-88991D01*
X113386Y-89085D01*
X115735Y-91059D01*
X117897Y-92938D01*
X119682Y-94630D01*
X121092Y-96040D01*
X122314Y-97261D01*
X123160Y-98107D01*
X123629Y-98671D01*
X123817Y-98765D01*
Y-98859D01*
X125133Y-100457D01*
X126167Y-101960D01*
X127107Y-103464D01*
X127859Y-104780D01*
X128422Y-105908D01*
X128798Y-106753D01*
X128986Y-107317D01*
X129080Y-107411D01*
Y-107505D01*
X129456Y-108539D01*
X129644Y-109479D01*
X129832Y-110419D01*
X129926Y-111264D01*
X130020Y-112016D01*
Y-112580D01*
Y-112956D01*
Y-113050D01*
X86883D01*
Y-105344D01*
X118930D01*
X117803Y-103746D01*
X117239Y-103088D01*
X116769Y-102430D01*
X116299Y-101866D01*
X115923Y-101491D01*
X115641Y-101209D01*
X115547Y-101115D01*
X115077Y-100645D01*
X114513Y-100175D01*
X113198Y-98953D01*
X111694Y-97543D01*
X110096Y-96134D01*
X108593Y-94912D01*
X107935Y-94348D01*
X107371Y-93784D01*
X106901Y-93408D01*
X106525Y-93126D01*
X106337Y-92938D01*
X106243Y-92844D01*
X104739Y-91529D01*
X103236Y-90307D01*
X101920Y-89085D01*
X100698Y-88051D01*
X99571Y-87018D01*
X98631Y-86078D01*
X97691Y-85232D01*
X96939Y-84480D01*
X96187Y-83728D01*
X95623Y-83164D01*
X95153Y-82695D01*
X94684Y-82225D01*
X94214Y-81661D01*
X94026Y-81473D01*
X92710Y-79875D01*
X91582Y-78465D01*
X90642Y-77056D01*
X89891Y-75928D01*
X89327Y-74894D01*
X88951Y-74142D01*
X88763Y-73672D01*
X88669Y-73484D01*
X88105Y-72075D01*
X87729Y-70665D01*
X87353Y-69349D01*
X87165Y-68222D01*
X87071Y-67188D01*
X86977Y-66436D01*
Y-65966D01*
Y-65778D01*
X87071Y-64368D01*
X87259Y-63053D01*
X87447Y-61737D01*
X87823Y-60609D01*
X88763Y-58354D01*
X89703Y-56568D01*
X90267Y-55722D01*
X90736Y-55064D01*
X91206Y-54407D01*
X91676Y-53937D01*
X92052Y-53561D01*
X92240Y-53185D01*
X92428Y-53091D01*
X92522Y-52997D01*
X93556Y-52057D01*
X94684Y-51211D01*
X95905Y-50553D01*
X97127Y-49989D01*
X99571Y-49050D01*
X102014Y-48392D01*
X103048Y-48204D01*
X104082Y-48016D01*
X105021Y-47922D01*
X105773Y-47828D01*
X106431Y-47734D01*
X107371D01*
X109063Y-47828D01*
D02*
G37*
G36*
X191107Y-113050D02*
X182461D01*
Y-84198D01*
X171371D01*
X170337Y-84292D01*
X169586D01*
X168928Y-84386D01*
X168458Y-84480D01*
X168082D01*
X167894Y-84574D01*
X167800D01*
X166296Y-85044D01*
X165638Y-85326D01*
X165075Y-85608D01*
X164511Y-85890D01*
X164135Y-86078D01*
X163947Y-86172D01*
X163853Y-86266D01*
X163101Y-86830D01*
X162349Y-87488D01*
X160939Y-88897D01*
X160282Y-89555D01*
X159812Y-90119D01*
X159530Y-90495D01*
X159436Y-90589D01*
X158496Y-91905D01*
X157462Y-93314D01*
X156428Y-94818D01*
X155395Y-96228D01*
X154549Y-97543D01*
X153891Y-98577D01*
X153609Y-98953D01*
X153421Y-99235D01*
X153233Y-99423D01*
Y-99517D01*
X144681Y-113050D01*
X133967D01*
X145151Y-95382D01*
X146467Y-93502D01*
X147688Y-91811D01*
X148910Y-90401D01*
X149944Y-89085D01*
X150884Y-88145D01*
X151635Y-87394D01*
X152105Y-86924D01*
X152293Y-86736D01*
X153045Y-86172D01*
X153891Y-85514D01*
X155583Y-84480D01*
X156334Y-84104D01*
X156898Y-83728D01*
X157274Y-83540D01*
X157462Y-83446D01*
X155771Y-83164D01*
X154173Y-82882D01*
X152763Y-82413D01*
X151354Y-82037D01*
X150132Y-81567D01*
X149004Y-81003D01*
X147970Y-80533D01*
X147030Y-80063D01*
X146279Y-79499D01*
X145527Y-79029D01*
X144963Y-78653D01*
X144493Y-78277D01*
X144117Y-77996D01*
X143835Y-77714D01*
X143741Y-77620D01*
X143647Y-77526D01*
X142895Y-76586D01*
X142143Y-75646D01*
X141016Y-73672D01*
X140264Y-71699D01*
X139700Y-69819D01*
X139324Y-68222D01*
X139230Y-67564D01*
Y-66906D01*
X139136Y-66436D01*
Y-66060D01*
Y-65872D01*
Y-65778D01*
X139230Y-63805D01*
X139512Y-62019D01*
X139982Y-60327D01*
X140452Y-58918D01*
X141016Y-57696D01*
X141392Y-56756D01*
X141768Y-56192D01*
X141862Y-56098D01*
Y-56004D01*
X142989Y-54501D01*
X144117Y-53185D01*
X145339Y-52057D01*
X146467Y-51211D01*
X147500Y-50553D01*
X148346Y-50177D01*
X148910Y-49896D01*
X149004Y-49802D01*
X149098D01*
X149944Y-49520D01*
X150978Y-49238D01*
X153045Y-48768D01*
X155301Y-48486D01*
X157368Y-48204D01*
X159342Y-48110D01*
X160188D01*
X160939Y-48016D01*
X191107D01*
Y-113050D01*
D02*
G37*
G36*
X-373846Y-76252D02*
X-402698D01*
Y-87341D01*
X-402604Y-88375D01*
Y-89127D01*
X-402510Y-89785D01*
X-402416Y-90255D01*
Y-90631D01*
X-402322Y-90819D01*
Y-90913D01*
X-401852Y-92416D01*
X-401570Y-93074D01*
X-401288Y-93638D01*
X-401006Y-94202D01*
X-400818Y-94578D01*
X-400724Y-94766D01*
X-400630Y-94860D01*
X-400067Y-95612D01*
X-399409Y-96364D01*
X-397999Y-97773D01*
X-397341Y-98431D01*
X-396777Y-98901D01*
X-396401Y-99183D01*
X-396307Y-99277D01*
X-394992Y-100217D01*
X-393582Y-101250D01*
X-392078Y-102284D01*
X-390669Y-103318D01*
X-389353Y-104164D01*
X-388319Y-104822D01*
X-387943Y-105104D01*
X-387661Y-105292D01*
X-387473Y-105480D01*
X-387379D01*
X-373846Y-114032D01*
Y-124745D01*
X-391514Y-113562D01*
X-393394Y-112246D01*
X-395086Y-111024D01*
X-396495Y-109803D01*
X-397811Y-108769D01*
X-398751Y-107829D01*
X-399503Y-107077D01*
X-399973Y-106607D01*
X-400160Y-106419D01*
X-400724Y-105668D01*
X-401382Y-104822D01*
X-402416Y-103130D01*
X-402792Y-102378D01*
X-403168Y-101814D01*
X-403356Y-101438D01*
X-403450Y-101250D01*
X-403732Y-102942D01*
X-404014Y-104540D01*
X-404484Y-105949D01*
X-404859Y-107359D01*
X-405329Y-108581D01*
X-405893Y-109709D01*
X-406363Y-110742D01*
X-406833Y-111682D01*
X-407397Y-112434D01*
X-407867Y-113186D01*
X-408243Y-113750D01*
X-408619Y-114220D01*
X-408901Y-114596D01*
X-409183Y-114878D01*
X-409277Y-114972D01*
X-409371Y-115066D01*
X-410310Y-115817D01*
X-411250Y-116569D01*
X-413224Y-117697D01*
X-415197Y-118449D01*
X-417077Y-119013D01*
X-418675Y-119389D01*
X-419332Y-119483D01*
X-419990D01*
X-420460Y-119577D01*
X-420836D01*
X-421024D01*
X-421118D01*
X-423092Y-119483D01*
X-424877Y-119201D01*
X-426569Y-118731D01*
X-427979Y-118261D01*
X-429200Y-117697D01*
X-430140Y-117321D01*
X-430704Y-116945D01*
X-430798Y-116851D01*
X-430892D01*
X-432396Y-115723D01*
X-433711Y-114596D01*
X-434839Y-113374D01*
X-435685Y-112246D01*
X-436343Y-111212D01*
X-436719Y-110367D01*
X-437001Y-109803D01*
X-437095Y-109709D01*
Y-109615D01*
X-437377Y-108769D01*
X-437659Y-107735D01*
X-438128Y-105668D01*
X-438410Y-103412D01*
X-438692Y-101344D01*
X-438786Y-99371D01*
Y-98525D01*
X-438880Y-97773D01*
Y-67606D01*
X-373846D01*
Y-76252D01*
D02*
G37*
G36*
X-415667Y-137339D02*
X-416325Y-138749D01*
X-416983Y-140158D01*
X-417641Y-141474D01*
X-418205Y-142602D01*
X-418675Y-143541D01*
X-419050Y-144105D01*
X-419144Y-144199D01*
Y-144293D01*
X-420178Y-145985D01*
X-421212Y-147489D01*
X-422152Y-148804D01*
X-422998Y-149838D01*
X-423655Y-150778D01*
X-424219Y-151342D01*
X-424595Y-151812D01*
X-424689Y-151906D01*
X-373846D01*
Y-159894D01*
X-439162D01*
Y-154725D01*
X-437565Y-153785D01*
X-436061Y-152752D01*
X-434557Y-151530D01*
X-433241Y-150402D01*
X-432114Y-149274D01*
X-431174Y-148428D01*
X-430892Y-148053D01*
X-430610Y-147771D01*
X-430516Y-147677D01*
X-430422Y-147583D01*
X-428824Y-145609D01*
X-427321Y-143635D01*
X-426005Y-141756D01*
X-424971Y-139876D01*
X-424031Y-138279D01*
X-423655Y-137621D01*
X-423374Y-137057D01*
X-423092Y-136587D01*
X-422998Y-136211D01*
X-422810Y-136023D01*
Y-135929D01*
X-415103D01*
X-415667Y-137339D01*
D02*
G37*
G36*
X1704321Y-1262245D02*
X1702724Y-1263185D01*
X1701220Y-1264219D01*
X1699716Y-1265440D01*
X1698401Y-1266568D01*
X1697273Y-1267696D01*
X1696333Y-1268542D01*
X1696051Y-1268918D01*
X1695769Y-1269200D01*
X1695675Y-1269294D01*
X1695581Y-1269388D01*
X1693984Y-1271361D01*
X1692480Y-1273335D01*
X1691164Y-1275214D01*
X1690130Y-1277094D01*
X1689191Y-1278692D01*
X1688815Y-1279349D01*
X1688533Y-1279913D01*
X1688251Y-1280383D01*
X1688157Y-1280759D01*
X1687969Y-1280947D01*
Y-1281041D01*
X1680263D01*
X1680826Y-1279631D01*
X1681484Y-1278222D01*
X1682142Y-1276812D01*
X1682800Y-1275496D01*
X1683364Y-1274369D01*
X1683834Y-1273429D01*
X1684210Y-1272865D01*
X1684304Y-1272771D01*
Y-1272677D01*
X1685337Y-1270985D01*
X1686371Y-1269482D01*
X1687311Y-1268166D01*
X1688157Y-1267132D01*
X1688815Y-1266192D01*
X1689379Y-1265628D01*
X1689755Y-1265159D01*
X1689849Y-1265065D01*
X1639005D01*
Y-1257076D01*
X1704321D01*
Y-1262245D01*
D02*
G37*
G36*
Y-1312806D02*
X1702724Y-1313746D01*
X1701220Y-1314780D01*
X1699716Y-1316002D01*
X1698401Y-1317129D01*
X1697273Y-1318257D01*
X1696333Y-1319103D01*
X1696051Y-1319479D01*
X1695769Y-1319761D01*
X1695675Y-1319855D01*
X1695581Y-1319949D01*
X1693984Y-1321922D01*
X1692480Y-1323896D01*
X1691164Y-1325776D01*
X1690130Y-1327655D01*
X1689191Y-1329253D01*
X1688815Y-1329911D01*
X1688533Y-1330475D01*
X1688251Y-1330945D01*
X1688157Y-1331320D01*
X1687969Y-1331508D01*
Y-1331602D01*
X1680263D01*
X1680826Y-1330193D01*
X1681484Y-1328783D01*
X1682142Y-1327373D01*
X1682800Y-1326058D01*
X1683364Y-1324930D01*
X1683834Y-1323990D01*
X1684210Y-1323426D01*
X1684304Y-1323332D01*
Y-1323238D01*
X1685337Y-1321547D01*
X1686371Y-1320043D01*
X1687311Y-1318727D01*
X1688157Y-1317693D01*
X1688815Y-1316754D01*
X1689379Y-1316190D01*
X1689755Y-1315720D01*
X1689849Y-1315626D01*
X1639005D01*
Y-1307637D01*
X1704321D01*
Y-1312806D01*
D02*
G37*
G36*
X1656674Y-1353970D02*
X1658553Y-1355285D01*
X1660245Y-1356507D01*
X1661655Y-1357729D01*
X1662970Y-1358763D01*
X1663910Y-1359702D01*
X1664662Y-1360454D01*
X1665132Y-1360924D01*
X1665320Y-1361112D01*
X1665884Y-1361864D01*
X1666541Y-1362710D01*
X1667575Y-1364401D01*
X1667951Y-1365153D01*
X1668327Y-1365717D01*
X1668515Y-1366093D01*
X1668609Y-1366281D01*
X1668891Y-1364589D01*
X1669173Y-1362992D01*
X1669643Y-1361582D01*
X1670019Y-1360172D01*
X1670489Y-1358951D01*
X1671053Y-1357823D01*
X1671522Y-1356789D01*
X1671992Y-1355849D01*
X1672556Y-1355097D01*
X1673026Y-1354346D01*
X1673402Y-1353782D01*
X1673778Y-1353312D01*
X1674060Y-1352936D01*
X1674342Y-1352654D01*
X1674436Y-1352560D01*
X1674530Y-1352466D01*
X1675470Y-1351714D01*
X1676409Y-1350962D01*
X1678383Y-1349834D01*
X1680357Y-1349083D01*
X1682236Y-1348519D01*
X1683834Y-1348143D01*
X1684492Y-1348049D01*
X1685150D01*
X1685619Y-1347955D01*
X1685995D01*
X1686183D01*
X1686277D01*
X1688251Y-1348049D01*
X1690036Y-1348331D01*
X1691728Y-1348801D01*
X1693138Y-1349271D01*
X1694360Y-1349834D01*
X1695299Y-1350210D01*
X1695863Y-1350586D01*
X1695957Y-1350680D01*
X1696051D01*
X1697555Y-1351808D01*
X1698871Y-1352936D01*
X1699998Y-1354158D01*
X1700844Y-1355285D01*
X1701502Y-1356319D01*
X1701878Y-1357165D01*
X1702160Y-1357729D01*
X1702254Y-1357823D01*
Y-1357917D01*
X1702536Y-1358763D01*
X1702818Y-1359796D01*
X1703288Y-1361864D01*
X1703570Y-1364119D01*
X1703852Y-1366187D01*
X1703946Y-1368161D01*
Y-1369006D01*
X1704040Y-1369758D01*
Y-1399926D01*
X1639005D01*
Y-1391280D01*
X1667857D01*
Y-1380190D01*
X1667763Y-1379156D01*
Y-1378404D01*
X1667669Y-1377747D01*
X1667575Y-1377277D01*
Y-1376901D01*
X1667481Y-1376713D01*
Y-1376619D01*
X1667011Y-1375115D01*
X1666729Y-1374457D01*
X1666448Y-1373893D01*
X1666166Y-1373329D01*
X1665978Y-1372954D01*
X1665884Y-1372766D01*
X1665790Y-1372672D01*
X1665226Y-1371920D01*
X1664568Y-1371168D01*
X1663158Y-1369758D01*
X1662500Y-1369100D01*
X1661936Y-1368630D01*
X1661561Y-1368349D01*
X1661467Y-1368255D01*
X1660151Y-1367315D01*
X1658741Y-1366281D01*
X1657237Y-1365247D01*
X1655828Y-1364213D01*
X1654512Y-1363368D01*
X1653478Y-1362710D01*
X1653102Y-1362428D01*
X1652820Y-1362240D01*
X1652632Y-1362052D01*
X1652538D01*
X1639005Y-1353500D01*
Y-1342786D01*
X1656674Y-1353970D01*
D02*
G37*
G36*
X1048279Y1366474D02*
X1050816Y1366004D01*
X1052978Y1365252D01*
X1054857Y1364500D01*
X1055703Y1364030D01*
X1056361Y1363654D01*
X1057019Y1363278D01*
X1057489Y1362903D01*
X1057865Y1362621D01*
X1058147Y1362433D01*
X1058335Y1362339D01*
X1058429Y1362245D01*
X1060214Y1360459D01*
X1061624Y1358485D01*
X1062752Y1356418D01*
X1063692Y1354350D01*
X1064255Y1352565D01*
X1064537Y1351813D01*
X1064725Y1351155D01*
X1064819Y1350591D01*
X1064913Y1350215D01*
X1065007Y1349933D01*
Y1349839D01*
X1057019Y1348430D01*
X1056643Y1350497D01*
X1056079Y1352283D01*
X1055421Y1353786D01*
X1054763Y1355008D01*
X1054106Y1355948D01*
X1053542Y1356606D01*
X1053166Y1357076D01*
X1053072Y1357170D01*
X1051850Y1358110D01*
X1050534Y1358861D01*
X1049313Y1359331D01*
X1048091Y1359707D01*
X1046963Y1359895D01*
X1046117Y1360083D01*
X1045365D01*
X1043674Y1359989D01*
X1042170Y1359613D01*
X1040854Y1359143D01*
X1039727Y1358673D01*
X1038881Y1358110D01*
X1038223Y1357640D01*
X1037753Y1357264D01*
X1037659Y1357170D01*
X1036625Y1356042D01*
X1035873Y1354820D01*
X1035404Y1353599D01*
X1035028Y1352471D01*
X1034840Y1351437D01*
X1034652Y1350685D01*
Y1350121D01*
Y1350027D01*
Y1349933D01*
Y1348900D01*
X1034840Y1347960D01*
X1035310Y1346362D01*
X1035967Y1344952D01*
X1036719Y1343731D01*
X1037471Y1342885D01*
X1038129Y1342227D01*
X1038599Y1341851D01*
X1038693Y1341757D01*
X1038787D01*
X1040385Y1340911D01*
X1041888Y1340253D01*
X1043486Y1339783D01*
X1044896Y1339502D01*
X1046117Y1339314D01*
X1047151Y1339126D01*
X1048373D01*
X1048749Y1339220D01*
X1049219D01*
X1050158Y1332171D01*
X1048937Y1332453D01*
X1047809Y1332641D01*
X1046869Y1332829D01*
X1046023Y1332923D01*
X1045365Y1333017D01*
X1044520D01*
X1042546Y1332829D01*
X1040760Y1332453D01*
X1039163Y1331889D01*
X1037847Y1331231D01*
X1036813Y1330573D01*
X1036061Y1330010D01*
X1035592Y1329634D01*
X1035404Y1329446D01*
X1034182Y1328036D01*
X1033242Y1326532D01*
X1032584Y1325029D01*
X1032208Y1323525D01*
X1031926Y1322303D01*
X1031832Y1321269D01*
X1031738Y1320893D01*
Y1320612D01*
Y1320424D01*
Y1320330D01*
X1031926Y1318262D01*
X1032396Y1316382D01*
X1032960Y1314785D01*
X1033712Y1313375D01*
X1034464Y1312247D01*
X1035028Y1311401D01*
X1035498Y1310838D01*
X1035686Y1310650D01*
X1037189Y1309334D01*
X1038787Y1308394D01*
X1040385Y1307736D01*
X1041888Y1307266D01*
X1043204Y1306984D01*
X1044238Y1306890D01*
X1044614Y1306796D01*
X1045177D01*
X1046869Y1306890D01*
X1048467Y1307266D01*
X1049876Y1307736D01*
X1051004Y1308300D01*
X1051944Y1308770D01*
X1052696Y1309240D01*
X1053072Y1309616D01*
X1053260Y1309710D01*
X1054388Y1311026D01*
X1055327Y1312529D01*
X1056173Y1314127D01*
X1056831Y1315819D01*
X1057301Y1317228D01*
X1057489Y1317886D01*
X1057583Y1318450D01*
X1057677Y1318920D01*
X1057771Y1319296D01*
X1057865Y1319484D01*
Y1319578D01*
X1065853Y1318544D01*
X1065665Y1317040D01*
X1065383Y1315631D01*
X1064537Y1312999D01*
X1063504Y1310744D01*
X1062940Y1309804D01*
X1062376Y1308864D01*
X1061812Y1308018D01*
X1061248Y1307360D01*
X1060778Y1306702D01*
X1060308Y1306233D01*
X1060026Y1305857D01*
X1059744Y1305575D01*
X1059556Y1305387D01*
X1059462Y1305293D01*
X1058335Y1304447D01*
X1057207Y1303601D01*
X1056079Y1302943D01*
X1054857Y1302379D01*
X1052508Y1301440D01*
X1050252Y1300876D01*
X1049219Y1300688D01*
X1048279Y1300500D01*
X1047433Y1300406D01*
X1046681Y1300312D01*
X1046117Y1300218D01*
X1045271D01*
X1043486Y1300312D01*
X1041888Y1300500D01*
X1040291Y1300782D01*
X1038787Y1301158D01*
X1037377Y1301628D01*
X1036155Y1302097D01*
X1034934Y1302661D01*
X1033900Y1303225D01*
X1032866Y1303695D01*
X1032020Y1304259D01*
X1031268Y1304729D01*
X1030705Y1305199D01*
X1030235Y1305575D01*
X1029859Y1305857D01*
X1029671Y1306045D01*
X1029577Y1306139D01*
X1028449Y1307266D01*
X1027509Y1308488D01*
X1026663Y1309710D01*
X1025912Y1310932D01*
X1025348Y1312059D01*
X1024784Y1313281D01*
X1024032Y1315537D01*
X1023844Y1316570D01*
X1023656Y1317510D01*
X1023468Y1318356D01*
X1023374Y1319108D01*
X1023280Y1319672D01*
Y1320142D01*
Y1320424D01*
Y1320518D01*
X1023374Y1322773D01*
X1023750Y1324841D01*
X1024314Y1326626D01*
X1024878Y1328130D01*
X1025442Y1329352D01*
X1026006Y1330291D01*
X1026381Y1330855D01*
X1026475Y1331043D01*
X1027791Y1332453D01*
X1029201Y1333675D01*
X1030705Y1334615D01*
X1032208Y1335366D01*
X1033524Y1335930D01*
X1034558Y1336306D01*
X1034934Y1336400D01*
X1035216Y1336494D01*
X1035404Y1336588D01*
X1035498D01*
X1033900Y1337434D01*
X1032584Y1338280D01*
X1031456Y1339220D01*
X1030517Y1340065D01*
X1029765Y1340817D01*
X1029201Y1341475D01*
X1028919Y1341851D01*
X1028825Y1342039D01*
X1028073Y1343355D01*
X1027509Y1344670D01*
X1027039Y1345986D01*
X1026757Y1347208D01*
X1026569Y1348242D01*
X1026475Y1348993D01*
Y1349557D01*
Y1349745D01*
X1026569Y1351343D01*
X1026851Y1352941D01*
X1027227Y1354350D01*
X1027697Y1355572D01*
X1028167Y1356606D01*
X1028543Y1357452D01*
X1028825Y1357922D01*
X1028919Y1358110D01*
X1029859Y1359519D01*
X1030987Y1360741D01*
X1032114Y1361775D01*
X1033242Y1362715D01*
X1034182Y1363372D01*
X1035028Y1363936D01*
X1035592Y1364218D01*
X1035686Y1364312D01*
X1035779D01*
X1037471Y1365064D01*
X1039163Y1365628D01*
X1040854Y1366098D01*
X1042358Y1366380D01*
X1043580Y1366568D01*
X1044614Y1366662D01*
X1046963D01*
X1048279Y1366474D01*
D02*
G37*
G36*
X1128256Y1301346D02*
X1104855D01*
X1102693Y1301440D01*
X1100720Y1301534D01*
X1098934Y1301722D01*
X1097430Y1301910D01*
X1096115Y1302097D01*
X1095175Y1302191D01*
X1094893Y1302285D01*
X1094611Y1302379D01*
X1094423D01*
X1092731Y1302849D01*
X1091228Y1303413D01*
X1089912Y1303883D01*
X1088784Y1304447D01*
X1087844Y1304917D01*
X1087187Y1305293D01*
X1086811Y1305575D01*
X1086623Y1305669D01*
X1085401Y1306515D01*
X1084367Y1307548D01*
X1083333Y1308488D01*
X1082488Y1309428D01*
X1081736Y1310274D01*
X1081172Y1310932D01*
X1080796Y1311401D01*
X1080702Y1311589D01*
X1079762Y1313093D01*
X1078822Y1314691D01*
X1078070Y1316194D01*
X1077507Y1317698D01*
X1076943Y1319014D01*
X1076567Y1320048D01*
X1076473Y1320424D01*
X1076379Y1320706D01*
X1076285Y1320893D01*
Y1320987D01*
X1075721Y1323243D01*
X1075251Y1325498D01*
X1074969Y1327660D01*
X1074687Y1329728D01*
X1074593Y1331513D01*
Y1332265D01*
X1074499Y1332923D01*
Y1333393D01*
Y1333863D01*
Y1334051D01*
Y1334145D01*
X1074593Y1337340D01*
X1074875Y1340253D01*
X1075345Y1342885D01*
X1075533Y1344107D01*
X1075815Y1345140D01*
X1076097Y1346174D01*
X1076285Y1347020D01*
X1076473Y1347772D01*
X1076755Y1348430D01*
X1076849Y1348993D01*
X1077037Y1349369D01*
X1077131Y1349557D01*
Y1349651D01*
X1078164Y1352095D01*
X1079386Y1354256D01*
X1080702Y1356136D01*
X1081924Y1357734D01*
X1083051Y1359049D01*
X1083991Y1359989D01*
X1084367Y1360271D01*
X1084649Y1360553D01*
X1084743Y1360647D01*
X1084837Y1360741D01*
X1086341Y1361963D01*
X1087938Y1362903D01*
X1089536Y1363748D01*
X1091040Y1364406D01*
X1092355Y1364876D01*
X1093389Y1365158D01*
X1093765Y1365346D01*
X1094047D01*
X1094235Y1365440D01*
X1094329D01*
X1095927Y1365722D01*
X1097806Y1366004D01*
X1099686Y1366192D01*
X1101565Y1366286D01*
X1103257Y1366380D01*
X1128256D01*
Y1301346D01*
D02*
G37*
G36*
X832524Y952090D02*
X809123D01*
X806962Y952184D01*
X804988Y952278D01*
X803202Y952466D01*
X801699Y952654D01*
X800383Y952842D01*
X799443Y952936D01*
X799161Y953030D01*
X798879Y953124D01*
X798691D01*
X797000Y953594D01*
X795496Y954158D01*
X794180Y954628D01*
X793053Y955191D01*
X792113Y955661D01*
X791455Y956037D01*
X791079Y956319D01*
X790891Y956413D01*
X789669Y957259D01*
X788635Y958293D01*
X787602Y959233D01*
X786756Y960172D01*
X786004Y961018D01*
X785440Y961676D01*
X785064Y962146D01*
X784970Y962334D01*
X784030Y963838D01*
X783091Y965435D01*
X782339Y966939D01*
X781775Y968443D01*
X781211Y969758D01*
X780835Y970792D01*
X780741Y971168D01*
X780647Y971450D01*
X780553Y971638D01*
Y971732D01*
X779989Y973987D01*
X779519Y976243D01*
X779237Y978404D01*
X778956Y980472D01*
X778862Y982258D01*
Y983009D01*
X778768Y983667D01*
Y984137D01*
Y984607D01*
Y984795D01*
Y984889D01*
X778862Y988084D01*
X779143Y990998D01*
X779613Y993629D01*
X779801Y994851D01*
X780083Y995885D01*
X780365Y996919D01*
X780553Y997764D01*
X780741Y998516D01*
X781023Y999174D01*
X781117Y999738D01*
X781305Y1000114D01*
X781399Y1000302D01*
Y1000396D01*
X782433Y1002839D01*
X783655Y1005001D01*
X784970Y1006880D01*
X786192Y1008478D01*
X787320Y1009794D01*
X788260Y1010734D01*
X788635Y1011016D01*
X788917Y1011297D01*
X789011Y1011391D01*
X789105Y1011485D01*
X790609Y1012707D01*
X792207Y1013647D01*
X793804Y1014493D01*
X795308Y1015151D01*
X796624Y1015621D01*
X797658Y1015902D01*
X798033Y1016090D01*
X798315D01*
X798503Y1016184D01*
X798597D01*
X800195Y1016466D01*
X802075Y1016748D01*
X803954Y1016936D01*
X805834Y1017030D01*
X807525Y1017124D01*
X832524D01*
Y952090D01*
D02*
G37*
G36*
X772941Y975021D02*
Y967691D01*
X744653D01*
Y952090D01*
X736665D01*
Y967691D01*
X727830D01*
Y975021D01*
X736665D01*
Y1017124D01*
X743149D01*
X772941Y975021D01*
D02*
G37*
G36*
X563684Y-85858D02*
X565470Y-86046D01*
X567162Y-86234D01*
X568759Y-86610D01*
X570263Y-87080D01*
X571673Y-87550D01*
X572988Y-88020D01*
X574210Y-88584D01*
X575244Y-89053D01*
X576278Y-89523D01*
X577030Y-89993D01*
X577781Y-90463D01*
X578251Y-90839D01*
X578721Y-91027D01*
X578909Y-91215D01*
X579003Y-91309D01*
X580319Y-92437D01*
X581447Y-93564D01*
X582480Y-94880D01*
X583514Y-96196D01*
X585206Y-98827D01*
X586522Y-101459D01*
X587085Y-102681D01*
X587555Y-103808D01*
X587931Y-104842D01*
X588213Y-105688D01*
X588495Y-106440D01*
X588683Y-107004D01*
X588777Y-107380D01*
Y-107473D01*
X580131Y-109635D01*
X579755Y-108131D01*
X579285Y-106722D01*
X578815Y-105406D01*
X578345Y-104184D01*
X577781Y-103056D01*
X577218Y-102117D01*
X576560Y-101177D01*
X575996Y-100331D01*
X575526Y-99579D01*
X574962Y-99015D01*
X574492Y-98451D01*
X574116Y-97982D01*
X573740Y-97700D01*
X573458Y-97418D01*
X573364Y-97324D01*
X573270Y-97230D01*
X572331Y-96478D01*
X571297Y-95914D01*
X569229Y-94880D01*
X567256Y-94128D01*
X565282Y-93658D01*
X563590Y-93283D01*
X562933Y-93189D01*
X562275D01*
X561711Y-93095D01*
X561053D01*
X558891Y-93189D01*
X556824Y-93564D01*
X554944Y-94034D01*
X553253Y-94598D01*
X551937Y-95162D01*
X551373Y-95444D01*
X550903Y-95632D01*
X550527Y-95820D01*
X550245Y-96008D01*
X550057Y-96102D01*
X549963D01*
X548178Y-97418D01*
X546674Y-98827D01*
X545358Y-100425D01*
X544325Y-101929D01*
X543479Y-103244D01*
X542915Y-104372D01*
X542727Y-104842D01*
X542539Y-105124D01*
X542445Y-105312D01*
Y-105406D01*
X541693Y-107849D01*
X541129Y-110293D01*
X540659Y-112736D01*
X540377Y-114992D01*
X540283Y-116026D01*
X540189Y-116965D01*
Y-117811D01*
X540095Y-118469D01*
Y-119033D01*
Y-119503D01*
Y-119785D01*
Y-119879D01*
X540189Y-122322D01*
X540377Y-124578D01*
X540753Y-126645D01*
X541129Y-128525D01*
X541411Y-130123D01*
X541599Y-130781D01*
X541787Y-131344D01*
X541881Y-131814D01*
X541975Y-132096D01*
X542069Y-132284D01*
Y-132378D01*
X543009Y-134540D01*
X544043Y-136513D01*
X545170Y-138111D01*
X546392Y-139521D01*
X547426Y-140648D01*
X548272Y-141400D01*
X548930Y-141870D01*
X549024Y-142058D01*
X549118D01*
X551091Y-143280D01*
X553253Y-144220D01*
X555320Y-144878D01*
X557294Y-145253D01*
X559079Y-145535D01*
X559831Y-145629D01*
X560489D01*
X560959Y-145723D01*
X561711D01*
X564060Y-145629D01*
X566222Y-145253D01*
X568008Y-144690D01*
X569605Y-144126D01*
X570827Y-143468D01*
X571767Y-142998D01*
X572331Y-142622D01*
X572519Y-142434D01*
X574022Y-141024D01*
X575432Y-139427D01*
X576560Y-137735D01*
X577499Y-136043D01*
X578251Y-134540D01*
X578533Y-133788D01*
X578721Y-133224D01*
X578909Y-132754D01*
X579097Y-132378D01*
X579191Y-132190D01*
Y-132096D01*
X587649Y-134070D01*
X587085Y-135761D01*
X586522Y-137265D01*
X585770Y-138675D01*
X585112Y-140085D01*
X584360Y-141306D01*
X583514Y-142434D01*
X582762Y-143562D01*
X582011Y-144502D01*
X581259Y-145253D01*
X580601Y-146005D01*
X579943Y-146663D01*
X579473Y-147133D01*
X579003Y-147603D01*
X578627Y-147885D01*
X578439Y-147979D01*
X578345Y-148073D01*
X577030Y-148919D01*
X575714Y-149764D01*
X574398Y-150422D01*
X572988Y-150986D01*
X570169Y-151832D01*
X567632Y-152396D01*
X566410Y-152678D01*
X565376Y-152772D01*
X564342Y-152866D01*
X563496Y-152960D01*
X562839Y-153054D01*
X561899D01*
X558797Y-152866D01*
X555790Y-152396D01*
X553159Y-151832D01*
X551937Y-151456D01*
X550809Y-151080D01*
X549775Y-150704D01*
X548836Y-150328D01*
X548084Y-150046D01*
X547332Y-149764D01*
X546862Y-149483D01*
X546486Y-149295D01*
X546204Y-149201D01*
X546110Y-149107D01*
X543573Y-147509D01*
X541411Y-145629D01*
X539532Y-143750D01*
X537934Y-141870D01*
X536712Y-140179D01*
X536242Y-139427D01*
X535866Y-138769D01*
X535490Y-138299D01*
X535302Y-137923D01*
X535208Y-137641D01*
X535114Y-137547D01*
X533799Y-134634D01*
X532859Y-131626D01*
X532201Y-128619D01*
X531731Y-125894D01*
X531543Y-124672D01*
X531449Y-123450D01*
X531355Y-122510D01*
Y-121570D01*
X531261Y-120913D01*
Y-120349D01*
Y-119973D01*
Y-119879D01*
X531449Y-116496D01*
X531825Y-113206D01*
X532295Y-110293D01*
X532671Y-108883D01*
X532953Y-107661D01*
X533235Y-106534D01*
X533611Y-105500D01*
X533893Y-104560D01*
X534081Y-103808D01*
X534363Y-103244D01*
X534457Y-102774D01*
X534645Y-102493D01*
Y-102399D01*
X536054Y-99579D01*
X537652Y-97042D01*
X539344Y-94880D01*
X540189Y-94034D01*
X540941Y-93189D01*
X541693Y-92437D01*
X542445Y-91779D01*
X543103Y-91215D01*
X543667Y-90839D01*
X544043Y-90463D01*
X544419Y-90181D01*
X544606Y-90087D01*
X544700Y-89993D01*
X546016Y-89241D01*
X547332Y-88584D01*
X550151Y-87550D01*
X552971Y-86798D01*
X555696Y-86328D01*
X557012Y-86140D01*
X558140Y-85952D01*
X559173Y-85858D01*
X560019D01*
X560771Y-85764D01*
X561805D01*
X563684Y-85858D01*
D02*
G37*
G36*
X618945D02*
X620824Y-86140D01*
X622610Y-86516D01*
X624208Y-86986D01*
X625711Y-87644D01*
X627121Y-88302D01*
X628437Y-88959D01*
X629564Y-89711D01*
X630598Y-90463D01*
X631538Y-91121D01*
X632290Y-91873D01*
X632948Y-92437D01*
X633418Y-92907D01*
X633793Y-93283D01*
X633981Y-93564D01*
X634075Y-93658D01*
X635015Y-94880D01*
X635767Y-96196D01*
X636519Y-97418D01*
X637083Y-98733D01*
X638023Y-101271D01*
X638586Y-103714D01*
X638774Y-104748D01*
X638962Y-105782D01*
X639056Y-106628D01*
X639150Y-107380D01*
X639244Y-108037D01*
Y-108507D01*
Y-108789D01*
Y-108883D01*
X639150Y-110575D01*
X638962Y-112172D01*
X638680Y-113770D01*
X638305Y-115180D01*
X637835Y-116496D01*
X637365Y-117811D01*
X636801Y-118939D01*
X636331Y-119973D01*
X635767Y-120913D01*
X635203Y-121758D01*
X634733Y-122416D01*
X634263Y-123074D01*
X633887Y-123544D01*
X633606Y-123826D01*
X633418Y-124014D01*
X633324Y-124108D01*
X632196Y-125142D01*
X631068Y-126082D01*
X629846Y-126833D01*
X628625Y-127491D01*
X627403Y-128149D01*
X626181Y-128619D01*
X623926Y-129277D01*
X622892Y-129559D01*
X621952Y-129747D01*
X621106Y-129841D01*
X620354Y-129935D01*
X619790Y-130029D01*
X617723D01*
X616595Y-129841D01*
X614340Y-129371D01*
X612272Y-128713D01*
X610392Y-127961D01*
X608889Y-127209D01*
X608231Y-126833D01*
X607667Y-126551D01*
X607197Y-126269D01*
X606915Y-126082D01*
X606727Y-125988D01*
X606633Y-125894D01*
X610111Y-143468D01*
X636143D01*
Y-151080D01*
X603814D01*
X597517Y-117623D01*
X605036Y-116590D01*
X605693Y-117623D01*
X606539Y-118469D01*
X607291Y-119315D01*
X608043Y-119973D01*
X608795Y-120443D01*
X609359Y-120913D01*
X609735Y-121101D01*
X609829Y-121195D01*
X611050Y-121758D01*
X612272Y-122228D01*
X613400Y-122510D01*
X614528Y-122792D01*
X615467Y-122886D01*
X616219Y-122980D01*
X618005D01*
X619133Y-122792D01*
X621106Y-122322D01*
X622798Y-121664D01*
X624302Y-121007D01*
X625429Y-120255D01*
X626275Y-119597D01*
X626745Y-119127D01*
X626933Y-119033D01*
Y-118939D01*
X628249Y-117341D01*
X629188Y-115650D01*
X629846Y-113864D01*
X630316Y-112079D01*
X630598Y-110575D01*
X630692Y-109917D01*
Y-109353D01*
X630786Y-108883D01*
Y-108507D01*
Y-108319D01*
Y-108225D01*
Y-106910D01*
X630598Y-105688D01*
X630128Y-103338D01*
X629470Y-101365D01*
X628813Y-99767D01*
X628061Y-98451D01*
X627403Y-97418D01*
X627121Y-97136D01*
X626933Y-96854D01*
X626839Y-96760D01*
X626745Y-96666D01*
X625993Y-95914D01*
X625241Y-95256D01*
X623550Y-94128D01*
X621952Y-93376D01*
X620354Y-92907D01*
X619039Y-92531D01*
X617911Y-92437D01*
X617535Y-92343D01*
X616971D01*
X615185Y-92437D01*
X613588Y-92813D01*
X612178Y-93283D01*
X611050Y-93846D01*
X610017Y-94410D01*
X609265Y-94880D01*
X608889Y-95256D01*
X608701Y-95350D01*
X607573Y-96666D01*
X606633Y-98075D01*
X605881Y-99673D01*
X605318Y-101083D01*
X604942Y-102493D01*
X604660Y-103526D01*
X604566Y-103996D01*
X604472Y-104278D01*
Y-104466D01*
Y-104560D01*
X596108Y-103902D01*
X596295Y-102399D01*
X596577Y-100989D01*
X597423Y-98357D01*
X598457Y-96102D01*
X599021Y-95068D01*
X599585Y-94222D01*
X600055Y-93376D01*
X600619Y-92625D01*
X601088Y-92061D01*
X601558Y-91591D01*
X601934Y-91215D01*
X602122Y-90839D01*
X602310Y-90745D01*
X602404Y-90651D01*
X603532Y-89805D01*
X604660Y-89053D01*
X605881Y-88396D01*
X607103Y-87832D01*
X609453Y-86986D01*
X611802Y-86422D01*
X612836Y-86140D01*
X613870Y-86046D01*
X614716Y-85952D01*
X615467Y-85858D01*
X616125Y-85764D01*
X616971D01*
X618945Y-85858D01*
D02*
G37*
G36*
X2032802Y-614572D02*
X2036092Y-614948D01*
X2039005Y-615418D01*
X2040415Y-615794D01*
X2041637Y-616075D01*
X2042764Y-616357D01*
X2043798Y-616733D01*
X2044738Y-617015D01*
X2045490Y-617203D01*
X2046054Y-617485D01*
X2046523Y-617579D01*
X2046805Y-617767D01*
X2046899D01*
X2049719Y-619177D01*
X2052256Y-620774D01*
X2054418Y-622466D01*
X2055264Y-623312D01*
X2056109Y-624064D01*
X2056861Y-624816D01*
X2057519Y-625567D01*
X2058083Y-626225D01*
X2058459Y-626789D01*
X2058835Y-627165D01*
X2059117Y-627541D01*
X2059211Y-627729D01*
X2059305Y-627823D01*
X2060057Y-629139D01*
X2060714Y-630454D01*
X2061748Y-633274D01*
X2062500Y-636093D01*
X2062970Y-638819D01*
X2063158Y-640134D01*
X2063346Y-641262D01*
X2063440Y-642296D01*
Y-643142D01*
X2063534Y-643894D01*
Y-644927D01*
X2063440Y-646807D01*
X2063252Y-648593D01*
X2063064Y-650284D01*
X2062688Y-651882D01*
X2062218Y-653386D01*
X2061748Y-654795D01*
X2061278Y-656111D01*
X2060714Y-657333D01*
X2060245Y-658366D01*
X2059775Y-659400D01*
X2059305Y-660152D01*
X2058835Y-660904D01*
X2058459Y-661374D01*
X2058271Y-661844D01*
X2058083Y-662032D01*
X2057989Y-662126D01*
X2056861Y-663441D01*
X2055734Y-664569D01*
X2054418Y-665603D01*
X2053102Y-666637D01*
X2050471Y-668328D01*
X2047839Y-669644D01*
X2046617Y-670208D01*
X2045490Y-670678D01*
X2044456Y-671054D01*
X2043610Y-671336D01*
X2042858Y-671618D01*
X2042294Y-671806D01*
X2041918Y-671900D01*
X2041824D01*
X2039663Y-663253D01*
X2041167Y-662878D01*
X2042576Y-662408D01*
X2043892Y-661938D01*
X2045114Y-661468D01*
X2046242Y-660904D01*
X2047181Y-660340D01*
X2048121Y-659682D01*
X2048967Y-659118D01*
X2049719Y-658648D01*
X2050283Y-658085D01*
X2050847Y-657615D01*
X2051316Y-657239D01*
X2051598Y-656863D01*
X2051880Y-656581D01*
X2051974Y-656487D01*
X2052068Y-656393D01*
X2052820Y-655453D01*
X2053384Y-654419D01*
X2054418Y-652352D01*
X2055170Y-650378D01*
X2055640Y-648405D01*
X2056015Y-646713D01*
X2056109Y-646055D01*
Y-645397D01*
X2056203Y-644833D01*
Y-644175D01*
X2056109Y-642014D01*
X2055734Y-639946D01*
X2055264Y-638067D01*
X2054700Y-636375D01*
X2054136Y-635059D01*
X2053854Y-634496D01*
X2053666Y-634026D01*
X2053478Y-633650D01*
X2053290Y-633368D01*
X2053196Y-633180D01*
Y-633086D01*
X2051880Y-631300D01*
X2050471Y-629797D01*
X2048873Y-628481D01*
X2047369Y-627447D01*
X2046054Y-626601D01*
X2044926Y-626037D01*
X2044456Y-625849D01*
X2044174Y-625661D01*
X2043986Y-625567D01*
X2043892D01*
X2041449Y-624816D01*
X2039005Y-624252D01*
X2036562Y-623782D01*
X2034306Y-623500D01*
X2033272Y-623406D01*
X2032332Y-623312D01*
X2031487D01*
X2030829Y-623218D01*
X2030265D01*
X2029795D01*
X2029513D01*
X2029419D01*
X2026976Y-623312D01*
X2024720Y-623500D01*
X2022653Y-623876D01*
X2020773Y-624252D01*
X2019175Y-624534D01*
X2018517Y-624722D01*
X2017954Y-624910D01*
X2017484Y-625004D01*
X2017202Y-625098D01*
X2017014Y-625192D01*
X2016920D01*
X2014758Y-626131D01*
X2012785Y-627165D01*
X2011187Y-628293D01*
X2009777Y-629515D01*
X2008650Y-630548D01*
X2007898Y-631394D01*
X2007428Y-632052D01*
X2007240Y-632146D01*
Y-632240D01*
X2006018Y-634214D01*
X2005078Y-636375D01*
X2004420Y-638443D01*
X2004045Y-640416D01*
X2003763Y-642202D01*
X2003669Y-642954D01*
Y-643612D01*
X2003575Y-644082D01*
Y-644833D01*
X2003669Y-647183D01*
X2004045Y-649344D01*
X2004608Y-651130D01*
X2005172Y-652728D01*
X2005830Y-653949D01*
X2006300Y-654889D01*
X2006676Y-655453D01*
X2006864Y-655641D01*
X2008274Y-657145D01*
X2009871Y-658554D01*
X2011563Y-659682D01*
X2013255Y-660622D01*
X2014758Y-661374D01*
X2015510Y-661656D01*
X2016074Y-661844D01*
X2016544Y-662032D01*
X2016920Y-662220D01*
X2017108Y-662314D01*
X2017202D01*
X2015228Y-670772D01*
X2013536Y-670208D01*
X2012033Y-669644D01*
X2010623Y-668892D01*
X2009213Y-668234D01*
X2007992Y-667483D01*
X2006864Y-666637D01*
X2005736Y-665885D01*
X2004796Y-665133D01*
X2004045Y-664381D01*
X2003293Y-663723D01*
X2002635Y-663065D01*
X2002165Y-662596D01*
X2001695Y-662126D01*
X2001413Y-661750D01*
X2001319Y-661562D01*
X2001225Y-661468D01*
X2000379Y-660152D01*
X1999533Y-658836D01*
X1998876Y-657521D01*
X1998312Y-656111D01*
X1997466Y-653292D01*
X1996902Y-650754D01*
X1996620Y-649532D01*
X1996526Y-648499D01*
X1996432Y-647465D01*
X1996338Y-646619D01*
X1996244Y-645961D01*
Y-645021D01*
X1996432Y-641920D01*
X1996902Y-638913D01*
X1997466Y-636281D01*
X1997842Y-635059D01*
X1998218Y-633932D01*
X1998594Y-632898D01*
X1998970Y-631958D01*
X1999252Y-631206D01*
X1999533Y-630454D01*
X1999815Y-629985D01*
X2000003Y-629609D01*
X2000097Y-629327D01*
X2000191Y-629233D01*
X2001789Y-626695D01*
X2003669Y-624534D01*
X2005548Y-622654D01*
X2007428Y-621056D01*
X2009119Y-619835D01*
X2009871Y-619365D01*
X2010529Y-618989D01*
X2010999Y-618613D01*
X2011375Y-618425D01*
X2011657Y-618331D01*
X2011751Y-618237D01*
X2014664Y-616921D01*
X2017672Y-615981D01*
X2020679Y-615324D01*
X2023404Y-614854D01*
X2024626Y-614666D01*
X2025848Y-614572D01*
X2026788Y-614478D01*
X2027727D01*
X2028385Y-614384D01*
X2028949D01*
X2029325D01*
X2029419D01*
X2032802Y-614572D01*
D02*
G37*
G36*
X2020585Y-686748D02*
X2019927Y-688158D01*
X2019269Y-689568D01*
X2018611Y-690884D01*
X2018048Y-692011D01*
X2017578Y-692951D01*
X2017202Y-693515D01*
X2017108Y-693609D01*
Y-693703D01*
X2016074Y-695395D01*
X2015040Y-696898D01*
X2014100Y-698214D01*
X2013255Y-699248D01*
X2012597Y-700188D01*
X2012033Y-700751D01*
X2011657Y-701221D01*
X2011563Y-701315D01*
X2062406D01*
Y-709304D01*
X1997090D01*
Y-704135D01*
X1998688Y-703195D01*
X2000191Y-702161D01*
X2001695Y-700939D01*
X2003011Y-699812D01*
X2004138Y-698684D01*
X2005078Y-697838D01*
X2005360Y-697462D01*
X2005642Y-697180D01*
X2005736Y-697086D01*
X2005830Y-696992D01*
X2007428Y-695019D01*
X2008931Y-693045D01*
X2010247Y-691165D01*
X2011281Y-689286D01*
X2012221Y-687688D01*
X2012597Y-687030D01*
X2012879Y-686466D01*
X2013161Y-685997D01*
X2013255Y-685621D01*
X2013443Y-685433D01*
Y-685339D01*
X2021149D01*
X2020585Y-686748D01*
D02*
G37*
G36*
Y-737310D02*
X2019927Y-738719D01*
X2019269Y-740129D01*
X2018611Y-741445D01*
X2018048Y-742573D01*
X2017578Y-743512D01*
X2017202Y-744076D01*
X2017108Y-744170D01*
Y-744264D01*
X2016074Y-745956D01*
X2015040Y-747460D01*
X2014100Y-748775D01*
X2013255Y-749809D01*
X2012597Y-750749D01*
X2012033Y-751313D01*
X2011657Y-751783D01*
X2011563Y-751877D01*
X2062406D01*
Y-759865D01*
X1997090D01*
Y-754696D01*
X1998688Y-753756D01*
X2000191Y-752722D01*
X2001695Y-751501D01*
X2003011Y-750373D01*
X2004138Y-749245D01*
X2005078Y-748399D01*
X2005360Y-748023D01*
X2005642Y-747741D01*
X2005736Y-747647D01*
X2005830Y-747553D01*
X2007428Y-745580D01*
X2008931Y-743606D01*
X2010247Y-741727D01*
X2011281Y-739847D01*
X2012221Y-738249D01*
X2012597Y-737592D01*
X2012879Y-737028D01*
X2013161Y-736558D01*
X2013255Y-736182D01*
X2013443Y-735994D01*
Y-735900D01*
X2021149D01*
X2020585Y-737310D01*
D02*
G37*
G36*
X1619452Y811415D02*
X1621331Y811227D01*
X1623117Y811039D01*
X1624715Y810851D01*
X1626218Y810663D01*
X1627628Y810381D01*
X1628850Y810099D01*
X1629883Y809818D01*
X1630823Y809630D01*
X1631669Y809348D01*
X1632327Y809160D01*
X1632797Y808972D01*
X1633173Y808784D01*
X1633361Y808690D01*
X1633455D01*
X1635710Y807562D01*
X1637684Y806340D01*
X1639375Y804931D01*
X1640785Y803709D01*
X1641819Y802487D01*
X1642571Y801547D01*
X1642853Y801171D01*
X1643041Y800889D01*
X1643229Y800795D01*
Y800701D01*
X1644356Y798728D01*
X1645202Y796754D01*
X1645860Y794781D01*
X1646236Y792995D01*
X1646518Y791397D01*
X1646612Y790740D01*
Y790270D01*
X1646706Y789800D01*
Y789142D01*
X1646612Y787544D01*
X1646424Y786041D01*
X1646142Y784537D01*
X1645766Y783221D01*
X1644732Y780684D01*
X1644262Y779556D01*
X1643699Y778616D01*
X1643041Y777676D01*
X1642571Y776925D01*
X1642007Y776173D01*
X1641537Y775609D01*
X1641161Y775139D01*
X1640879Y774857D01*
X1640691Y774669D01*
X1640597Y774575D01*
X1639469Y773541D01*
X1638154Y772695D01*
X1636932Y771850D01*
X1635616Y771192D01*
X1634207Y770628D01*
X1632891Y770158D01*
X1630447Y769500D01*
X1629226Y769218D01*
X1628192Y769030D01*
X1627158Y768936D01*
X1626312Y768842D01*
X1625654Y768748D01*
X1625184D01*
X1624809D01*
X1624715D01*
X1622929Y768842D01*
X1621331Y769030D01*
X1619734Y769218D01*
X1618230Y769594D01*
X1616914Y770064D01*
X1615598Y770534D01*
X1614471Y771004D01*
X1613437Y771568D01*
X1612497Y772038D01*
X1611651Y772507D01*
X1610993Y772977D01*
X1610336Y773447D01*
X1609866Y773823D01*
X1609584Y774011D01*
X1609396Y774199D01*
X1609302Y774293D01*
X1608268Y775327D01*
X1607422Y776455D01*
X1606576Y777582D01*
X1605919Y778804D01*
X1605355Y779932D01*
X1604885Y781060D01*
X1604227Y783221D01*
X1603945Y784161D01*
X1603757Y785101D01*
X1603663Y785853D01*
X1603569Y786604D01*
X1603475Y787168D01*
Y787920D01*
X1603569Y789706D01*
X1603851Y791397D01*
X1604227Y792901D01*
X1604697Y794311D01*
X1605073Y795345D01*
X1605449Y796190D01*
X1605731Y796754D01*
X1605825Y796942D01*
X1606764Y798446D01*
X1607798Y799762D01*
X1608832Y800889D01*
X1609772Y801829D01*
X1610712Y802487D01*
X1611369Y803051D01*
X1611839Y803427D01*
X1612027Y803521D01*
X1611275D01*
X1610806D01*
X1610524D01*
X1610430D01*
X1608550Y803427D01*
X1606764Y803333D01*
X1605167Y803145D01*
X1603663Y802957D01*
X1602441Y802675D01*
X1601501Y802487D01*
X1601126Y802393D01*
X1600844D01*
X1600750Y802299D01*
X1600656D01*
X1598964Y801829D01*
X1597460Y801359D01*
X1596145Y800889D01*
X1595017Y800420D01*
X1594171Y800044D01*
X1593513Y799668D01*
X1593043Y799480D01*
X1592949Y799386D01*
X1591916Y798634D01*
X1591070Y797882D01*
X1590318Y797130D01*
X1589660Y796378D01*
X1589096Y795815D01*
X1588720Y795251D01*
X1588532Y794875D01*
X1588438Y794781D01*
X1587874Y793747D01*
X1587498Y792619D01*
X1587217Y791585D01*
X1587029Y790552D01*
X1586935Y789706D01*
X1586841Y789048D01*
Y788390D01*
X1586935Y786886D01*
X1587217Y785477D01*
X1587592Y784255D01*
X1588062Y783221D01*
X1588438Y782469D01*
X1588814Y781811D01*
X1589096Y781436D01*
X1589190Y781342D01*
X1590224Y780402D01*
X1591446Y779650D01*
X1592761Y778992D01*
X1594077Y778522D01*
X1595205Y778146D01*
X1596239Y777864D01*
X1596615Y777770D01*
X1596802D01*
X1596990Y777676D01*
X1597084D01*
X1596427Y769970D01*
X1593701Y770534D01*
X1591352Y771286D01*
X1589284Y772226D01*
X1587592Y773165D01*
X1586277Y774105D01*
X1585713Y774575D01*
X1585243Y774951D01*
X1584961Y775233D01*
X1584679Y775515D01*
X1584585Y775609D01*
X1584491Y775703D01*
X1583739Y776643D01*
X1583081Y777676D01*
X1582048Y779744D01*
X1581296Y781811D01*
X1580826Y783785D01*
X1580450Y785571D01*
X1580356Y786323D01*
Y786980D01*
X1580262Y787450D01*
Y788202D01*
X1580450Y790834D01*
X1580826Y793183D01*
X1581484Y795345D01*
X1582236Y797130D01*
X1582518Y797882D01*
X1582893Y798634D01*
X1583269Y799198D01*
X1583551Y799762D01*
X1583739Y800138D01*
X1583927Y800420D01*
X1584115Y800607D01*
Y800701D01*
X1585713Y802581D01*
X1587498Y804273D01*
X1589378Y805588D01*
X1591164Y806716D01*
X1592761Y807656D01*
X1593513Y808032D01*
X1594077Y808314D01*
X1594641Y808502D01*
X1595017Y808690D01*
X1595205Y808784D01*
X1595299D01*
X1596709Y809254D01*
X1598306Y809724D01*
X1601501Y810381D01*
X1604885Y810851D01*
X1608080Y811133D01*
X1609490Y811321D01*
X1610899Y811415D01*
X1612121D01*
X1613155Y811509D01*
X1614001D01*
X1614659D01*
X1615129D01*
X1615223D01*
X1617384D01*
X1619452Y811415D01*
D02*
G37*
G36*
X1604133Y752772D02*
X1602629Y752396D01*
X1601220Y751926D01*
X1599904Y751456D01*
X1598682Y750986D01*
X1597554Y750422D01*
X1596615Y749858D01*
X1595675Y749200D01*
X1594829Y748637D01*
X1594077Y748167D01*
X1593513Y747603D01*
X1592949Y747133D01*
X1592479Y746757D01*
X1592197Y746381D01*
X1591916Y746099D01*
X1591822Y746005D01*
X1591728Y745911D01*
X1590976Y744971D01*
X1590412Y743938D01*
X1589378Y741870D01*
X1588626Y739896D01*
X1588156Y737923D01*
X1587780Y736231D01*
X1587686Y735573D01*
Y734915D01*
X1587592Y734352D01*
Y733694D01*
X1587686Y731532D01*
X1588062Y729465D01*
X1588532Y727585D01*
X1589096Y725893D01*
X1589660Y724578D01*
X1589942Y724014D01*
X1590130Y723544D01*
X1590318Y723168D01*
X1590506Y722886D01*
X1590600Y722698D01*
Y722604D01*
X1591916Y720818D01*
X1593325Y719315D01*
X1594923Y717999D01*
X1596427Y716965D01*
X1597742Y716119D01*
X1598870Y715556D01*
X1599340Y715368D01*
X1599622Y715180D01*
X1599810Y715086D01*
X1599904D01*
X1602347Y714334D01*
X1604791Y713770D01*
X1607234Y713300D01*
X1609490Y713018D01*
X1610524Y712924D01*
X1611463Y712830D01*
X1612309D01*
X1612967Y712736D01*
X1613531D01*
X1614001D01*
X1614283D01*
X1614377D01*
X1616820Y712830D01*
X1619076Y713018D01*
X1621143Y713394D01*
X1623023Y713770D01*
X1624621Y714052D01*
X1625278Y714240D01*
X1625842Y714428D01*
X1626312Y714522D01*
X1626594Y714616D01*
X1626782Y714710D01*
X1626876D01*
X1629038Y715650D01*
X1631011Y716683D01*
X1632609Y717811D01*
X1634019Y719033D01*
X1635146Y720067D01*
X1635898Y720912D01*
X1636368Y721570D01*
X1636556Y721664D01*
Y721758D01*
X1637778Y723732D01*
X1638718Y725893D01*
X1639375Y727961D01*
X1639751Y729935D01*
X1640033Y731720D01*
X1640127Y732472D01*
Y733130D01*
X1640221Y733600D01*
Y734352D01*
X1640127Y736701D01*
X1639751Y738863D01*
X1639187Y740648D01*
X1638624Y742246D01*
X1637966Y743468D01*
X1637496Y744407D01*
X1637120Y744971D01*
X1636932Y745159D01*
X1635522Y746663D01*
X1633925Y748073D01*
X1632233Y749200D01*
X1630541Y750140D01*
X1629038Y750892D01*
X1628286Y751174D01*
X1627722Y751362D01*
X1627252Y751550D01*
X1626876Y751738D01*
X1626688Y751832D01*
X1626594D01*
X1628568Y760290D01*
X1630259Y759726D01*
X1631763Y759162D01*
X1633173Y758410D01*
X1634582Y757753D01*
X1635804Y757001D01*
X1636932Y756155D01*
X1638060Y755403D01*
X1639000Y754651D01*
X1639751Y753899D01*
X1640503Y753242D01*
X1641161Y752584D01*
X1641631Y752114D01*
X1642101Y751644D01*
X1642383Y751268D01*
X1642477Y751080D01*
X1642571Y750986D01*
X1643417Y749670D01*
X1644262Y748355D01*
X1644920Y747039D01*
X1645484Y745629D01*
X1646330Y742810D01*
X1646894Y740272D01*
X1647176Y739051D01*
X1647270Y738017D01*
X1647364Y736983D01*
X1647458Y736137D01*
X1647552Y735479D01*
Y734540D01*
X1647364Y731438D01*
X1646894Y728431D01*
X1646330Y725799D01*
X1645954Y724578D01*
X1645578Y723450D01*
X1645202Y722416D01*
X1644826Y721476D01*
X1644544Y720724D01*
X1644262Y719973D01*
X1643980Y719503D01*
X1643792Y719127D01*
X1643699Y718845D01*
X1643605Y718751D01*
X1642007Y716213D01*
X1640127Y714052D01*
X1638248Y712172D01*
X1636368Y710575D01*
X1634676Y709353D01*
X1633925Y708883D01*
X1633267Y708507D01*
X1632797Y708131D01*
X1632421Y707943D01*
X1632139Y707849D01*
X1632045Y707755D01*
X1629132Y706440D01*
X1626124Y705500D01*
X1623117Y704842D01*
X1620391Y704372D01*
X1619170Y704184D01*
X1617948Y704090D01*
X1617008Y703996D01*
X1616068D01*
X1615411Y703902D01*
X1614847D01*
X1614471D01*
X1614377D01*
X1610993Y704090D01*
X1607704Y704466D01*
X1604791Y704936D01*
X1603381Y705312D01*
X1602159Y705594D01*
X1601032Y705876D01*
X1599998Y706252D01*
X1599058Y706534D01*
X1598306Y706721D01*
X1597742Y707003D01*
X1597272Y707097D01*
X1596990Y707285D01*
X1596896D01*
X1594077Y708695D01*
X1591540Y710293D01*
X1589378Y711984D01*
X1588532Y712830D01*
X1587686Y713582D01*
X1586935Y714334D01*
X1586277Y715086D01*
X1585713Y715744D01*
X1585337Y716307D01*
X1584961Y716683D01*
X1584679Y717059D01*
X1584585Y717247D01*
X1584491Y717341D01*
X1583739Y718657D01*
X1583081Y719973D01*
X1582048Y722792D01*
X1581296Y725611D01*
X1580826Y728337D01*
X1580638Y729653D01*
X1580450Y730780D01*
X1580356Y731814D01*
Y732660D01*
X1580262Y733412D01*
Y734446D01*
X1580356Y736325D01*
X1580544Y738111D01*
X1580732Y739802D01*
X1581108Y741400D01*
X1581578Y742904D01*
X1582048Y744313D01*
X1582518Y745629D01*
X1583081Y746851D01*
X1583551Y747885D01*
X1584021Y748918D01*
X1584491Y749670D01*
X1584961Y750422D01*
X1585337Y750892D01*
X1585525Y751362D01*
X1585713Y751550D01*
X1585807Y751644D01*
X1586935Y752960D01*
X1588062Y754087D01*
X1589378Y755121D01*
X1590694Y756155D01*
X1593325Y757847D01*
X1595957Y759162D01*
X1597178Y759726D01*
X1598306Y760196D01*
X1599340Y760572D01*
X1600186Y760854D01*
X1600938Y761136D01*
X1601501Y761324D01*
X1601877Y761418D01*
X1601971D01*
X1604133Y752772D01*
D02*
G37*
G36*
X1985884Y-121194D02*
X1987387D01*
X1988891Y-121288D01*
X1990207Y-121476D01*
X1991522Y-121569D01*
X1992650Y-121663D01*
X1993684Y-121851D01*
X1994624Y-121945D01*
X1995469Y-122133D01*
X1996127Y-122227D01*
X1996691Y-122321D01*
X1997161Y-122415D01*
X1997443Y-122509D01*
X1997631Y-122603D01*
X1997725D01*
X1999793Y-123167D01*
X2001672Y-123825D01*
X2003270Y-124577D01*
X2004680Y-125141D01*
X2005901Y-125799D01*
X2006747Y-126174D01*
X2007217Y-126550D01*
X2007405Y-126644D01*
X2008815Y-127678D01*
X2010036Y-128712D01*
X2011070Y-129840D01*
X2012010Y-130873D01*
X2012668Y-131813D01*
X2013138Y-132565D01*
X2013420Y-133035D01*
X2013514Y-133129D01*
Y-133223D01*
X2014265Y-134727D01*
X2014735Y-136324D01*
X2015111Y-137828D01*
X2015393Y-139238D01*
X2015581Y-140459D01*
X2015675Y-141493D01*
Y-142339D01*
X2015487Y-144877D01*
X2015111Y-147226D01*
X2014453Y-149200D01*
X2013796Y-150891D01*
X2013044Y-152301D01*
X2012762Y-152865D01*
X2012386Y-153335D01*
X2012198Y-153711D01*
X2012010Y-153993D01*
X2011822Y-154087D01*
Y-154181D01*
X2010318Y-155872D01*
X2008533Y-157282D01*
X2006747Y-158504D01*
X2005055Y-159443D01*
X2003458Y-160195D01*
X2002800Y-160571D01*
X2002142Y-160759D01*
X2001672Y-160947D01*
X2001296Y-161135D01*
X2001108Y-161229D01*
X2001014D01*
X1999605Y-161605D01*
X1998195Y-161981D01*
X1995094Y-162545D01*
X1991992Y-163015D01*
X1989079Y-163297D01*
X1987669Y-163391D01*
X1986447Y-163485D01*
X1985320D01*
X1984286Y-163579D01*
X1983534D01*
X1982876D01*
X1982500D01*
X1982406D01*
X1979117Y-163485D01*
X1976016Y-163297D01*
X1973196Y-163015D01*
X1970565Y-162545D01*
X1968121Y-162075D01*
X1965960Y-161511D01*
X1963986Y-160947D01*
X1962295Y-160383D01*
X1960791Y-159819D01*
X1959475Y-159161D01*
X1958347Y-158692D01*
X1957502Y-158222D01*
X1956750Y-157752D01*
X1956280Y-157470D01*
X1955998Y-157282D01*
X1955904Y-157188D01*
X1954776Y-156154D01*
X1953742Y-155026D01*
X1952803Y-153805D01*
X1952051Y-152583D01*
X1951393Y-151361D01*
X1950829Y-150139D01*
X1950453Y-148918D01*
X1950077Y-147790D01*
X1949795Y-146662D01*
X1949607Y-145628D01*
X1949419Y-144689D01*
X1949325Y-143937D01*
X1949231Y-143279D01*
Y-142339D01*
X1949419Y-139802D01*
X1949795Y-137452D01*
X1950453Y-135479D01*
X1951111Y-133787D01*
X1951769Y-132377D01*
X1952145Y-131907D01*
X1952427Y-131437D01*
X1952615Y-131061D01*
X1952803Y-130780D01*
X1952991Y-130686D01*
Y-130592D01*
X1954588Y-128900D01*
X1956280Y-127490D01*
X1958159Y-126268D01*
X1959851Y-125329D01*
X1961449Y-124577D01*
X1962107Y-124201D01*
X1962764Y-124013D01*
X1963234Y-123825D01*
X1963610Y-123637D01*
X1963798Y-123543D01*
X1963892D01*
X1965302Y-123073D01*
X1966712Y-122697D01*
X1969719Y-122133D01*
X1972820Y-121663D01*
X1975828Y-121382D01*
X1977143Y-121288D01*
X1978365Y-121194D01*
X1979493D01*
X1980527Y-121100D01*
X1981278D01*
X1981936D01*
X1982312D01*
X1982406D01*
X1984192D01*
X1985884Y-121194D01*
D02*
G37*
G36*
X2015675Y-189235D02*
X2014078Y-190175D01*
X2012574Y-191209D01*
X2011070Y-192430D01*
X2009754Y-193558D01*
X2008627Y-194686D01*
X2007687Y-195532D01*
X2007405Y-195908D01*
X2007123Y-196190D01*
X2007029Y-196284D01*
X2006935Y-196378D01*
X2005337Y-198351D01*
X2003834Y-200325D01*
X2002518Y-202204D01*
X2001484Y-204084D01*
X2000544Y-205682D01*
X2000168Y-206339D01*
X1999887Y-206903D01*
X1999605Y-207373D01*
X1999511Y-207749D01*
X1999323Y-207937D01*
Y-208031D01*
X1991616D01*
X1992180Y-206621D01*
X1992838Y-205212D01*
X1993496Y-203802D01*
X1994154Y-202486D01*
X1994718Y-201358D01*
X1995188Y-200419D01*
X1995563Y-199855D01*
X1995657Y-199761D01*
Y-199667D01*
X1996691Y-197975D01*
X1997725Y-196472D01*
X1998665Y-195156D01*
X1999511Y-194122D01*
X2000168Y-193182D01*
X2000732Y-192618D01*
X2001108Y-192148D01*
X2001202Y-192054D01*
X1950359D01*
Y-184066D01*
X2015675D01*
Y-189235D01*
D02*
G37*
G36*
X1973102Y-230116D02*
X1971599Y-230492D01*
X1970189Y-230962D01*
X1968873Y-231432D01*
X1967651Y-231902D01*
X1966524Y-232466D01*
X1965584Y-233030D01*
X1964644Y-233688D01*
X1963798Y-234251D01*
X1963046Y-234721D01*
X1962482Y-235285D01*
X1961919Y-235755D01*
X1961449Y-236131D01*
X1961167Y-236507D01*
X1960885Y-236789D01*
X1960791Y-236883D01*
X1960697Y-236977D01*
X1959945Y-237917D01*
X1959381Y-238950D01*
X1958347Y-241018D01*
X1957596Y-242992D01*
X1957126Y-244965D01*
X1956750Y-246657D01*
X1956656Y-247315D01*
Y-247973D01*
X1956562Y-248536D01*
Y-249194D01*
X1956656Y-251356D01*
X1957032Y-253423D01*
X1957502Y-255303D01*
X1958065Y-256995D01*
X1958629Y-258310D01*
X1958911Y-258874D01*
X1959099Y-259344D01*
X1959287Y-259720D01*
X1959475Y-260002D01*
X1959569Y-260190D01*
Y-260284D01*
X1960885Y-262070D01*
X1962295Y-263573D01*
X1963892Y-264889D01*
X1965396Y-265923D01*
X1966712Y-266769D01*
X1967839Y-267332D01*
X1968309Y-267520D01*
X1968591Y-267708D01*
X1968779Y-267802D01*
X1968873D01*
X1971317Y-268554D01*
X1973760Y-269118D01*
X1976204Y-269588D01*
X1978459Y-269870D01*
X1979493Y-269964D01*
X1980433Y-270058D01*
X1981278D01*
X1981936Y-270152D01*
X1982500D01*
X1982970D01*
X1983252D01*
X1983346D01*
X1985790Y-270058D01*
X1988045Y-269870D01*
X1990113Y-269494D01*
X1991992Y-269118D01*
X1993590Y-268836D01*
X1994248Y-268648D01*
X1994812Y-268460D01*
X1995282Y-268366D01*
X1995563Y-268272D01*
X1995751Y-268178D01*
X1995845D01*
X1998007Y-267238D01*
X1999981Y-266205D01*
X2001578Y-265077D01*
X2002988Y-263855D01*
X2004116Y-262821D01*
X2004867Y-261976D01*
X2005337Y-261318D01*
X2005525Y-261224D01*
Y-261130D01*
X2006747Y-259156D01*
X2007687Y-256995D01*
X2008345Y-254927D01*
X2008721Y-252954D01*
X2009003Y-251168D01*
X2009097Y-250416D01*
Y-249758D01*
X2009191Y-249288D01*
Y-248536D01*
X2009097Y-246187D01*
X2008721Y-244025D01*
X2008157Y-242240D01*
X2007593Y-240642D01*
X2006935Y-239420D01*
X2006465Y-238481D01*
X2006089Y-237917D01*
X2005901Y-237729D01*
X2004492Y-236225D01*
X2002894Y-234815D01*
X2001202Y-233688D01*
X1999511Y-232748D01*
X1998007Y-231996D01*
X1997255Y-231714D01*
X1996691Y-231526D01*
X1996221Y-231338D01*
X1995845Y-231150D01*
X1995657Y-231056D01*
X1995563D01*
X1997537Y-222598D01*
X1999229Y-223162D01*
X2000732Y-223726D01*
X2002142Y-224478D01*
X2003552Y-225135D01*
X2004773Y-225887D01*
X2005901Y-226733D01*
X2007029Y-227485D01*
X2007969Y-228237D01*
X2008721Y-228989D01*
X2009472Y-229646D01*
X2010130Y-230304D01*
X2010600Y-230774D01*
X2011070Y-231244D01*
X2011352Y-231620D01*
X2011446Y-231808D01*
X2011540Y-231902D01*
X2012386Y-233218D01*
X2013232Y-234533D01*
X2013890Y-235849D01*
X2014453Y-237259D01*
X2015299Y-240078D01*
X2015863Y-242616D01*
X2016145Y-243837D01*
X2016239Y-244871D01*
X2016333Y-245905D01*
X2016427Y-246751D01*
X2016521Y-247409D01*
Y-248348D01*
X2016333Y-251450D01*
X2015863Y-254457D01*
X2015299Y-257089D01*
X2014923Y-258310D01*
X2014547Y-259438D01*
X2014171Y-260472D01*
X2013796Y-261412D01*
X2013514Y-262164D01*
X2013232Y-262915D01*
X2012950Y-263385D01*
X2012762Y-263761D01*
X2012668Y-264043D01*
X2012574Y-264137D01*
X2010976Y-266675D01*
X2009097Y-268836D01*
X2007217Y-270716D01*
X2005337Y-272313D01*
X2003646Y-273535D01*
X2002894Y-274005D01*
X2002236Y-274381D01*
X2001766Y-274757D01*
X2001390Y-274945D01*
X2001108Y-275039D01*
X2001014Y-275133D01*
X1998101Y-276449D01*
X1995094Y-277388D01*
X1992086Y-278046D01*
X1989361Y-278516D01*
X1988139Y-278704D01*
X1986917Y-278798D01*
X1985977Y-278892D01*
X1985038D01*
X1984380Y-278986D01*
X1983816D01*
X1983440D01*
X1983346D01*
X1979963Y-278798D01*
X1976673Y-278422D01*
X1973760Y-277952D01*
X1972350Y-277576D01*
X1971129Y-277294D01*
X1970001Y-277012D01*
X1968967Y-276636D01*
X1968027Y-276355D01*
X1967275Y-276167D01*
X1966712Y-275885D01*
X1966242Y-275791D01*
X1965960Y-275603D01*
X1965866D01*
X1963046Y-274193D01*
X1960509Y-272595D01*
X1958347Y-270904D01*
X1957502Y-270058D01*
X1956656Y-269306D01*
X1955904Y-268554D01*
X1955246Y-267802D01*
X1954682Y-267145D01*
X1954306Y-266581D01*
X1953930Y-266205D01*
X1953648Y-265829D01*
X1953554Y-265641D01*
X1953460Y-265547D01*
X1952709Y-264231D01*
X1952051Y-262915D01*
X1951017Y-260096D01*
X1950265Y-257277D01*
X1949795Y-254551D01*
X1949607Y-253235D01*
X1949419Y-252108D01*
X1949325Y-251074D01*
Y-250228D01*
X1949231Y-249476D01*
Y-248442D01*
X1949325Y-246563D01*
X1949513Y-244777D01*
X1949701Y-243086D01*
X1950077Y-241488D01*
X1950547Y-239984D01*
X1951017Y-238575D01*
X1951487Y-237259D01*
X1952051Y-236037D01*
X1952521Y-235003D01*
X1952991Y-233970D01*
X1953460Y-233218D01*
X1953930Y-232466D01*
X1954306Y-231996D01*
X1954494Y-231526D01*
X1954682Y-231338D01*
X1954776Y-231244D01*
X1955904Y-229928D01*
X1957032Y-228801D01*
X1958347Y-227767D01*
X1959663Y-226733D01*
X1962295Y-225041D01*
X1964926Y-223726D01*
X1966148Y-223162D01*
X1967275Y-222692D01*
X1968309Y-222316D01*
X1969155Y-222034D01*
X1969907Y-221752D01*
X1970471Y-221564D01*
X1970847Y-221470D01*
X1970941D01*
X1973102Y-230116D01*
D02*
G37*
G36*
X-1324947Y1331167D02*
X-1323913Y1329663D01*
X-1322692Y1328159D01*
X-1321564Y1326844D01*
X-1320436Y1325716D01*
X-1319590Y1324776D01*
X-1319214Y1324494D01*
X-1318932Y1324212D01*
X-1318838Y1324118D01*
X-1318744Y1324024D01*
X-1316771Y1322427D01*
X-1314797Y1320923D01*
X-1312918Y1319607D01*
X-1311038Y1318573D01*
X-1309440Y1317634D01*
X-1308782Y1317258D01*
X-1308219Y1316976D01*
X-1307749Y1316694D01*
X-1307373Y1316600D01*
X-1307185Y1316412D01*
X-1307091D01*
Y1308706D01*
X-1308501Y1309269D01*
X-1309910Y1309927D01*
X-1311320Y1310585D01*
X-1312636Y1311243D01*
X-1313763Y1311807D01*
X-1314703Y1312277D01*
X-1315267Y1312653D01*
X-1315361Y1312747D01*
X-1315455D01*
X-1317147Y1313780D01*
X-1318650Y1314814D01*
X-1319966Y1315754D01*
X-1321000Y1316600D01*
X-1321940Y1317258D01*
X-1322504Y1317822D01*
X-1322973Y1318198D01*
X-1323067Y1318291D01*
Y1267448D01*
X-1331056D01*
Y1332764D01*
X-1325887D01*
X-1324947Y1331167D01*
D02*
G37*
G36*
X-1262074Y1301093D02*
X-1236982Y1267448D01*
X-1247320D01*
X-1263766Y1290004D01*
X-1264142Y1290567D01*
X-1264612Y1291225D01*
X-1265646Y1292729D01*
X-1266116Y1293481D01*
X-1266491Y1294045D01*
X-1266773Y1294421D01*
X-1266867Y1294515D01*
X-1267807Y1293105D01*
X-1268653Y1291789D01*
X-1269029Y1291319D01*
X-1269217Y1290943D01*
X-1269405Y1290661D01*
X-1269499Y1290567D01*
X-1285945Y1267448D01*
X-1296565D01*
X-1272224Y1301469D01*
X-1294779Y1332482D01*
X-1285381D01*
X-1272412Y1315190D01*
X-1271284Y1313780D01*
X-1270345Y1312465D01*
X-1269405Y1311149D01*
X-1268653Y1310115D01*
X-1267995Y1309175D01*
X-1267525Y1308424D01*
X-1267243Y1308048D01*
X-1267149Y1307860D01*
X-1266491Y1308987D01*
X-1265740Y1310209D01*
X-1264894Y1311525D01*
X-1264048Y1312841D01*
X-1263202Y1313968D01*
X-1262638Y1314908D01*
X-1262356Y1315284D01*
X-1262168Y1315566D01*
X-1261980Y1315660D01*
Y1315754D01*
X-1250139Y1332482D01*
X-1239895D01*
X-1262074Y1301093D01*
D02*
G37*
G36*
X-2015539Y-90134D02*
X-1973436D01*
Y-96619D01*
X-2015539Y-126410D01*
X-2022869D01*
Y-98122D01*
X-2038470D01*
Y-90134D01*
X-2022869D01*
Y-81300D01*
X-2015539D01*
Y-90134D01*
D02*
G37*
G36*
X-1973436Y-143421D02*
X-2011028D01*
X-2013189D01*
X-2015257Y-143609D01*
X-2017042Y-143797D01*
X-2018734Y-144078D01*
X-2020238Y-144360D01*
X-2021647Y-144736D01*
X-2022869Y-145018D01*
X-2023903Y-145394D01*
X-2024749Y-145770D01*
X-2025595Y-146146D01*
X-2026159Y-146522D01*
X-2026722Y-146804D01*
X-2027098Y-147086D01*
X-2027380Y-147274D01*
X-2027474Y-147368D01*
X-2027568Y-147462D01*
X-2028320Y-148308D01*
X-2028978Y-149247D01*
X-2030012Y-151315D01*
X-2030764Y-153476D01*
X-2031233Y-155732D01*
X-2031609Y-157800D01*
X-2031703Y-158645D01*
Y-159491D01*
X-2031797Y-160055D01*
Y-160995D01*
X-2031703Y-162968D01*
X-2031421Y-164754D01*
X-2031139Y-166446D01*
X-2030670Y-167761D01*
X-2030294Y-168889D01*
X-2030012Y-169735D01*
X-2029730Y-170205D01*
X-2029636Y-170393D01*
X-2028790Y-171709D01*
X-2027756Y-172836D01*
X-2026722Y-173776D01*
X-2025783Y-174434D01*
X-2024843Y-174998D01*
X-2024185Y-175468D01*
X-2023715Y-175656D01*
X-2023527Y-175750D01*
X-2022681Y-176032D01*
X-2021835Y-176220D01*
X-2019862Y-176596D01*
X-2017794Y-176877D01*
X-2015727Y-177065D01*
X-2013941Y-177159D01*
X-2013095D01*
X-2012437Y-177253D01*
X-2011874D01*
X-2011404D01*
X-2011122D01*
X-2011028D01*
X-1973436D01*
Y-185900D01*
X-2011028D01*
X-2012907D01*
X-2014693Y-185806D01*
X-2016385Y-185712D01*
X-2017982Y-185524D01*
X-2019392Y-185336D01*
X-2020708Y-185148D01*
X-2021929Y-184866D01*
X-2023057Y-184678D01*
X-2024091Y-184490D01*
X-2024937Y-184208D01*
X-2025689Y-184020D01*
X-2026252Y-183832D01*
X-2026722Y-183644D01*
X-2027098Y-183550D01*
X-2027286Y-183456D01*
X-2027380D01*
X-2029448Y-182422D01*
X-2031327Y-181107D01*
X-2032831Y-179791D01*
X-2034147Y-178381D01*
X-2035181Y-177159D01*
X-2035932Y-176126D01*
X-2036120Y-175750D01*
X-2036308Y-175468D01*
X-2036496Y-175280D01*
Y-175186D01*
X-2037530Y-172836D01*
X-2038282Y-170393D01*
X-2038846Y-167855D01*
X-2039222Y-165506D01*
X-2039316Y-164472D01*
X-2039410Y-163438D01*
X-2039504Y-162499D01*
Y-161747D01*
X-2039598Y-161089D01*
Y-160243D01*
X-2039410Y-156860D01*
X-2039222Y-155356D01*
X-2039034Y-153946D01*
X-2038752Y-152537D01*
X-2038470Y-151315D01*
X-2038188Y-150187D01*
X-2037812Y-149153D01*
X-2037436Y-148214D01*
X-2037154Y-147462D01*
X-2036872Y-146710D01*
X-2036590Y-146146D01*
X-2036308Y-145676D01*
X-2036214Y-145394D01*
X-2036026Y-145206D01*
Y-145112D01*
X-2034617Y-143045D01*
X-2033019Y-141353D01*
X-2031515Y-140037D01*
X-2030012Y-138910D01*
X-2028696Y-138064D01*
X-2027662Y-137500D01*
X-2027286Y-137312D01*
X-2027004Y-137124D01*
X-2026816Y-137030D01*
X-2026722D01*
X-2025595Y-136654D01*
X-2024373Y-136278D01*
X-2021835Y-135714D01*
X-2019204Y-135338D01*
X-2016667Y-135056D01*
X-2015539Y-134962D01*
X-2014411Y-134868D01*
X-2013471D01*
X-2012625Y-134774D01*
X-2011968D01*
X-2011498D01*
X-2011122D01*
X-2011028D01*
X-1973436D01*
Y-143421D01*
D02*
G37*
G36*
X-2383376Y-309614D02*
X-2382343Y-311118D01*
X-2381121Y-312621D01*
X-2379993Y-313937D01*
X-2378865Y-315065D01*
X-2378020Y-316005D01*
X-2377644Y-316287D01*
X-2377362Y-316569D01*
X-2377268Y-316663D01*
X-2377174Y-316757D01*
X-2375200Y-318354D01*
X-2373227Y-319858D01*
X-2371347Y-321174D01*
X-2369467Y-322207D01*
X-2367870Y-323147D01*
X-2367212Y-323523D01*
X-2366648Y-323805D01*
X-2366178Y-324087D01*
X-2365802Y-324181D01*
X-2365614Y-324369D01*
X-2365520D01*
Y-332075D01*
X-2366930Y-331511D01*
X-2368340Y-330854D01*
X-2369749Y-330196D01*
X-2371065Y-329538D01*
X-2372193Y-328974D01*
X-2373133Y-328504D01*
X-2373697Y-328128D01*
X-2373791Y-328034D01*
X-2373885D01*
X-2375576Y-327000D01*
X-2377080Y-325967D01*
X-2378396Y-325027D01*
X-2379429Y-324181D01*
X-2380369Y-323523D01*
X-2380933Y-322959D01*
X-2381403Y-322583D01*
X-2381497Y-322489D01*
Y-373333D01*
X-2389485D01*
Y-308016D01*
X-2384316D01*
X-2383376Y-309614D01*
D02*
G37*
G36*
X-2297197Y-373333D02*
X-2305843D01*
Y-344481D01*
X-2316933D01*
X-2317966Y-344575D01*
X-2318718D01*
X-2319376Y-344669D01*
X-2319846Y-344763D01*
X-2320222D01*
X-2320410Y-344857D01*
X-2320504D01*
X-2322008Y-345326D01*
X-2322665Y-345608D01*
X-2323229Y-345890D01*
X-2323793Y-346172D01*
X-2324169Y-346360D01*
X-2324357Y-346454D01*
X-2324451Y-346548D01*
X-2325203Y-347112D01*
X-2325955Y-347770D01*
X-2327364Y-349180D01*
X-2328022Y-349838D01*
X-2328492Y-350401D01*
X-2328774Y-350777D01*
X-2328868Y-350871D01*
X-2329808Y-352187D01*
X-2330842Y-353597D01*
X-2331875Y-355100D01*
X-2332909Y-356510D01*
X-2333755Y-357826D01*
X-2334413Y-358860D01*
X-2334695Y-359236D01*
X-2334883Y-359517D01*
X-2335071Y-359705D01*
Y-359799D01*
X-2343623Y-373333D01*
X-2354337D01*
X-2343153Y-355664D01*
X-2341837Y-353785D01*
X-2340616Y-352093D01*
X-2339394Y-350683D01*
X-2338360Y-349368D01*
X-2337420Y-348428D01*
X-2336668Y-347676D01*
X-2336199Y-347206D01*
X-2336011Y-347018D01*
X-2335259Y-346454D01*
X-2334413Y-345796D01*
X-2332721Y-344763D01*
X-2331969Y-344387D01*
X-2331406Y-344011D01*
X-2331030Y-343823D01*
X-2330842Y-343729D01*
X-2332533Y-343447D01*
X-2334131Y-343165D01*
X-2335541Y-342695D01*
X-2336950Y-342319D01*
X-2338172Y-341849D01*
X-2339300Y-341285D01*
X-2340334Y-340815D01*
X-2341273Y-340346D01*
X-2342025Y-339782D01*
X-2342777Y-339312D01*
X-2343341Y-338936D01*
X-2343811Y-338560D01*
X-2344187Y-338278D01*
X-2344469Y-337996D01*
X-2344563Y-337902D01*
X-2344657Y-337808D01*
X-2345409Y-336868D01*
X-2346160Y-335928D01*
X-2347288Y-333955D01*
X-2348040Y-331981D01*
X-2348604Y-330102D01*
X-2348980Y-328504D01*
X-2349074Y-327846D01*
Y-327188D01*
X-2349168Y-326718D01*
Y-326343D01*
Y-326155D01*
Y-326061D01*
X-2349074Y-324087D01*
X-2348792Y-322301D01*
X-2348322Y-320610D01*
X-2347852Y-319200D01*
X-2347288Y-317978D01*
X-2346912Y-317038D01*
X-2346536Y-316475D01*
X-2346442Y-316381D01*
Y-316287D01*
X-2345315Y-314783D01*
X-2344187Y-313467D01*
X-2342965Y-312339D01*
X-2341837Y-311494D01*
X-2340804Y-310836D01*
X-2339958Y-310460D01*
X-2339394Y-310178D01*
X-2339300Y-310084D01*
X-2339206D01*
X-2338360Y-309802D01*
X-2337326Y-309520D01*
X-2335259Y-309050D01*
X-2333003Y-308768D01*
X-2330936Y-308486D01*
X-2328962Y-308392D01*
X-2328116D01*
X-2327364Y-308298D01*
X-2297197D01*
Y-373333D01*
D02*
G37*
G36*
X-2407247Y-350401D02*
Y-357732D01*
X-2435535D01*
Y-373333D01*
X-2443524D01*
Y-357732D01*
X-2452358D01*
Y-350401D01*
X-2443524D01*
Y-308298D01*
X-2437039D01*
X-2407247Y-350401D01*
D02*
G37*
G36*
X-2595532Y-592548D02*
X-2596848Y-594428D01*
X-2598069Y-596119D01*
X-2599291Y-597529D01*
X-2600325Y-598845D01*
X-2601265Y-599785D01*
X-2602017Y-600537D01*
X-2602487Y-601006D01*
X-2602674Y-601194D01*
X-2603426Y-601758D01*
X-2604272Y-602416D01*
X-2605964Y-603450D01*
X-2606716Y-603826D01*
X-2607280Y-604202D01*
X-2607655Y-604390D01*
X-2607843Y-604484D01*
X-2606152Y-604766D01*
X-2604554Y-605048D01*
X-2603144Y-605517D01*
X-2601735Y-605893D01*
X-2600513Y-606363D01*
X-2599385Y-606927D01*
X-2598351Y-607397D01*
X-2597412Y-607867D01*
X-2596660Y-608431D01*
X-2595908Y-608901D01*
X-2595344Y-609277D01*
X-2594874Y-609653D01*
X-2594498Y-609935D01*
X-2594216Y-610216D01*
X-2594122Y-610310D01*
X-2594028Y-610404D01*
X-2593276Y-611344D01*
X-2592525Y-612284D01*
X-2591397Y-614258D01*
X-2590645Y-616231D01*
X-2590081Y-618111D01*
X-2589705Y-619708D01*
X-2589611Y-620366D01*
Y-621024D01*
X-2589517Y-621494D01*
Y-621870D01*
Y-622058D01*
Y-622152D01*
X-2589611Y-624125D01*
X-2589893Y-625911D01*
X-2590363Y-627603D01*
X-2590833Y-629012D01*
X-2591397Y-630234D01*
X-2591773Y-631174D01*
X-2592149Y-631738D01*
X-2592243Y-631832D01*
Y-631926D01*
X-2593370Y-633430D01*
X-2594498Y-634745D01*
X-2595720Y-635873D01*
X-2596848Y-636719D01*
X-2597882Y-637377D01*
X-2598727Y-637753D01*
X-2599291Y-638035D01*
X-2599385Y-638129D01*
X-2599479D01*
X-2600325Y-638410D01*
X-2601359Y-638692D01*
X-2603426Y-639162D01*
X-2605682Y-639444D01*
X-2607749Y-639726D01*
X-2609723Y-639820D01*
X-2610569D01*
X-2611321Y-639914D01*
X-2641488D01*
Y-574880D01*
X-2632842D01*
Y-603732D01*
X-2621752D01*
X-2620719Y-603638D01*
X-2619967D01*
X-2619309Y-603544D01*
X-2618839Y-603450D01*
X-2618463D01*
X-2618275Y-603356D01*
X-2618181D01*
X-2616678Y-602886D01*
X-2616020Y-602604D01*
X-2615456Y-602322D01*
X-2614892Y-602040D01*
X-2614516Y-601852D01*
X-2614328Y-601758D01*
X-2614234Y-601664D01*
X-2613482Y-601100D01*
X-2612730Y-600443D01*
X-2611321Y-599033D01*
X-2610663Y-598375D01*
X-2610193Y-597811D01*
X-2609911Y-597435D01*
X-2609817Y-597341D01*
X-2608877Y-596025D01*
X-2607843Y-594616D01*
X-2606810Y-593112D01*
X-2605776Y-591702D01*
X-2604930Y-590387D01*
X-2604272Y-589353D01*
X-2603990Y-588977D01*
X-2603802Y-588695D01*
X-2603614Y-588507D01*
Y-588413D01*
X-2595062Y-574880D01*
X-2584348D01*
X-2595532Y-592548D01*
D02*
G37*
G36*
X-2506251Y-573846D02*
X-2504653Y-574034D01*
X-2503056Y-574316D01*
X-2501552Y-574692D01*
X-2500142Y-575162D01*
X-2498921Y-575632D01*
X-2497699Y-576196D01*
X-2496665Y-576760D01*
X-2495631Y-577229D01*
X-2494785Y-577793D01*
X-2494034Y-578263D01*
X-2493470Y-578733D01*
X-2493000Y-579109D01*
X-2492624Y-579391D01*
X-2492436Y-579579D01*
X-2492342Y-579673D01*
X-2491214Y-580801D01*
X-2490274Y-582022D01*
X-2489429Y-583244D01*
X-2488677Y-584466D01*
X-2488113Y-585594D01*
X-2487549Y-586815D01*
X-2486797Y-589071D01*
X-2486609Y-590105D01*
X-2486421Y-591045D01*
X-2486233Y-591890D01*
X-2486139Y-592642D01*
X-2486045Y-593206D01*
Y-593676D01*
Y-593958D01*
Y-594052D01*
X-2486139Y-596307D01*
X-2486515Y-598375D01*
X-2487079Y-600161D01*
X-2487643Y-601664D01*
X-2488207Y-602886D01*
X-2488771Y-603826D01*
X-2489147Y-604390D01*
X-2489241Y-604578D01*
X-2490556Y-605987D01*
X-2491966Y-607209D01*
X-2493470Y-608149D01*
X-2494973Y-608901D01*
X-2496289Y-609465D01*
X-2497323Y-609841D01*
X-2497699Y-609935D01*
X-2497981Y-610028D01*
X-2498169Y-610122D01*
X-2498263D01*
X-2496665Y-610968D01*
X-2495349Y-611814D01*
X-2494222Y-612754D01*
X-2493282Y-613600D01*
X-2492530Y-614352D01*
X-2491966Y-615009D01*
X-2491684Y-615385D01*
X-2491590Y-615573D01*
X-2490838Y-616889D01*
X-2490274Y-618205D01*
X-2489805Y-619520D01*
X-2489523Y-620742D01*
X-2489335Y-621776D01*
X-2489241Y-622528D01*
Y-623092D01*
Y-623280D01*
X-2489335Y-624877D01*
X-2489617Y-626475D01*
X-2489992Y-627885D01*
X-2490462Y-629106D01*
X-2490932Y-630140D01*
X-2491308Y-630986D01*
X-2491590Y-631456D01*
X-2491684Y-631644D01*
X-2492624Y-633054D01*
X-2493752Y-634275D01*
X-2494879Y-635309D01*
X-2496007Y-636249D01*
X-2496947Y-636907D01*
X-2497793Y-637471D01*
X-2498357Y-637753D01*
X-2498451Y-637847D01*
X-2498545D01*
X-2500236Y-638598D01*
X-2501928Y-639162D01*
X-2503620Y-639632D01*
X-2505123Y-639914D01*
X-2506345Y-640102D01*
X-2507379Y-640196D01*
X-2509728D01*
X-2511044Y-640008D01*
X-2513581Y-639538D01*
X-2515743Y-638786D01*
X-2517623Y-638035D01*
X-2518468Y-637565D01*
X-2519126Y-637189D01*
X-2519784Y-636813D01*
X-2520254Y-636437D01*
X-2520630Y-636155D01*
X-2520912Y-635967D01*
X-2521100Y-635873D01*
X-2521194Y-635779D01*
X-2522979Y-633993D01*
X-2524389Y-632020D01*
X-2525517Y-629952D01*
X-2526457Y-627885D01*
X-2527021Y-626099D01*
X-2527303Y-625347D01*
X-2527491Y-624689D01*
X-2527584Y-624125D01*
X-2527678Y-623750D01*
X-2527772Y-623468D01*
Y-623374D01*
X-2519784Y-621964D01*
X-2519408Y-624032D01*
X-2518844Y-625817D01*
X-2518186Y-627321D01*
X-2517529Y-628543D01*
X-2516871Y-629482D01*
X-2516307Y-630140D01*
X-2515931Y-630610D01*
X-2515837Y-630704D01*
X-2514615Y-631644D01*
X-2513300Y-632396D01*
X-2512078Y-632866D01*
X-2510856Y-633242D01*
X-2509728Y-633430D01*
X-2508882Y-633617D01*
X-2508131D01*
X-2506439Y-633523D01*
X-2504935Y-633148D01*
X-2503620Y-632678D01*
X-2502492Y-632208D01*
X-2501646Y-631644D01*
X-2500988Y-631174D01*
X-2500518Y-630798D01*
X-2500424Y-630704D01*
X-2499390Y-629576D01*
X-2498639Y-628355D01*
X-2498169Y-627133D01*
X-2497793Y-626005D01*
X-2497605Y-624971D01*
X-2497417Y-624219D01*
Y-623656D01*
Y-623562D01*
Y-623468D01*
Y-622434D01*
X-2497605Y-621494D01*
X-2498075Y-619896D01*
X-2498733Y-618487D01*
X-2499484Y-617265D01*
X-2500236Y-616419D01*
X-2500894Y-615761D01*
X-2501364Y-615385D01*
X-2501458Y-615291D01*
X-2501552D01*
X-2503150Y-614446D01*
X-2504653Y-613788D01*
X-2506251Y-613318D01*
X-2507661Y-613036D01*
X-2508882Y-612848D01*
X-2509916Y-612660D01*
X-2511138D01*
X-2511514Y-612754D01*
X-2511984D01*
X-2512924Y-605705D01*
X-2511702Y-605987D01*
X-2510574Y-606175D01*
X-2509634Y-606363D01*
X-2508788Y-606457D01*
X-2508131Y-606551D01*
X-2507285D01*
X-2505311Y-606363D01*
X-2503526Y-605987D01*
X-2501928Y-605423D01*
X-2500612Y-604766D01*
X-2499578Y-604108D01*
X-2498827Y-603544D01*
X-2498357Y-603168D01*
X-2498169Y-602980D01*
X-2496947Y-601570D01*
X-2496007Y-600067D01*
X-2495349Y-598563D01*
X-2494973Y-597059D01*
X-2494691Y-595838D01*
X-2494598Y-594804D01*
X-2494504Y-594428D01*
Y-594146D01*
Y-593958D01*
Y-593864D01*
X-2494691Y-591796D01*
X-2495161Y-589917D01*
X-2495725Y-588319D01*
X-2496477Y-586909D01*
X-2497229Y-585782D01*
X-2497793Y-584936D01*
X-2498263Y-584372D01*
X-2498451Y-584184D01*
X-2499954Y-582868D01*
X-2501552Y-581928D01*
X-2503150Y-581271D01*
X-2504653Y-580801D01*
X-2505969Y-580519D01*
X-2507003Y-580425D01*
X-2507379Y-580331D01*
X-2507943D01*
X-2509634Y-580425D01*
X-2511232Y-580801D01*
X-2512642Y-581271D01*
X-2513769Y-581834D01*
X-2514709Y-582304D01*
X-2515461Y-582774D01*
X-2515837Y-583150D01*
X-2516025Y-583244D01*
X-2517153Y-584560D01*
X-2518092Y-586064D01*
X-2518938Y-587661D01*
X-2519596Y-589353D01*
X-2520066Y-590763D01*
X-2520254Y-591420D01*
X-2520348Y-591984D01*
X-2520442Y-592454D01*
X-2520536Y-592830D01*
X-2520630Y-593018D01*
Y-593112D01*
X-2528618Y-592078D01*
X-2528430Y-590575D01*
X-2528148Y-589165D01*
X-2527303Y-586533D01*
X-2526269Y-584278D01*
X-2525705Y-583338D01*
X-2525141Y-582398D01*
X-2524577Y-581553D01*
X-2524013Y-580895D01*
X-2523543Y-580237D01*
X-2523073Y-579767D01*
X-2522791Y-579391D01*
X-2522510Y-579109D01*
X-2522322Y-578921D01*
X-2522228Y-578827D01*
X-2521100Y-577981D01*
X-2519972Y-577135D01*
X-2518844Y-576478D01*
X-2517623Y-575914D01*
X-2515273Y-574974D01*
X-2513018Y-574410D01*
X-2511984Y-574222D01*
X-2511044Y-574034D01*
X-2510198Y-573940D01*
X-2509446Y-573846D01*
X-2508882Y-573752D01*
X-2508037D01*
X-2506251Y-573846D01*
D02*
G37*
G36*
X-2549200Y-640196D02*
X-2554369D01*
X-2555309Y-638598D01*
X-2556342Y-637095D01*
X-2557564Y-635591D01*
X-2558692Y-634275D01*
X-2559820Y-633148D01*
X-2560665Y-632208D01*
X-2561041Y-631926D01*
X-2561323Y-631644D01*
X-2561417Y-631550D01*
X-2561511Y-631456D01*
X-2563485Y-629858D01*
X-2565458Y-628355D01*
X-2567338Y-627039D01*
X-2569218Y-626005D01*
X-2570815Y-625065D01*
X-2571473Y-624689D01*
X-2572037Y-624407D01*
X-2572507Y-624125D01*
X-2572883Y-624032D01*
X-2573071Y-623844D01*
X-2573165D01*
Y-616137D01*
X-2571755Y-616701D01*
X-2570345Y-617359D01*
X-2568936Y-618017D01*
X-2567620Y-618675D01*
X-2566492Y-619239D01*
X-2565552Y-619708D01*
X-2564989Y-620084D01*
X-2564895Y-620178D01*
X-2564801D01*
X-2563109Y-621212D01*
X-2561605Y-622246D01*
X-2560290Y-623186D01*
X-2559256Y-624032D01*
X-2558316Y-624689D01*
X-2557752Y-625253D01*
X-2557282Y-625629D01*
X-2557188Y-625723D01*
Y-574880D01*
X-2549200D01*
Y-640196D01*
D02*
G37*
G36*
X-2302860Y643245D02*
X-2332370D01*
Y612701D01*
X-2340076D01*
Y643245D01*
X-2360188D01*
Y607908D01*
X-2367894D01*
Y651891D01*
X-2302860D01*
Y643245D01*
D02*
G37*
G36*
Y572290D02*
X-2302954Y570034D01*
X-2303048Y568061D01*
X-2303236Y566275D01*
X-2303424Y564771D01*
X-2303612Y563550D01*
X-2303706Y562610D01*
X-2303894Y562046D01*
Y561858D01*
X-2304364Y560260D01*
X-2304834Y558945D01*
X-2305397Y557723D01*
X-2305961Y556689D01*
X-2306337Y555843D01*
X-2306713Y555185D01*
X-2306995Y554809D01*
X-2307089Y554715D01*
X-2307935Y553682D01*
X-2308969Y552742D01*
X-2310002Y551990D01*
X-2310942Y551238D01*
X-2311882Y550674D01*
X-2312540Y550298D01*
X-2313010Y550016D01*
X-2313198Y549922D01*
X-2314701Y549265D01*
X-2316205Y548795D01*
X-2317615Y548419D01*
X-2318931Y548231D01*
X-2320058Y548043D01*
X-2320998Y547949D01*
X-2321562D01*
X-2321656D01*
X-2321750D01*
X-2323818Y548043D01*
X-2325697Y548419D01*
X-2327295Y548983D01*
X-2328798Y549547D01*
X-2329926Y550110D01*
X-2330772Y550674D01*
X-2331336Y551050D01*
X-2331524Y551144D01*
X-2333028Y552460D01*
X-2334249Y553870D01*
X-2335283Y555467D01*
X-2336129Y556877D01*
X-2336787Y558193D01*
X-2337163Y559320D01*
X-2337351Y559696D01*
X-2337445Y559978D01*
X-2337539Y560166D01*
Y560260D01*
X-2338478Y558663D01*
X-2339418Y557253D01*
X-2340452Y556125D01*
X-2341392Y555185D01*
X-2342144Y554433D01*
X-2342895Y553870D01*
X-2343271Y553588D01*
X-2343459Y553494D01*
X-2344869Y552742D01*
X-2346185Y552178D01*
X-2347501Y551708D01*
X-2348722Y551426D01*
X-2349756Y551238D01*
X-2350602Y551144D01*
X-2351072D01*
X-2351260D01*
X-2352857Y551238D01*
X-2354455Y551520D01*
X-2355865Y551990D01*
X-2357180Y552460D01*
X-2358308Y552930D01*
X-2359060Y553400D01*
X-2359624Y553682D01*
X-2359812Y553776D01*
X-2361222Y554809D01*
X-2362537Y555937D01*
X-2363571Y557159D01*
X-2364417Y558287D01*
X-2365075Y559226D01*
X-2365545Y560072D01*
X-2365827Y560636D01*
X-2365921Y560730D01*
Y560824D01*
X-2366578Y562610D01*
X-2367048Y564583D01*
X-2367424Y566557D01*
X-2367612Y568437D01*
X-2367800Y570128D01*
Y570880D01*
X-2367894Y571538D01*
Y597100D01*
X-2302860D01*
Y572290D01*
D02*
G37*
G36*
X-2344681Y531878D02*
X-2345339Y530469D01*
X-2345997Y529059D01*
X-2346655Y527743D01*
X-2347219Y526615D01*
X-2347688Y525676D01*
X-2348064Y525112D01*
X-2348158Y525018D01*
Y524924D01*
X-2349192Y523232D01*
X-2350226Y521728D01*
X-2351166Y520413D01*
X-2352012Y519379D01*
X-2352669Y518439D01*
X-2353233Y517875D01*
X-2353609Y517405D01*
X-2353703Y517311D01*
X-2302860D01*
Y509323D01*
X-2368176D01*
Y514492D01*
X-2366578Y515432D01*
X-2365075Y516466D01*
X-2363571Y517687D01*
X-2362255Y518815D01*
X-2361128Y519943D01*
X-2360188Y520789D01*
X-2359906Y521165D01*
X-2359624Y521447D01*
X-2359530Y521540D01*
X-2359436Y521634D01*
X-2357838Y523608D01*
X-2356335Y525582D01*
X-2355019Y527461D01*
X-2353985Y529341D01*
X-2353045Y530938D01*
X-2352669Y531596D01*
X-2352387Y532160D01*
X-2352106Y532630D01*
X-2352012Y533006D01*
X-2351824Y533194D01*
Y533288D01*
X-2344117D01*
X-2344681Y531878D01*
D02*
G37*
G36*
X-2654643Y1007375D02*
X-2654737Y1005213D01*
X-2654831Y1003240D01*
X-2655019Y1001454D01*
X-2655207Y999950D01*
X-2655395Y998635D01*
X-2655489Y997695D01*
X-2655583Y997413D01*
X-2655677Y997131D01*
Y996943D01*
X-2656147Y995251D01*
X-2656710Y993748D01*
X-2657180Y992432D01*
X-2657744Y991304D01*
X-2658214Y990364D01*
X-2658590Y989706D01*
X-2658872Y989331D01*
X-2658966Y989143D01*
X-2659812Y987921D01*
X-2660846Y986887D01*
X-2661785Y985853D01*
X-2662725Y985007D01*
X-2663571Y984256D01*
X-2664229Y983692D01*
X-2664699Y983316D01*
X-2664887Y983222D01*
X-2666390Y982282D01*
X-2667988Y981342D01*
X-2669492Y980590D01*
X-2670995Y980026D01*
X-2672311Y979463D01*
X-2673345Y979087D01*
X-2673721Y978993D01*
X-2674003Y978899D01*
X-2674191Y978805D01*
X-2674285D01*
X-2676540Y978241D01*
X-2678796Y977771D01*
X-2680957Y977489D01*
X-2683025Y977207D01*
X-2684810Y977113D01*
X-2685562D01*
X-2686220Y977019D01*
X-2686690D01*
X-2687160D01*
X-2687348D01*
X-2687442D01*
X-2690637Y977113D01*
X-2693551Y977395D01*
X-2696182Y977865D01*
X-2697404Y978053D01*
X-2698438Y978335D01*
X-2699471Y978617D01*
X-2700317Y978805D01*
X-2701069Y978993D01*
X-2701727Y979275D01*
X-2702291Y979369D01*
X-2702667Y979557D01*
X-2702855Y979651D01*
X-2702949D01*
X-2705392Y980684D01*
X-2707554Y981906D01*
X-2709433Y983222D01*
X-2711031Y984444D01*
X-2712347Y985571D01*
X-2713286Y986511D01*
X-2713568Y986887D01*
X-2713850Y987169D01*
X-2713944Y987263D01*
X-2714038Y987357D01*
X-2715260Y988861D01*
X-2716200Y990458D01*
X-2717046Y992056D01*
X-2717703Y993560D01*
X-2718173Y994875D01*
X-2718455Y995909D01*
X-2718643Y996285D01*
Y996567D01*
X-2718737Y996755D01*
Y996849D01*
X-2719019Y998447D01*
X-2719301Y1000326D01*
X-2719489Y1002206D01*
X-2719583Y1004085D01*
X-2719677Y1005777D01*
Y1030776D01*
X-2654643D01*
Y1007375D01*
D02*
G37*
G36*
X-2681991Y968749D02*
X-2679172Y968561D01*
X-2676540Y968279D01*
X-2674097Y967809D01*
X-2671935Y967339D01*
X-2669962Y966869D01*
X-2668176Y966305D01*
X-2666578Y965648D01*
X-2665263Y965084D01*
X-2664041Y964520D01*
X-2663101Y964050D01*
X-2662255Y963486D01*
X-2661597Y963110D01*
X-2661221Y962828D01*
X-2660940Y962640D01*
X-2660846Y962546D01*
X-2659530Y961324D01*
X-2658402Y960009D01*
X-2657462Y958693D01*
X-2656616Y957377D01*
X-2655865Y955968D01*
X-2655301Y954652D01*
X-2654831Y953336D01*
X-2654455Y952020D01*
X-2654173Y950893D01*
X-2653891Y949765D01*
X-2653703Y948825D01*
X-2653609Y947979D01*
Y947227D01*
X-2653515Y946758D01*
Y946288D01*
X-2653609Y944126D01*
X-2653985Y942153D01*
X-2654361Y940367D01*
X-2654925Y938769D01*
X-2655395Y937548D01*
X-2655865Y936608D01*
X-2655959Y936232D01*
X-2656147Y935950D01*
X-2656241Y935856D01*
Y935762D01*
X-2657368Y934164D01*
X-2658684Y932661D01*
X-2660000Y931439D01*
X-2661315Y930405D01*
X-2662537Y929559D01*
X-2663477Y928995D01*
X-2663853Y928807D01*
X-2664135Y928619D01*
X-2664229Y928525D01*
X-2664323D01*
X-2666296Y927586D01*
X-2668364Y926928D01*
X-2670244Y926458D01*
X-2672029Y926176D01*
X-2673533Y925894D01*
X-2674097D01*
X-2674661Y925800D01*
X-2675131D01*
X-2675412D01*
X-2675600D01*
X-2675694D01*
X-2677386Y925894D01*
X-2678984Y926082D01*
X-2680581Y926364D01*
X-2681991Y926646D01*
X-2683307Y927116D01*
X-2684623Y927586D01*
X-2685750Y928056D01*
X-2686784Y928619D01*
X-2687724Y929183D01*
X-2688570Y929653D01*
X-2689228Y930123D01*
X-2689885Y930593D01*
X-2690355Y930875D01*
X-2690637Y931157D01*
X-2690825Y931345D01*
X-2690919Y931439D01*
X-2691953Y932473D01*
X-2692893Y933600D01*
X-2693645Y934822D01*
X-2694302Y935950D01*
X-2694960Y937078D01*
X-2695430Y938205D01*
X-2696088Y940367D01*
X-2696370Y941307D01*
X-2696558Y942247D01*
X-2696652Y942998D01*
X-2696746Y943750D01*
X-2696840Y944314D01*
Y945066D01*
X-2696746Y946758D01*
X-2696464Y948355D01*
X-2696182Y949859D01*
X-2695806Y951175D01*
X-2695336Y952302D01*
X-2695054Y953148D01*
X-2694772Y953712D01*
X-2694678Y953806D01*
Y953900D01*
X-2693739Y955404D01*
X-2692705Y956719D01*
X-2691671Y957941D01*
X-2690543Y958881D01*
X-2689603Y959727D01*
X-2688852Y960385D01*
X-2688288Y960761D01*
X-2688194Y960855D01*
X-2689885D01*
X-2691577Y960761D01*
X-2693081Y960667D01*
X-2694584Y960479D01*
X-2695900Y960385D01*
X-2697122Y960197D01*
X-2698250Y960009D01*
X-2699283Y959727D01*
X-2700223Y959539D01*
X-2700975Y959351D01*
X-2701633Y959163D01*
X-2702197Y959069D01*
X-2702573Y958881D01*
X-2702855Y958787D01*
X-2703043Y958693D01*
X-2703137D01*
X-2705016Y957753D01*
X-2706708Y956813D01*
X-2708024Y955780D01*
X-2709151Y954840D01*
X-2710091Y953994D01*
X-2710749Y953336D01*
X-2711125Y952866D01*
X-2711219Y952678D01*
X-2711971Y951551D01*
X-2712441Y950423D01*
X-2712817Y949295D01*
X-2713098Y948167D01*
X-2713286Y947321D01*
X-2713380Y946570D01*
Y945912D01*
X-2713192Y944220D01*
X-2712817Y942622D01*
X-2712253Y941307D01*
X-2711689Y940085D01*
X-2711031Y939145D01*
X-2710467Y938487D01*
X-2710091Y938111D01*
X-2709903Y937923D01*
X-2709057Y937266D01*
X-2708024Y936608D01*
X-2706896Y936044D01*
X-2705768Y935668D01*
X-2704734Y935292D01*
X-2703888Y935010D01*
X-2703325Y934916D01*
X-2703231Y934822D01*
X-2703137D01*
X-2703794Y926834D01*
X-2706426Y927398D01*
X-2708775Y928244D01*
X-2710843Y929183D01*
X-2712535Y930217D01*
X-2713850Y931251D01*
X-2714414Y931627D01*
X-2714884Y932097D01*
X-2715166Y932379D01*
X-2715448Y932661D01*
X-2715542Y932755D01*
X-2715636Y932849D01*
X-2716388Y933788D01*
X-2717046Y934822D01*
X-2718173Y936890D01*
X-2718925Y938957D01*
X-2719395Y940931D01*
X-2719771Y942716D01*
X-2719865Y943468D01*
Y944126D01*
X-2719959Y944690D01*
Y945442D01*
X-2719865Y947321D01*
X-2719677Y949107D01*
X-2719301Y950799D01*
X-2718831Y952396D01*
X-2718173Y953806D01*
X-2717610Y955216D01*
X-2716858Y956438D01*
X-2716200Y957565D01*
X-2715542Y958505D01*
X-2714790Y959445D01*
X-2714226Y960197D01*
X-2713662Y960761D01*
X-2713098Y961230D01*
X-2712723Y961606D01*
X-2712535Y961794D01*
X-2712441Y961888D01*
X-2710749Y963110D01*
X-2708775Y964144D01*
X-2706708Y965084D01*
X-2704546Y965929D01*
X-2702291Y966587D01*
X-2700035Y967151D01*
X-2697686Y967621D01*
X-2695524Y967997D01*
X-2693363Y968279D01*
X-2691389Y968467D01*
X-2689603Y968655D01*
X-2688100Y968749D01*
X-2686784D01*
X-2685844Y968843D01*
X-2685468D01*
X-2685186D01*
X-2685092D01*
X-2684998D01*
X-2681991Y968749D01*
D02*
G37*
G36*
X-1999410Y364155D02*
X-1997812Y364061D01*
X-1996308Y363779D01*
X-1994899Y363497D01*
X-1993583Y363121D01*
X-1992361Y362745D01*
X-1991234Y362275D01*
X-1990200Y361805D01*
X-1989260Y361336D01*
X-1988508Y360866D01*
X-1987850Y360490D01*
X-1987286Y360114D01*
X-1986816Y359832D01*
X-1986535Y359550D01*
X-1986347Y359456D01*
X-1986253Y359362D01*
X-1985313Y358422D01*
X-1984467Y357388D01*
X-1983621Y356261D01*
X-1982963Y355133D01*
X-1981836Y352877D01*
X-1981084Y350622D01*
X-1980802Y349588D01*
X-1980520Y348554D01*
X-1980332Y347708D01*
X-1980144Y346957D01*
X-1980050Y346299D01*
Y345829D01*
X-1979956Y345547D01*
Y345453D01*
X-1988132Y344607D01*
X-1988320Y346769D01*
X-1988696Y348648D01*
X-1989260Y350340D01*
X-1989918Y351656D01*
X-1990482Y352783D01*
X-1991046Y353535D01*
X-1991421Y354005D01*
X-1991609Y354193D01*
X-1993019Y355321D01*
X-1994523Y356167D01*
X-1996120Y356825D01*
X-1997530Y357200D01*
X-1998846Y357482D01*
X-1999974Y357576D01*
X-2000350Y357670D01*
X-2000913D01*
X-2002887Y357576D01*
X-2004673Y357200D01*
X-2006176Y356637D01*
X-2007492Y356073D01*
X-2008526Y355415D01*
X-2009184Y354945D01*
X-2009654Y354569D01*
X-2009842Y354381D01*
X-2010969Y353065D01*
X-2011815Y351750D01*
X-2012473Y350434D01*
X-2012849Y349118D01*
X-2013131Y348084D01*
X-2013225Y347145D01*
X-2013319Y346581D01*
Y346487D01*
Y346393D01*
X-2013131Y344701D01*
X-2012755Y342915D01*
X-2012097Y341318D01*
X-2011439Y339814D01*
X-2010687Y338592D01*
X-2010030Y337559D01*
X-2009842Y337183D01*
X-2009654Y336901D01*
X-2009466Y336807D01*
Y336713D01*
X-2008714Y335679D01*
X-2007774Y334645D01*
X-2006740Y333517D01*
X-2005612Y332390D01*
X-2003263Y330134D01*
X-2000913Y327879D01*
X-1999692Y326845D01*
X-1998658Y325905D01*
X-1997624Y325059D01*
X-1996778Y324307D01*
X-1996120Y323744D01*
X-1995557Y323274D01*
X-1995181Y322992D01*
X-1995087Y322898D01*
X-1992737Y320924D01*
X-1990576Y319045D01*
X-1988790Y317353D01*
X-1987380Y315943D01*
X-1986159Y314721D01*
X-1985313Y313876D01*
X-1984843Y313312D01*
X-1984655Y313218D01*
Y313124D01*
X-1983339Y311526D01*
X-1982305Y310022D01*
X-1981366Y308519D01*
X-1980614Y307203D01*
X-1980050Y306075D01*
X-1979674Y305230D01*
X-1979486Y304666D01*
X-1979392Y304572D01*
Y304478D01*
X-1979016Y303444D01*
X-1978828Y302504D01*
X-1978640Y301564D01*
X-1978546Y300718D01*
X-1978452Y299967D01*
Y299403D01*
Y299027D01*
Y298933D01*
X-2021589D01*
Y306639D01*
X-1989542D01*
X-1990670Y308237D01*
X-1991234Y308895D01*
X-1991703Y309553D01*
X-1992173Y310116D01*
X-1992549Y310492D01*
X-1992831Y310774D01*
X-1992925Y310868D01*
X-1993395Y311338D01*
X-1993959Y311808D01*
X-1995275Y313030D01*
X-1996778Y314440D01*
X-1998376Y315849D01*
X-1999880Y317071D01*
X-2000538Y317635D01*
X-2001101Y318199D01*
X-2001571Y318575D01*
X-2001947Y318857D01*
X-2002135Y319045D01*
X-2002229Y319139D01*
X-2003733Y320454D01*
X-2005237Y321676D01*
X-2006552Y322898D01*
X-2007774Y323932D01*
X-2008902Y324965D01*
X-2009842Y325905D01*
X-2010781Y326751D01*
X-2011533Y327503D01*
X-2012285Y328255D01*
X-2012849Y328818D01*
X-2013319Y329288D01*
X-2013789Y329758D01*
X-2014259Y330322D01*
X-2014447Y330510D01*
X-2015762Y332108D01*
X-2016890Y333517D01*
X-2017830Y334927D01*
X-2018582Y336055D01*
X-2019146Y337089D01*
X-2019521Y337841D01*
X-2019709Y338310D01*
X-2019803Y338498D01*
X-2020367Y339908D01*
X-2020743Y341318D01*
X-2021119Y342634D01*
X-2021307Y343761D01*
X-2021401Y344795D01*
X-2021495Y345547D01*
Y346017D01*
Y346205D01*
X-2021401Y347614D01*
X-2021213Y348930D01*
X-2021025Y350246D01*
X-2020649Y351374D01*
X-2019709Y353629D01*
X-2018770Y355415D01*
X-2018206Y356261D01*
X-2017736Y356919D01*
X-2017266Y357576D01*
X-2016796Y358046D01*
X-2016420Y358422D01*
X-2016232Y358798D01*
X-2016044Y358892D01*
X-2015950Y358986D01*
X-2014916Y359926D01*
X-2013789Y360772D01*
X-2012567Y361430D01*
X-2011345Y361993D01*
X-2008902Y362933D01*
X-2006458Y363591D01*
X-2005424Y363779D01*
X-2004391Y363967D01*
X-2003451Y364061D01*
X-2002699Y364155D01*
X-2002041Y364249D01*
X-2001101D01*
X-1999410Y364155D01*
D02*
G37*
G36*
X-1952984Y362651D02*
X-1951950Y361148D01*
X-1950728Y359644D01*
X-1949600Y358328D01*
X-1948473Y357200D01*
X-1947627Y356261D01*
X-1947251Y355979D01*
X-1946969Y355697D01*
X-1946875Y355603D01*
X-1946781Y355509D01*
X-1944807Y353911D01*
X-1942834Y352407D01*
X-1940954Y351092D01*
X-1939075Y350058D01*
X-1937477Y349118D01*
X-1936819Y348742D01*
X-1936255Y348460D01*
X-1935785Y348178D01*
X-1935409Y348084D01*
X-1935221Y347896D01*
X-1935127D01*
Y340190D01*
X-1936537Y340754D01*
X-1937947Y341412D01*
X-1939357Y342070D01*
X-1940672Y342728D01*
X-1941800Y343291D01*
X-1942740Y343761D01*
X-1943304Y344137D01*
X-1943398Y344231D01*
X-1943492D01*
X-1945183Y345265D01*
X-1946687Y346299D01*
X-1948003Y347239D01*
X-1949036Y348084D01*
X-1949976Y348742D01*
X-1950540Y349306D01*
X-1951010Y349682D01*
X-1951104Y349776D01*
Y298933D01*
X-1959092D01*
Y364249D01*
X-1953923D01*
X-1952984Y362651D01*
D02*
G37*
G36*
X-1891709Y364907D02*
X-1888701Y364437D01*
X-1886070Y363873D01*
X-1884848Y363497D01*
X-1883720Y363121D01*
X-1882687Y362745D01*
X-1881747Y362369D01*
X-1880995Y362087D01*
X-1880243Y361805D01*
X-1879773Y361524D01*
X-1879397Y361336D01*
X-1879115Y361242D01*
X-1879021Y361148D01*
X-1876484Y359550D01*
X-1874322Y357670D01*
X-1872443Y355791D01*
X-1870845Y353911D01*
X-1869623Y352220D01*
X-1869153Y351468D01*
X-1868778Y350810D01*
X-1868402Y350340D01*
X-1868214Y349964D01*
X-1868120Y349682D01*
X-1868026Y349588D01*
X-1866710Y346675D01*
X-1865770Y343667D01*
X-1865112Y340660D01*
X-1864642Y337935D01*
X-1864454Y336713D01*
X-1864361Y335491D01*
X-1864267Y334551D01*
Y333611D01*
X-1864173Y332954D01*
Y332390D01*
Y332014D01*
Y331920D01*
X-1864361Y328537D01*
X-1864736Y325247D01*
X-1865206Y322334D01*
X-1865582Y320924D01*
X-1865864Y319702D01*
X-1866146Y318575D01*
X-1866522Y317541D01*
X-1866804Y316601D01*
X-1866992Y315849D01*
X-1867274Y315285D01*
X-1867368Y314815D01*
X-1867556Y314534D01*
Y314440D01*
X-1868966Y311620D01*
X-1870563Y309083D01*
X-1872255Y306921D01*
X-1873101Y306075D01*
X-1873852Y305230D01*
X-1874604Y304478D01*
X-1875356Y303820D01*
X-1876014Y303256D01*
X-1876578Y302880D01*
X-1876954Y302504D01*
X-1877330Y302222D01*
X-1877518Y302128D01*
X-1877612Y302034D01*
X-1878927Y301282D01*
X-1880243Y300624D01*
X-1883063Y299591D01*
X-1885882Y298839D01*
X-1888607Y298369D01*
X-1889923Y298181D01*
X-1891051Y297993D01*
X-1892085Y297899D01*
X-1892930D01*
X-1893682Y297805D01*
X-1894716D01*
X-1896596Y297899D01*
X-1898381Y298087D01*
X-1900073Y298275D01*
X-1901671Y298651D01*
X-1903174Y299121D01*
X-1904584Y299591D01*
X-1905900Y300061D01*
X-1907121Y300624D01*
X-1908155Y301094D01*
X-1909189Y301564D01*
X-1909941Y302034D01*
X-1910693Y302504D01*
X-1911163Y302880D01*
X-1911632Y303068D01*
X-1911820Y303256D01*
X-1911914Y303350D01*
X-1913230Y304478D01*
X-1914358Y305605D01*
X-1915392Y306921D01*
X-1916425Y308237D01*
X-1918117Y310868D01*
X-1919433Y313500D01*
X-1919997Y314721D01*
X-1920467Y315849D01*
X-1920842Y316883D01*
X-1921124Y317729D01*
X-1921406Y318481D01*
X-1921594Y319045D01*
X-1921688Y319420D01*
Y319514D01*
X-1913042Y321676D01*
X-1912666Y320172D01*
X-1912196Y318763D01*
X-1911726Y317447D01*
X-1911257Y316225D01*
X-1910693Y315097D01*
X-1910129Y314158D01*
X-1909471Y313218D01*
X-1908907Y312372D01*
X-1908437Y311620D01*
X-1907873Y311056D01*
X-1907403Y310492D01*
X-1907027Y310022D01*
X-1906652Y309741D01*
X-1906370Y309459D01*
X-1906276Y309365D01*
X-1906182Y309271D01*
X-1905242Y308519D01*
X-1904208Y307955D01*
X-1902140Y306921D01*
X-1900167Y306169D01*
X-1898193Y305699D01*
X-1896502Y305323D01*
X-1895844Y305230D01*
X-1895186D01*
X-1894622Y305136D01*
X-1893964D01*
X-1891803Y305230D01*
X-1889735Y305605D01*
X-1887856Y306075D01*
X-1886164Y306639D01*
X-1884848Y307203D01*
X-1884284Y307485D01*
X-1883814Y307673D01*
X-1883438Y307861D01*
X-1883157Y308049D01*
X-1882969Y308143D01*
X-1882875D01*
X-1881089Y309459D01*
X-1879585Y310868D01*
X-1878270Y312466D01*
X-1877236Y313970D01*
X-1876390Y315285D01*
X-1875826Y316413D01*
X-1875638Y316883D01*
X-1875450Y317165D01*
X-1875356Y317353D01*
Y317447D01*
X-1874604Y319890D01*
X-1874040Y322334D01*
X-1873571Y324777D01*
X-1873289Y327033D01*
X-1873195Y328067D01*
X-1873101Y329006D01*
Y329852D01*
X-1873007Y330510D01*
Y331074D01*
Y331544D01*
Y331826D01*
Y331920D01*
X-1873101Y334363D01*
X-1873289Y336619D01*
X-1873665Y338686D01*
X-1874040Y340566D01*
X-1874322Y342164D01*
X-1874510Y342822D01*
X-1874698Y343385D01*
X-1874792Y343855D01*
X-1874886Y344137D01*
X-1874980Y344325D01*
Y344419D01*
X-1875920Y346581D01*
X-1876954Y348554D01*
X-1878082Y350152D01*
X-1879303Y351562D01*
X-1880337Y352689D01*
X-1881183Y353441D01*
X-1881841Y353911D01*
X-1881935Y354099D01*
X-1882029D01*
X-1884002Y355321D01*
X-1886164Y356261D01*
X-1888231Y356919D01*
X-1890205Y357294D01*
X-1891991Y357576D01*
X-1892742Y357670D01*
X-1893400D01*
X-1893870Y357764D01*
X-1894622D01*
X-1896972Y357670D01*
X-1899133Y357294D01*
X-1900919Y356731D01*
X-1902516Y356167D01*
X-1903738Y355509D01*
X-1904678Y355039D01*
X-1905242Y354663D01*
X-1905430Y354475D01*
X-1906933Y353065D01*
X-1908343Y351468D01*
X-1909471Y349776D01*
X-1910411Y348084D01*
X-1911163Y346581D01*
X-1911444Y345829D01*
X-1911632Y345265D01*
X-1911820Y344795D01*
X-1912008Y344419D01*
X-1912102Y344231D01*
Y344137D01*
X-1920561Y346111D01*
X-1919997Y347802D01*
X-1919433Y349306D01*
X-1918681Y350716D01*
X-1918023Y352126D01*
X-1917271Y353347D01*
X-1916425Y354475D01*
X-1915674Y355603D01*
X-1914922Y356543D01*
X-1914170Y357294D01*
X-1913512Y358046D01*
X-1912854Y358704D01*
X-1912384Y359174D01*
X-1911914Y359644D01*
X-1911538Y359926D01*
X-1911351Y360020D01*
X-1911257Y360114D01*
X-1909941Y360960D01*
X-1908625Y361805D01*
X-1907309Y362463D01*
X-1905900Y363027D01*
X-1903080Y363873D01*
X-1900543Y364437D01*
X-1899321Y364719D01*
X-1898287Y364813D01*
X-1897254Y364907D01*
X-1896408Y365001D01*
X-1895750Y365095D01*
X-1894810D01*
X-1891709Y364907D01*
D02*
G37*
%LPC*%
G36*
X794355Y652148D02*
X793509D01*
X793040D01*
X792946D01*
X792852D01*
X789938D01*
X787307Y651960D01*
X784957Y651772D01*
X782702Y651584D01*
X780822Y651302D01*
X779037Y650926D01*
X777533Y650550D01*
X776123Y650268D01*
X774995Y649892D01*
X774056Y649516D01*
X773210Y649234D01*
X772552Y648858D01*
X772082Y648671D01*
X771800Y648483D01*
X771612Y648295D01*
X771518D01*
X770578Y647543D01*
X769827Y646791D01*
X769075Y646039D01*
X768511Y645287D01*
X767571Y643690D01*
X766913Y642280D01*
X766537Y640964D01*
X766349Y640024D01*
X766255Y639648D01*
Y639085D01*
X766349Y638051D01*
X766443Y637111D01*
X767101Y635325D01*
X767947Y633728D01*
X768887Y632318D01*
X769827Y631284D01*
X770672Y630438D01*
X771330Y629969D01*
X771424Y629781D01*
X771518D01*
X772646Y629123D01*
X773962Y628559D01*
X775465Y627995D01*
X777063Y627619D01*
X778755Y627243D01*
X780540Y626961D01*
X784205Y626491D01*
X785897Y626303D01*
X787495Y626209D01*
X788998Y626115D01*
X790220D01*
X791348Y626021D01*
X792194D01*
X792664D01*
X792852D01*
X795765Y626115D01*
X798396Y626209D01*
X800840Y626397D01*
X803095Y626679D01*
X805069Y626961D01*
X806855Y627337D01*
X808452Y627713D01*
X809862Y628089D01*
X811084Y628465D01*
X812118Y628747D01*
X812963Y629123D01*
X813715Y629405D01*
X814185Y629687D01*
X814561Y629875D01*
X814749Y630062D01*
X814843D01*
X815689Y630720D01*
X816441Y631378D01*
X817004Y632130D01*
X817568Y632882D01*
X818414Y634386D01*
X818978Y635795D01*
X819260Y637017D01*
X819448Y638051D01*
X819542Y638427D01*
Y638991D01*
X819448Y640024D01*
X819354Y641058D01*
X819072Y641998D01*
X818696Y642844D01*
X817850Y644441D01*
X816910Y645851D01*
X815877Y646885D01*
X815031Y647731D01*
X814655Y648013D01*
X814373Y648201D01*
X814279Y648389D01*
X814185D01*
X813057Y649046D01*
X811742Y649610D01*
X810238Y650174D01*
X808640Y650550D01*
X806949Y650926D01*
X805163Y651208D01*
X801592Y651678D01*
X799806Y651866D01*
X798208Y651960D01*
X796705Y652054D01*
X795483D01*
X794355Y652148D01*
D02*
G37*
G36*
X808170Y548206D02*
X808076D01*
X807982D01*
X806855Y548112D01*
X805727Y547924D01*
X804787Y547642D01*
X803941Y547360D01*
X803189Y546984D01*
X802626Y546702D01*
X802250Y546514D01*
X802156Y546420D01*
X801216Y545762D01*
X800370Y544917D01*
X799712Y544071D01*
X799148Y543225D01*
X798772Y542473D01*
X798490Y541909D01*
X798302Y541533D01*
X798208Y541345D01*
X797833Y540030D01*
X797551Y538526D01*
X797363Y537022D01*
X797269Y535519D01*
X797175Y534203D01*
X797081Y533075D01*
Y513715D01*
X818602D01*
Y534203D01*
X818508Y536740D01*
X818132Y538902D01*
X817662Y540781D01*
X817098Y542191D01*
X816535Y543413D01*
X816065Y544165D01*
X815689Y544635D01*
X815595Y544823D01*
X814373Y545950D01*
X813151Y546796D01*
X811836Y547360D01*
X810708Y547830D01*
X809580Y548018D01*
X808734Y548112D01*
X808170Y548206D01*
D02*
G37*
G36*
X182461Y-55252D02*
X161973D01*
X159436Y-55346D01*
X157274Y-55722D01*
X155395Y-56192D01*
X153985Y-56756D01*
X152763Y-57320D01*
X152011Y-57790D01*
X151541Y-58166D01*
X151354Y-58260D01*
X150226Y-59481D01*
X149380Y-60703D01*
X148816Y-62019D01*
X148346Y-63147D01*
X148158Y-64274D01*
X148064Y-65120D01*
X147970Y-65684D01*
Y-65778D01*
Y-65872D01*
X148064Y-67000D01*
X148252Y-68128D01*
X148534Y-69067D01*
X148816Y-69913D01*
X149192Y-70665D01*
X149474Y-71229D01*
X149662Y-71605D01*
X149756Y-71699D01*
X150414Y-72639D01*
X151260Y-73484D01*
X152105Y-74142D01*
X152951Y-74706D01*
X153703Y-75082D01*
X154267Y-75364D01*
X154643Y-75552D01*
X154831Y-75646D01*
X156146Y-76022D01*
X157650Y-76304D01*
X159154Y-76492D01*
X160658Y-76586D01*
X161973Y-76680D01*
X163101Y-76774D01*
X182461D01*
Y-55252D01*
D02*
G37*
G36*
X-410122Y-76252D02*
X-431644D01*
Y-96739D01*
X-431550Y-99277D01*
X-431174Y-101438D01*
X-430704Y-103318D01*
X-430140Y-104728D01*
X-429576Y-105949D01*
X-429106Y-106701D01*
X-428730Y-107171D01*
X-428636Y-107359D01*
X-427415Y-108487D01*
X-426193Y-109333D01*
X-424877Y-109897D01*
X-423749Y-110367D01*
X-422622Y-110555D01*
X-421776Y-110648D01*
X-421212Y-110742D01*
X-421118D01*
X-421024D01*
X-419896Y-110648D01*
X-418769Y-110461D01*
X-417829Y-110179D01*
X-416983Y-109897D01*
X-416231Y-109521D01*
X-415667Y-109239D01*
X-415291Y-109051D01*
X-415197Y-108957D01*
X-414257Y-108299D01*
X-413412Y-107453D01*
X-412754Y-106607D01*
X-412190Y-105762D01*
X-411814Y-105010D01*
X-411532Y-104446D01*
X-411344Y-104070D01*
X-411250Y-103882D01*
X-410874Y-102566D01*
X-410592Y-101063D01*
X-410404Y-99559D01*
X-410310Y-98055D01*
X-410216Y-96739D01*
X-410122Y-95612D01*
Y-76252D01*
D02*
G37*
G36*
X1686371Y-1356789D02*
X1686277D01*
X1686183D01*
X1685056Y-1356883D01*
X1683928Y-1357071D01*
X1682988Y-1357353D01*
X1682142Y-1357635D01*
X1681390Y-1358011D01*
X1680826Y-1358293D01*
X1680451Y-1358481D01*
X1680357Y-1358575D01*
X1679417Y-1359232D01*
X1678571Y-1360078D01*
X1677913Y-1360924D01*
X1677349Y-1361770D01*
X1676973Y-1362522D01*
X1676691Y-1363086D01*
X1676503Y-1363462D01*
X1676409Y-1363650D01*
X1676033Y-1364965D01*
X1675752Y-1366469D01*
X1675564Y-1367973D01*
X1675470Y-1369476D01*
X1675376Y-1370792D01*
X1675282Y-1371920D01*
Y-1391280D01*
X1696803D01*
Y-1370792D01*
X1696709Y-1368255D01*
X1696333Y-1366093D01*
X1695863Y-1364213D01*
X1695299Y-1362804D01*
X1694735Y-1361582D01*
X1694266Y-1360830D01*
X1693890Y-1360360D01*
X1693796Y-1360172D01*
X1692574Y-1359045D01*
X1691352Y-1358199D01*
X1690036Y-1357635D01*
X1688909Y-1357165D01*
X1687781Y-1356977D01*
X1686935Y-1356883D01*
X1686371Y-1356789D01*
D02*
G37*
G36*
X1119610Y1358673D02*
X1104573D01*
X1103351Y1358579D01*
X1102129D01*
X1101002Y1358485D01*
X1099122Y1358204D01*
X1097618Y1358016D01*
X1096397Y1357734D01*
X1095551Y1357452D01*
X1095081Y1357358D01*
X1094893Y1357264D01*
X1093201Y1356418D01*
X1091604Y1355384D01*
X1090194Y1354162D01*
X1088972Y1352941D01*
X1088032Y1351813D01*
X1087281Y1350873D01*
X1087093Y1350497D01*
X1086905Y1350215D01*
X1086717Y1350027D01*
Y1349933D01*
X1086153Y1348900D01*
X1085589Y1347678D01*
X1084743Y1345234D01*
X1084179Y1342603D01*
X1083709Y1340065D01*
X1083615Y1338938D01*
X1083521Y1337810D01*
X1083427Y1336870D01*
Y1336024D01*
X1083333Y1335272D01*
Y1334803D01*
Y1334427D01*
Y1334333D01*
X1083427Y1331701D01*
X1083615Y1329258D01*
X1083897Y1327096D01*
X1084179Y1325217D01*
X1084367Y1324465D01*
X1084555Y1323807D01*
X1084743Y1323149D01*
X1084837Y1322679D01*
X1084931Y1322303D01*
X1085025Y1322021D01*
X1085119Y1321833D01*
Y1321739D01*
X1085777Y1319954D01*
X1086529Y1318356D01*
X1087375Y1316946D01*
X1088126Y1315725D01*
X1088784Y1314785D01*
X1089348Y1314127D01*
X1089724Y1313751D01*
X1089818Y1313563D01*
X1090758Y1312811D01*
X1091698Y1312153D01*
X1092637Y1311589D01*
X1093577Y1311026D01*
X1094423Y1310650D01*
X1095081Y1310368D01*
X1095551Y1310274D01*
X1095739Y1310180D01*
X1097148Y1309804D01*
X1098840Y1309522D01*
X1100532Y1309334D01*
X1102129Y1309240D01*
X1103539Y1309146D01*
X1104197Y1309052D01*
X1119610D01*
Y1358673D01*
D02*
G37*
G36*
X823878Y1009418D02*
X808841D01*
X807619Y1009324D01*
X806398D01*
X805270Y1009230D01*
X803390Y1008948D01*
X801887Y1008760D01*
X800665Y1008478D01*
X799819Y1008196D01*
X799349Y1008102D01*
X799161Y1008008D01*
X797470Y1007162D01*
X795872Y1006129D01*
X794462Y1004907D01*
X793240Y1003685D01*
X792301Y1002557D01*
X791549Y1001618D01*
X791361Y1001242D01*
X791173Y1000960D01*
X790985Y1000772D01*
Y1000678D01*
X790421Y999644D01*
X789857Y998422D01*
X789011Y995979D01*
X788447Y993347D01*
X787978Y990810D01*
X787884Y989682D01*
X787790Y988554D01*
X787696Y987614D01*
Y986769D01*
X787602Y986017D01*
Y985547D01*
Y985171D01*
Y985077D01*
X787696Y982446D01*
X787884Y980002D01*
X788166Y977841D01*
X788447Y975961D01*
X788635Y975209D01*
X788823Y974551D01*
X789011Y973893D01*
X789105Y973424D01*
X789199Y973048D01*
X789293Y972766D01*
X789387Y972578D01*
Y972484D01*
X790045Y970698D01*
X790797Y969100D01*
X791643Y967691D01*
X792395Y966469D01*
X793053Y965529D01*
X793616Y964871D01*
X793992Y964495D01*
X794086Y964307D01*
X795026Y963556D01*
X795966Y962898D01*
X796906Y962334D01*
X797845Y961770D01*
X798691Y961394D01*
X799349Y961112D01*
X799819Y961018D01*
X800007Y960924D01*
X801417Y960548D01*
X803108Y960266D01*
X804800Y960078D01*
X806398Y959984D01*
X807807Y959890D01*
X808465Y959796D01*
X823878D01*
Y1009418D01*
D02*
G37*
G36*
X744653Y1004155D02*
Y975021D01*
X765140D01*
X744653Y1004155D01*
D02*
G37*
G36*
X1625748Y802675D02*
X1625372D01*
X1625184D01*
X1625090D01*
X1622647Y802487D01*
X1620485Y802111D01*
X1618700Y801547D01*
X1617196Y800889D01*
X1615974Y800138D01*
X1615129Y799574D01*
X1614565Y799198D01*
X1614377Y799010D01*
X1613061Y797600D01*
X1612121Y796096D01*
X1611463Y794593D01*
X1610993Y793089D01*
X1610712Y791867D01*
X1610618Y790834D01*
X1610524Y790458D01*
Y789894D01*
X1610712Y787920D01*
X1611087Y786135D01*
X1611745Y784537D01*
X1612497Y783127D01*
X1613155Y782093D01*
X1613813Y781248D01*
X1614189Y780778D01*
X1614377Y780590D01*
X1615880Y779368D01*
X1617572Y778428D01*
X1619264Y777864D01*
X1620861Y777394D01*
X1622271Y777112D01*
X1622835Y777019D01*
X1623399D01*
X1623869Y776925D01*
X1624151D01*
X1624339D01*
X1624433D01*
X1626876Y777112D01*
X1629132Y777488D01*
X1631105Y778146D01*
X1632703Y778898D01*
X1634019Y779556D01*
X1634958Y780214D01*
X1635240Y780402D01*
X1635522Y780590D01*
X1635616Y780778D01*
X1635710D01*
X1636462Y781530D01*
X1637214Y782281D01*
X1638248Y783879D01*
X1639093Y785477D01*
X1639563Y786980D01*
X1639939Y788202D01*
X1640033Y789236D01*
X1640127Y789612D01*
Y791116D01*
X1639939Y792055D01*
X1639469Y793747D01*
X1638812Y795251D01*
X1638154Y796566D01*
X1637402Y797600D01*
X1636744Y798352D01*
X1636274Y798822D01*
X1636180Y799010D01*
X1636086D01*
X1634488Y800232D01*
X1632703Y801171D01*
X1630823Y801829D01*
X1629038Y802205D01*
X1627534Y802487D01*
X1626876Y802581D01*
X1626218D01*
X1625748Y802675D01*
D02*
G37*
G36*
X1983910Y-129276D02*
X1983064D01*
X1982594D01*
X1982500D01*
X1982406D01*
X1979493D01*
X1976861Y-129464D01*
X1974512Y-129652D01*
X1972256Y-129840D01*
X1970377Y-130122D01*
X1968591Y-130498D01*
X1967088Y-130873D01*
X1965678Y-131155D01*
X1964550Y-131531D01*
X1963610Y-131907D01*
X1962764Y-132189D01*
X1962107Y-132565D01*
X1961637Y-132753D01*
X1961355Y-132941D01*
X1961167Y-133129D01*
X1961073D01*
X1960133Y-133881D01*
X1959381Y-134633D01*
X1958629Y-135385D01*
X1958065Y-136136D01*
X1957126Y-137734D01*
X1956468Y-139144D01*
X1956092Y-140459D01*
X1955904Y-141399D01*
X1955810Y-141775D01*
Y-142339D01*
X1955904Y-143373D01*
X1955998Y-144313D01*
X1956656Y-146098D01*
X1957502Y-147696D01*
X1958441Y-149106D01*
X1959381Y-150139D01*
X1960227Y-150985D01*
X1960885Y-151455D01*
X1960979Y-151643D01*
X1961073D01*
X1962201Y-152301D01*
X1963516Y-152865D01*
X1965020Y-153429D01*
X1966618Y-153805D01*
X1968309Y-154181D01*
X1970095Y-154462D01*
X1973760Y-154932D01*
X1975452Y-155120D01*
X1977049Y-155214D01*
X1978553Y-155308D01*
X1979775D01*
X1980903Y-155402D01*
X1981748D01*
X1982218D01*
X1982406D01*
X1985320Y-155308D01*
X1987951Y-155214D01*
X1990395Y-155026D01*
X1992650Y-154744D01*
X1994624Y-154462D01*
X1996409Y-154087D01*
X1998007Y-153711D01*
X1999417Y-153335D01*
X2000638Y-152959D01*
X2001672Y-152677D01*
X2002518Y-152301D01*
X2003270Y-152019D01*
X2003740Y-151737D01*
X2004116Y-151549D01*
X2004304Y-151361D01*
X2004398D01*
X2005243Y-150703D01*
X2005995Y-150045D01*
X2006559Y-149294D01*
X2007123Y-148542D01*
X2007969Y-147038D01*
X2008533Y-145628D01*
X2008815Y-144407D01*
X2009003Y-143373D01*
X2009097Y-142997D01*
Y-142433D01*
X2009003Y-141399D01*
X2008909Y-140365D01*
X2008627Y-139426D01*
X2008251Y-138580D01*
X2007405Y-136982D01*
X2006465Y-135573D01*
X2005431Y-134539D01*
X2004586Y-133693D01*
X2004210Y-133411D01*
X2003928Y-133223D01*
X2003834Y-133035D01*
X2003740D01*
X2002612Y-132377D01*
X2001296Y-131813D01*
X1999793Y-131249D01*
X1998195Y-130873D01*
X1996503Y-130498D01*
X1994718Y-130216D01*
X1991146Y-129746D01*
X1989361Y-129558D01*
X1987763Y-129464D01*
X1986259Y-129370D01*
X1985038D01*
X1983910Y-129276D01*
D02*
G37*
G36*
X-1986405Y-98122D02*
X-2015539D01*
Y-118610D01*
X-1986405Y-98122D01*
D02*
G37*
G36*
X-2305843Y-315535D02*
X-2326331D01*
X-2328868Y-315629D01*
X-2331030Y-316005D01*
X-2332909Y-316475D01*
X-2334319Y-317038D01*
X-2335541Y-317602D01*
X-2336293Y-318072D01*
X-2336762Y-318448D01*
X-2336950Y-318542D01*
X-2338078Y-319764D01*
X-2338924Y-320986D01*
X-2339488Y-322301D01*
X-2339958Y-323429D01*
X-2340146Y-324557D01*
X-2340240Y-325403D01*
X-2340334Y-325967D01*
Y-326061D01*
Y-326155D01*
X-2340240Y-327282D01*
X-2340052Y-328410D01*
X-2339770Y-329350D01*
X-2339488Y-330196D01*
X-2339112Y-330948D01*
X-2338830Y-331511D01*
X-2338642Y-331887D01*
X-2338548Y-331981D01*
X-2337890Y-332921D01*
X-2337044Y-333767D01*
X-2336199Y-334425D01*
X-2335353Y-334989D01*
X-2334601Y-335365D01*
X-2334037Y-335647D01*
X-2333661Y-335834D01*
X-2333473Y-335928D01*
X-2332157Y-336304D01*
X-2330654Y-336586D01*
X-2329150Y-336774D01*
X-2327646Y-336868D01*
X-2326331Y-336962D01*
X-2325203Y-337056D01*
X-2305843D01*
Y-315535D01*
D02*
G37*
G36*
X-2435535Y-321268D02*
Y-350401D01*
X-2415048D01*
X-2435535Y-321268D01*
D02*
G37*
G36*
X-2613482Y-611156D02*
X-2632842D01*
Y-632678D01*
X-2612354D01*
X-2609817Y-632584D01*
X-2607655Y-632208D01*
X-2605776Y-631738D01*
X-2604366Y-631174D01*
X-2603144Y-630610D01*
X-2602393Y-630140D01*
X-2601923Y-629764D01*
X-2601735Y-629670D01*
X-2600607Y-628449D01*
X-2599761Y-627227D01*
X-2599197Y-625911D01*
X-2598727Y-624783D01*
X-2598539Y-623656D01*
X-2598445Y-622810D01*
X-2598351Y-622246D01*
Y-622152D01*
Y-622058D01*
X-2598445Y-620930D01*
X-2598633Y-619802D01*
X-2598915Y-618863D01*
X-2599197Y-618017D01*
X-2599573Y-617265D01*
X-2599855Y-616701D01*
X-2600043Y-616325D01*
X-2600137Y-616231D01*
X-2600795Y-615291D01*
X-2601641Y-614446D01*
X-2602487Y-613788D01*
X-2603332Y-613224D01*
X-2604084Y-612848D01*
X-2604648Y-612566D01*
X-2605024Y-612378D01*
X-2605212Y-612284D01*
X-2606528Y-611908D01*
X-2608031Y-611626D01*
X-2609535Y-611438D01*
X-2611039Y-611344D01*
X-2612354Y-611250D01*
X-2613482Y-611156D01*
D02*
G37*
G36*
X-2340640Y588454D02*
X-2360188D01*
Y573042D01*
X-2360000Y570974D01*
X-2359906Y569376D01*
X-2359718Y567967D01*
X-2359530Y566933D01*
X-2359436Y566275D01*
X-2359248Y565805D01*
Y565711D01*
X-2358872Y564677D01*
X-2358308Y563738D01*
X-2357744Y562986D01*
X-2357180Y562328D01*
X-2356711Y561858D01*
X-2356241Y561482D01*
X-2355959Y561294D01*
X-2355865Y561200D01*
X-2354925Y560636D01*
X-2353985Y560260D01*
X-2353045Y559978D01*
X-2352106Y559790D01*
X-2351354Y559696D01*
X-2350790Y559602D01*
X-2350414D01*
X-2350226D01*
X-2349004Y559696D01*
X-2347876Y559884D01*
X-2346937Y560166D01*
X-2346185Y560448D01*
X-2345527Y560730D01*
X-2344963Y561012D01*
X-2344681Y561200D01*
X-2344587Y561294D01*
X-2343835Y561952D01*
X-2343083Y562798D01*
X-2342520Y563644D01*
X-2342144Y564395D01*
X-2341768Y565147D01*
X-2341486Y565711D01*
X-2341392Y566087D01*
X-2341298Y566275D01*
X-2341110Y567309D01*
X-2340922Y568624D01*
X-2340828Y569940D01*
X-2340734Y571256D01*
X-2340640Y572478D01*
Y588454D01*
D02*
G37*
G36*
X-2310566D02*
X-2332934D01*
Y571350D01*
X-2332746Y569376D01*
X-2332558Y567779D01*
X-2332370Y566463D01*
X-2332182Y565429D01*
X-2331994Y564583D01*
X-2331900Y564207D01*
X-2331806Y564019D01*
X-2331336Y562798D01*
X-2330772Y561764D01*
X-2330114Y560824D01*
X-2329456Y560072D01*
X-2328892Y559508D01*
X-2328423Y559132D01*
X-2328047Y558851D01*
X-2327953Y558757D01*
X-2326919Y558099D01*
X-2325885Y557629D01*
X-2324851Y557253D01*
X-2323912Y557065D01*
X-2323066Y556877D01*
X-2322314Y556783D01*
X-2321938D01*
X-2321750D01*
X-2320622Y556877D01*
X-2319494Y556971D01*
X-2318555Y557159D01*
X-2317803Y557441D01*
X-2317145Y557723D01*
X-2316581Y557911D01*
X-2316299Y558005D01*
X-2316205Y558099D01*
X-2315359Y558663D01*
X-2314608Y559132D01*
X-2314044Y559790D01*
X-2313480Y560260D01*
X-2313104Y560730D01*
X-2312822Y561106D01*
X-2312634Y561388D01*
X-2312540Y561482D01*
X-2311788Y563080D01*
X-2311224Y564677D01*
X-2311036Y565335D01*
X-2310942Y565899D01*
X-2310848Y566275D01*
Y566369D01*
X-2310754Y567121D01*
X-2310660Y567967D01*
X-2310566Y569940D01*
Y588454D01*
D02*
G37*
G36*
X-2662349Y1022130D02*
X-2711971D01*
Y1007093D01*
X-2711877Y1005871D01*
Y1004649D01*
X-2711783Y1003521D01*
X-2711501Y1001642D01*
X-2711313Y1000138D01*
X-2711031Y998916D01*
X-2710749Y998071D01*
X-2710655Y997601D01*
X-2710561Y997413D01*
X-2709715Y995721D01*
X-2708681Y994123D01*
X-2707460Y992714D01*
X-2706238Y991492D01*
X-2705110Y990552D01*
X-2704170Y989800D01*
X-2703794Y989612D01*
X-2703513Y989424D01*
X-2703325Y989237D01*
X-2703231D01*
X-2702197Y988673D01*
X-2700975Y988109D01*
X-2698532Y987263D01*
X-2695900Y986699D01*
X-2693363Y986229D01*
X-2692235Y986135D01*
X-2691107Y986041D01*
X-2690167Y985947D01*
X-2689322D01*
X-2688570Y985853D01*
X-2688100D01*
X-2687724D01*
X-2687630D01*
X-2684998Y985947D01*
X-2682555Y986135D01*
X-2680393Y986417D01*
X-2678514Y986699D01*
X-2677762Y986887D01*
X-2677104Y987075D01*
X-2676446Y987263D01*
X-2675976Y987357D01*
X-2675600Y987451D01*
X-2675318Y987545D01*
X-2675131Y987639D01*
X-2675037D01*
X-2673251Y988297D01*
X-2671653Y989049D01*
X-2670244Y989894D01*
X-2669022Y990646D01*
X-2668082Y991304D01*
X-2667424Y991868D01*
X-2667048Y992244D01*
X-2666860Y992338D01*
X-2666108Y993278D01*
X-2665451Y994217D01*
X-2664887Y995157D01*
X-2664323Y996097D01*
X-2663947Y996943D01*
X-2663665Y997601D01*
X-2663571Y998071D01*
X-2663477Y998259D01*
X-2663101Y999668D01*
X-2662819Y1001360D01*
X-2662631Y1003052D01*
X-2662537Y1004649D01*
X-2662443Y1006059D01*
X-2662349Y1006717D01*
Y1022130D01*
D02*
G37*
G36*
X-2675037Y959633D02*
X-2675506D01*
X-2675694D01*
X-2677950Y959445D01*
X-2679924Y959069D01*
X-2681709Y958411D01*
X-2683119Y957753D01*
X-2684341Y957095D01*
X-2685186Y956438D01*
X-2685656Y956062D01*
X-2685844Y955874D01*
X-2687160Y954370D01*
X-2688100Y952866D01*
X-2688852Y951269D01*
X-2689322Y949859D01*
X-2689603Y948543D01*
X-2689697Y947603D01*
X-2689791Y947227D01*
Y946664D01*
X-2689603Y944690D01*
X-2689134Y942904D01*
X-2688570Y941401D01*
X-2687818Y940085D01*
X-2687066Y939051D01*
X-2686502Y938299D01*
X-2686032Y937829D01*
X-2685844Y937642D01*
X-2684247Y936420D01*
X-2682555Y935480D01*
X-2680769Y934822D01*
X-2679078Y934446D01*
X-2677574Y934164D01*
X-2676916Y934070D01*
X-2676352D01*
X-2675882Y933976D01*
X-2675506D01*
X-2675318D01*
X-2675225D01*
X-2672687Y934164D01*
X-2670526Y934540D01*
X-2668646Y935104D01*
X-2667048Y935762D01*
X-2665827Y936514D01*
X-2664887Y937078D01*
X-2664323Y937454D01*
X-2664229Y937642D01*
X-2664135D01*
X-2663383Y938299D01*
X-2662819Y939051D01*
X-2661785Y940555D01*
X-2661128Y942059D01*
X-2660564Y943374D01*
X-2660282Y944596D01*
X-2660188Y945536D01*
X-2660094Y945912D01*
Y946382D01*
X-2660188Y947697D01*
X-2660376Y948919D01*
X-2660752Y950047D01*
X-2661128Y950987D01*
X-2661409Y951832D01*
X-2661785Y952490D01*
X-2661973Y952866D01*
X-2662067Y953054D01*
X-2662913Y954182D01*
X-2663759Y955122D01*
X-2664793Y955968D01*
X-2665639Y956625D01*
X-2666484Y957189D01*
X-2667142Y957565D01*
X-2667612Y957847D01*
X-2667800Y957941D01*
X-2669210Y958505D01*
X-2670620Y958881D01*
X-2671935Y959257D01*
X-2673157Y959445D01*
X-2674191Y959539D01*
X-2675037Y959633D01*
D02*
G37*
%LPD*%
D61*
X1958806Y-1081083D02*
G03*
X1958806Y-1081083I-12500J0D01*
G01*
X900938Y-431719D02*
G03*
X900938Y-431719I-12500J0D01*
G01*
X1267105Y1326044D02*
G03*
X1267105Y1326044I-12500J0D01*
G01*
X628054Y745086D02*
G03*
X628054Y745086I-12500J0D01*
G01*
X-1874116Y203101D02*
G03*
X-1874116Y203101I-12500J0D01*
G01*
D62*
X623543Y514221D02*
Y645438D01*
X758539Y514221D02*
Y645438D01*
X72698Y-248292D02*
X203909D01*
X72698Y-113291D02*
X203909D01*
X1495134Y-1411784D02*
Y-1264535D01*
X1632380Y-1411784D02*
Y-1264535D01*
X1680701Y-1231079D02*
X1880701D01*
X1680701Y-1031074D02*
X1880701D01*
X2260888Y-833081D02*
Y-542464D01*
X2070266Y-833081D02*
Y-542464D01*
X1752111Y-348937D02*
Y-58315D01*
X1942727Y-348937D02*
Y-58315D01*
X1302805Y581110D02*
Y862323D01*
X1519020Y581110D02*
Y862323D01*
X733438Y-769215D02*
Y-459218D01*
X803436Y-769215D02*
Y-459218D01*
X733438Y-769215D02*
X803436D01*
X733438Y-459218D02*
X803436D01*
X1169104Y1130044D02*
Y1290044D01*
X1013103D02*
X1169104D01*
X1013103Y1130044D02*
X1169104D01*
X1013103D02*
Y1290044D01*
X701059Y781089D02*
Y941089D01*
Y781089D02*
X857055D01*
X701059Y941089D02*
X857055D01*
Y781089D02*
Y941089D01*
X-215135Y-194118D02*
Y-26875D01*
X-362384Y-194118D02*
Y-26875D01*
X-2621739Y555486D02*
Y811788D01*
X-2751741Y636787D02*
Y811788D01*
X-2536420Y476553D02*
Y651554D01*
X-2380221Y478819D02*
Y653820D01*
D63*
X-1784133Y342639D02*
X-1774131D01*
X-1754131D02*
X-1744133D01*
X-1754131Y322639D02*
Y362639D01*
X-1774131Y322639D02*
Y362639D01*
D64*
X-1869132Y397641D02*
X-1661629D01*
X-1866633Y287643D02*
X-1661629D01*
D66*
X2954397Y534011D02*
X2802030D01*
X2954397Y432432D02*
X2802030D01*
X2881841Y534011D02*
Y432432D01*
X2954397Y346816D02*
X2947141Y368583D01*
X2925375Y383094D01*
X2889097Y390350D01*
X2867330D01*
X2831052Y383094D01*
X2809285Y368583D01*
X2802030Y346816D01*
Y332305D01*
X2809285Y310539D01*
X2831052Y296027D01*
X2867330Y288772D01*
X2889097D01*
X2925375Y296027D01*
X2947141Y310539D01*
X2954397Y332305D01*
Y346816D01*
Y167603D02*
Y240159D01*
X2889097Y247415D01*
X2896352Y240159D01*
X2903608Y218393D01*
Y196626D01*
X2896352Y174859D01*
X2881841Y160348D01*
X2860074Y153092D01*
X2845563D01*
X2823796Y160348D01*
X2809285Y174859D01*
X2802030Y196626D01*
Y218393D01*
X2809285Y240159D01*
X2816541Y247415D01*
X2831052Y254671D01*
X2954397Y118991D02*
X2802030D01*
X2954397D02*
Y53691D01*
X2947141Y31924D01*
X2939886Y24668D01*
X2925375Y17413D01*
X2910864D01*
X2896352Y24668D01*
X2889097Y31924D01*
X2881841Y53691D01*
Y118991D01*
Y68202D02*
X2802030Y17413D01*
X2918119Y-23944D02*
X2925375D01*
X2939886Y-31200D01*
X2947141Y-38455D01*
X2954397Y-52966D01*
Y-81989D01*
X2947141Y-96500D01*
X2939886Y-103755D01*
X2925375Y-111011D01*
X2910864D01*
X2896352Y-103755D01*
X2874586Y-89244D01*
X2802030Y-16688D01*
Y-118266D01*
X2903608Y-152368D02*
X2802030Y-232179D01*
X2903608D02*
X2802030Y-152368D01*
X-2499360Y-24895D02*
X-2582074D01*
X-2609645Y-15704D01*
X-2618835Y-6514D01*
X-2628026Y11867D01*
Y39438D01*
X-2618835Y57819D01*
X-2609645Y67010D01*
X-2582074Y76200D01*
X-2499360D01*
Y-116799D01*
X-2781506Y76200D02*
X-2689601D01*
X-2680411Y-6514D01*
X-2689601Y2677D01*
X-2717173Y11867D01*
X-2744744D01*
X-2772315Y2677D01*
X-2790696Y-15704D01*
X-2799886Y-43275D01*
Y-61656D01*
X-2790696Y-89227D01*
X-2772315Y-107608D01*
X-2744744Y-116799D01*
X-2717173D01*
X-2689601Y-107608D01*
X-2680411Y-98418D01*
X-2671221Y-80037D01*
X-1076960Y-1193295D02*
X-1159674D01*
X-1187245Y-1184104D01*
X-1196435Y-1174914D01*
X-1205626Y-1156533D01*
Y-1128962D01*
X-1196435Y-1110581D01*
X-1187245Y-1101390D01*
X-1159674Y-1092200D01*
X-1076960D01*
Y-1285199D01*
X-1267201Y-1092200D02*
X-1368296D01*
X-1313154Y-1165723D01*
X-1340725D01*
X-1359106Y-1174914D01*
X-1368296Y-1184104D01*
X-1377486Y-1211675D01*
Y-1230056D01*
X-1368296Y-1257627D01*
X-1349915Y-1276008D01*
X-1322344Y-1285199D01*
X-1294773D01*
X-1267201Y-1276008D01*
X-1258011Y-1266818D01*
X-1248821Y-1248437D01*
X-568960Y940305D02*
X-651674D01*
X-679245Y949496D01*
X-688435Y958686D01*
X-697626Y977067D01*
Y1004638D01*
X-688435Y1023019D01*
X-679245Y1032210D01*
X-651674Y1041400D01*
X-568960D01*
Y848401D01*
X-750011Y995448D02*
Y1004638D01*
X-759201Y1023019D01*
X-768392Y1032210D01*
X-786773Y1041400D01*
X-823535D01*
X-841915Y1032210D01*
X-851106Y1023019D01*
X-860296Y1004638D01*
Y986258D01*
X-851106Y967877D01*
X-832725Y940305D01*
X-740821Y848401D01*
X-869486D01*
X-958634Y1041400D02*
Y931115D01*
X-912681Y1013829D02*
X-1004585Y958686D01*
Y1013829D02*
X-912681Y958686D01*
X-1803400Y1143505D02*
X-1886114D01*
X-1913685Y1152696D01*
X-1922875Y1161886D01*
X-1932066Y1180267D01*
Y1207838D01*
X-1922875Y1226219D01*
X-1913685Y1235410D01*
X-1886114Y1244600D01*
X-1803400D01*
Y1051601D01*
X-1975261Y1207838D02*
X-1993641Y1217029D01*
X-2021213Y1244600D01*
Y1051601D01*
X-2092960Y-939295D02*
X-2175674D01*
X-2203245Y-930104D01*
X-2212435Y-920914D01*
X-2221626Y-902533D01*
Y-874962D01*
X-2212435Y-856581D01*
X-2203245Y-847390D01*
X-2175674Y-838200D01*
X-2092960D01*
Y-1031199D01*
X-2356725Y-838200D02*
X-2264821Y-966866D01*
X-2402677D01*
X-2356725Y-838200D02*
Y-1031199D01*
D67*
X2696645Y-832029D02*
X2692775Y-843638D01*
Y-820420D01*
X2696645Y-832029D01*
X2704384Y-824289D01*
X2715993Y-820420D01*
X2723732D01*
X2735341Y-824289D01*
X2743081Y-832029D01*
X2746950Y-839768D01*
X2750820Y-851377D01*
Y-870725D01*
X2746950Y-882334D01*
X2743081Y-890074D01*
X2735341Y-897813D01*
X2723732Y-901682D01*
X2715993D01*
X2704384Y-897813D01*
X2696645Y-890074D01*
X2723732Y-820420D02*
X2731472Y-824289D01*
X2739211Y-832029D01*
X2743081Y-839768D01*
X2746950Y-851377D01*
Y-870725D01*
X2743081Y-882334D01*
X2739211Y-890074D01*
X2731472Y-897813D01*
X2723732Y-901682D01*
X2696645Y-870725D02*
Y-901682D01*
X2692775Y-870725D02*
Y-901682D01*
X2708254Y-870725D02*
X2681166D01*
X2659109Y-820420D02*
Y-901682D01*
X2655240Y-820420D02*
X2608804Y-893943D01*
X2655240Y-828159D02*
X2608804Y-901682D01*
Y-820420D02*
Y-901682D01*
X2670718Y-820420D02*
X2655240D01*
X2620413D02*
X2597195D01*
X2670718Y-901682D02*
X2647500D01*
X2575525Y-820420D02*
Y-901682D01*
X2571656Y-820420D02*
Y-901682D01*
X2587134Y-820420D02*
X2548438D01*
X2536829Y-824289D01*
X2529089Y-832029D01*
X2525220Y-839768D01*
X2521350Y-851377D01*
Y-870725D01*
X2525220Y-882334D01*
X2529089Y-890074D01*
X2536829Y-897813D01*
X2548438Y-901682D01*
X2587134D01*
X2548438Y-820420D02*
X2540698Y-824289D01*
X2532959Y-832029D01*
X2529089Y-839768D01*
X2525220Y-851377D01*
Y-870725D01*
X2529089Y-882334D01*
X2532959Y-890074D01*
X2540698Y-897813D01*
X2548438Y-901682D01*
X2696645Y895171D02*
X2692775Y883562D01*
Y906780D01*
X2696645Y895171D01*
X2704384Y902911D01*
X2715993Y906780D01*
X2723732D01*
X2735341Y902911D01*
X2743081Y895171D01*
X2746950Y887432D01*
X2750820Y875823D01*
Y856475D01*
X2746950Y844866D01*
X2743081Y837126D01*
X2735341Y829387D01*
X2723732Y825518D01*
X2715993D01*
X2704384Y829387D01*
X2696645Y837126D01*
X2723732Y906780D02*
X2731472Y902911D01*
X2739211Y895171D01*
X2743081Y887432D01*
X2746950Y875823D01*
Y856475D01*
X2743081Y844866D01*
X2739211Y837126D01*
X2731472Y829387D01*
X2723732Y825518D01*
X2696645Y856475D02*
Y825518D01*
X2692775Y856475D02*
Y825518D01*
X2708254Y856475D02*
X2681166D01*
X2659109Y906780D02*
Y825518D01*
X2655240Y906780D02*
X2608804Y833257D01*
X2655240Y899041D02*
X2608804Y825518D01*
Y906780D02*
Y825518D01*
X2670718Y906780D02*
X2655240D01*
X2620413D02*
X2597195D01*
X2670718Y825518D02*
X2647500D01*
X2575525Y906780D02*
Y825518D01*
X2571656Y906780D02*
Y825518D01*
X2587134Y906780D02*
X2548438D01*
X2536829Y902911D01*
X2529089Y895171D01*
X2525220Y887432D01*
X2521350Y875823D01*
Y856475D01*
X2525220Y844866D01*
X2529089Y837126D01*
X2536829Y829387D01*
X2548438Y825518D01*
X2587134D01*
X2548438Y906780D02*
X2540698Y902911D01*
X2532959Y895171D01*
X2529089Y887432D01*
X2525220Y875823D01*
Y856475D01*
X2529089Y844866D01*
X2532959Y837126D01*
X2540698Y829387D01*
X2548438Y825518D01*
X1408865Y-1503841D02*
X1412734Y-1492231D01*
Y-1515449D01*
X1408865Y-1503841D01*
X1401125Y-1511580D01*
X1389516Y-1515449D01*
X1381777D01*
X1370168Y-1511580D01*
X1362429Y-1503841D01*
X1358559Y-1496101D01*
X1354689Y-1484492D01*
Y-1465144D01*
X1358559Y-1453535D01*
X1362429Y-1445796D01*
X1370168Y-1438057D01*
X1381777Y-1434187D01*
X1389516D01*
X1401125Y-1438057D01*
X1408865Y-1445796D01*
X1381777Y-1515449D02*
X1374038Y-1511580D01*
X1366298Y-1503841D01*
X1362429Y-1496101D01*
X1358559Y-1484492D01*
Y-1465144D01*
X1362429Y-1453535D01*
X1366298Y-1445796D01*
X1374038Y-1438057D01*
X1381777Y-1434187D01*
X1408865Y-1465144D02*
Y-1434187D01*
X1412734Y-1465144D02*
Y-1434187D01*
X1397256Y-1465144D02*
X1424343D01*
X1446400Y-1515449D02*
Y-1434187D01*
X1450270Y-1515449D02*
X1496705Y-1441926D01*
X1450270Y-1507710D02*
X1496705Y-1434187D01*
Y-1515449D02*
Y-1434187D01*
X1434791Y-1515449D02*
X1450270D01*
X1485097D02*
X1508314D01*
X1434791Y-1434187D02*
X1458009D01*
X1529984Y-1515449D02*
Y-1434187D01*
X1533854Y-1515449D02*
Y-1434187D01*
X1518375Y-1515449D02*
X1557072D01*
X1568681Y-1511580D01*
X1576420Y-1503841D01*
X1580290Y-1496101D01*
X1584159Y-1484492D01*
Y-1465144D01*
X1580290Y-1453535D01*
X1576420Y-1445796D01*
X1568681Y-1438057D01*
X1557072Y-1434187D01*
X1518375D01*
X1557072Y-1515449D02*
X1564811Y-1511580D01*
X1572551Y-1503841D01*
X1576420Y-1496101D01*
X1580290Y-1484492D01*
Y-1465144D01*
X1576420Y-1453535D01*
X1572551Y-1445796D01*
X1564811Y-1438057D01*
X1557072Y-1434187D01*
X1448635Y1441629D02*
X1452505Y1453238D01*
Y1430020D01*
X1448635Y1441629D01*
X1440896Y1433889D01*
X1429287Y1430020D01*
X1421548D01*
X1409939Y1433889D01*
X1402199Y1441629D01*
X1398330Y1449368D01*
X1394460Y1460977D01*
Y1480325D01*
X1398330Y1491934D01*
X1402199Y1499674D01*
X1409939Y1507413D01*
X1421548Y1511282D01*
X1429287D01*
X1440896Y1507413D01*
X1448635Y1499674D01*
X1421548Y1430020D02*
X1413808Y1433889D01*
X1406069Y1441629D01*
X1402199Y1449368D01*
X1398330Y1460977D01*
Y1480325D01*
X1402199Y1491934D01*
X1406069Y1499674D01*
X1413808Y1507413D01*
X1421548Y1511282D01*
X1448635Y1480325D02*
Y1511282D01*
X1452505Y1480325D02*
Y1511282D01*
X1437026Y1480325D02*
X1464114D01*
X1486171Y1430020D02*
Y1511282D01*
X1490040Y1430020D02*
X1536476Y1503543D01*
X1490040Y1437759D02*
X1536476Y1511282D01*
Y1430020D02*
Y1511282D01*
X1474562Y1430020D02*
X1490040D01*
X1524867D02*
X1548085D01*
X1474562Y1511282D02*
X1497780D01*
X1569755Y1430020D02*
Y1511282D01*
X1573624Y1430020D02*
Y1511282D01*
X1558146Y1430020D02*
X1596842D01*
X1608451Y1433889D01*
X1616191Y1441629D01*
X1620060Y1449368D01*
X1623930Y1460977D01*
Y1480325D01*
X1620060Y1491934D01*
X1616191Y1499674D01*
X1608451Y1507413D01*
X1596842Y1511282D01*
X1558146D01*
X1596842Y1430020D02*
X1604582Y1433889D01*
X1612321Y1441629D01*
X1616191Y1449368D01*
X1620060Y1460977D01*
Y1480325D01*
X1616191Y1491934D01*
X1612321Y1499674D01*
X1604582Y1507413D01*
X1596842Y1511282D01*
X-75365Y-641171D02*
X-71495Y-629562D01*
Y-652780D01*
X-75365Y-641171D01*
X-83104Y-648911D01*
X-94713Y-652780D01*
X-102452D01*
X-114061Y-648911D01*
X-121801Y-641171D01*
X-125670Y-633432D01*
X-129540Y-621823D01*
Y-602475D01*
X-125670Y-590866D01*
X-121801Y-583126D01*
X-114061Y-575387D01*
X-102452Y-571518D01*
X-94713D01*
X-83104Y-575387D01*
X-75365Y-583126D01*
X-102452Y-652780D02*
X-110192Y-648911D01*
X-117931Y-641171D01*
X-121801Y-633432D01*
X-125670Y-621823D01*
Y-602475D01*
X-121801Y-590866D01*
X-117931Y-583126D01*
X-110192Y-575387D01*
X-102452Y-571518D01*
X-75365Y-602475D02*
Y-571518D01*
X-71495Y-602475D02*
Y-571518D01*
X-86974Y-602475D02*
X-59886D01*
X-37829Y-652780D02*
Y-571518D01*
X-33960Y-652780D02*
X12476Y-579257D01*
X-33960Y-645041D02*
X12476Y-571518D01*
Y-652780D02*
Y-571518D01*
X-49438Y-652780D02*
X-33960D01*
X867D02*
X24085D01*
X-49438Y-571518D02*
X-26220D01*
X45755Y-652780D02*
Y-571518D01*
X49624Y-652780D02*
Y-571518D01*
X34146Y-652780D02*
X72842D01*
X84451Y-648911D01*
X92191Y-641171D01*
X96060Y-633432D01*
X99930Y-621823D01*
Y-602475D01*
X96060Y-590866D01*
X92191Y-583126D01*
X84451Y-575387D01*
X72842Y-571518D01*
X34146D01*
X72842Y-652780D02*
X80582Y-648911D01*
X88321Y-641171D01*
X92191Y-633432D01*
X96060Y-621823D01*
Y-602475D01*
X92191Y-590866D01*
X88321Y-583126D01*
X80582Y-575387D01*
X72842Y-571518D01*
X-75365Y578029D02*
X-71495Y589638D01*
Y566420D01*
X-75365Y578029D01*
X-83104Y570289D01*
X-94713Y566420D01*
X-102452D01*
X-114061Y570289D01*
X-121801Y578029D01*
X-125670Y585768D01*
X-129540Y597377D01*
Y616725D01*
X-125670Y628334D01*
X-121801Y636074D01*
X-114061Y643813D01*
X-102452Y647682D01*
X-94713D01*
X-83104Y643813D01*
X-75365Y636074D01*
X-102452Y566420D02*
X-110192Y570289D01*
X-117931Y578029D01*
X-121801Y585768D01*
X-125670Y597377D01*
Y616725D01*
X-121801Y628334D01*
X-117931Y636074D01*
X-110192Y643813D01*
X-102452Y647682D01*
X-75365Y616725D02*
Y647682D01*
X-71495Y616725D02*
Y647682D01*
X-86974Y616725D02*
X-59886D01*
X-37829Y566420D02*
Y647682D01*
X-33960Y566420D02*
X12476Y639943D01*
X-33960Y574159D02*
X12476Y647682D01*
Y566420D02*
Y647682D01*
X-49438Y566420D02*
X-33960D01*
X867D02*
X24085D01*
X-49438Y647682D02*
X-26220D01*
X45755Y566420D02*
Y647682D01*
X49624Y566420D02*
Y647682D01*
X34146Y566420D02*
X72842D01*
X84451Y570289D01*
X92191Y578029D01*
X96060Y585768D01*
X99930Y597377D01*
Y616725D01*
X96060Y628334D01*
X92191Y636074D01*
X84451Y643813D01*
X72842Y647682D01*
X34146D01*
X72842Y566420D02*
X80582Y570289D01*
X88321Y578029D01*
X92191Y585768D01*
X96060Y597377D01*
Y616725D01*
X92191Y628334D01*
X88321Y636074D01*
X80582Y643813D01*
X72842Y647682D01*
X-1548565Y1441629D02*
X-1544695Y1453238D01*
Y1430020D01*
X-1548565Y1441629D01*
X-1556304Y1433889D01*
X-1567913Y1430020D01*
X-1575652D01*
X-1587261Y1433889D01*
X-1595001Y1441629D01*
X-1598870Y1449368D01*
X-1602740Y1460977D01*
Y1480325D01*
X-1598870Y1491934D01*
X-1595001Y1499674D01*
X-1587261Y1507413D01*
X-1575652Y1511282D01*
X-1567913D01*
X-1556304Y1507413D01*
X-1548565Y1499674D01*
X-1575652Y1430020D02*
X-1583392Y1433889D01*
X-1591131Y1441629D01*
X-1595001Y1449368D01*
X-1598870Y1460977D01*
Y1480325D01*
X-1595001Y1491934D01*
X-1591131Y1499674D01*
X-1583392Y1507413D01*
X-1575652Y1511282D01*
X-1548565Y1480325D02*
Y1511282D01*
X-1544695Y1480325D02*
Y1511282D01*
X-1560174Y1480325D02*
X-1533086D01*
X-1511029Y1430020D02*
Y1511282D01*
X-1507160Y1430020D02*
X-1460724Y1503543D01*
X-1507160Y1437759D02*
X-1460724Y1511282D01*
Y1430020D02*
Y1511282D01*
X-1522638Y1430020D02*
X-1507160D01*
X-1472333D02*
X-1449115D01*
X-1522638Y1511282D02*
X-1499420D01*
X-1427445Y1430020D02*
Y1511282D01*
X-1423576Y1430020D02*
Y1511282D01*
X-1439054Y1430020D02*
X-1400358D01*
X-1388749Y1433889D01*
X-1381009Y1441629D01*
X-1377140Y1449368D01*
X-1373270Y1460977D01*
Y1480325D01*
X-1377140Y1491934D01*
X-1381009Y1499674D01*
X-1388749Y1507413D01*
X-1400358Y1511282D01*
X-1439054D01*
X-1400358Y1430020D02*
X-1392618Y1433889D01*
X-1384879Y1441629D01*
X-1381009Y1449368D01*
X-1377140Y1460977D01*
Y1480325D01*
X-1381009Y1491934D01*
X-1384879Y1499674D01*
X-1392618Y1507413D01*
X-1400358Y1511282D01*
X-2876371Y649405D02*
X-2864762Y645535D01*
X-2887980D01*
X-2876371Y649405D01*
X-2884111Y657144D01*
X-2887980Y668753D01*
Y676492D01*
X-2884111Y688101D01*
X-2876371Y695841D01*
X-2868632Y699710D01*
X-2857023Y703580D01*
X-2837675D01*
X-2826066Y699710D01*
X-2818326Y695841D01*
X-2810587Y688101D01*
X-2806718Y676492D01*
Y668753D01*
X-2810587Y657144D01*
X-2818326Y649405D01*
X-2887980Y676492D02*
X-2884111Y684232D01*
X-2876371Y691971D01*
X-2868632Y695841D01*
X-2857023Y699710D01*
X-2837675D01*
X-2826066Y695841D01*
X-2818326Y691971D01*
X-2810587Y684232D01*
X-2806718Y676492D01*
X-2837675Y649405D02*
X-2806718D01*
X-2837675Y645535D02*
X-2806718D01*
X-2837675Y661014D02*
Y633926D01*
X-2887980Y611869D02*
X-2806718D01*
X-2887980Y608000D02*
X-2814457Y561564D01*
X-2880241Y608000D02*
X-2806718Y561564D01*
X-2887980D02*
X-2806718D01*
X-2887980Y623478D02*
Y608000D01*
Y573173D02*
Y549955D01*
X-2806718Y623478D02*
Y600260D01*
X-2887980Y528285D02*
X-2806718D01*
X-2887980Y524416D02*
X-2806718D01*
X-2887980Y539894D02*
Y501198D01*
X-2884111Y489589D01*
X-2876371Y481849D01*
X-2868632Y477980D01*
X-2857023Y474110D01*
X-2837675D01*
X-2826066Y477980D01*
X-2818326Y481849D01*
X-2810587Y489589D01*
X-2806718Y501198D01*
Y539894D01*
X-2887980Y501198D02*
X-2884111Y493458D01*
X-2876371Y485719D01*
X-2868632Y481849D01*
X-2857023Y477980D01*
X-2837675D01*
X-2826066Y481849D01*
X-2818326Y485719D01*
X-2810587Y493458D01*
X-2806718Y501198D01*
X-2586555Y-781229D02*
X-2590425Y-792838D01*
Y-769620D01*
X-2586555Y-781229D01*
X-2578816Y-773489D01*
X-2567207Y-769620D01*
X-2559468D01*
X-2547859Y-773489D01*
X-2540119Y-781229D01*
X-2536250Y-788968D01*
X-2532380Y-800577D01*
Y-819925D01*
X-2536250Y-831534D01*
X-2540119Y-839274D01*
X-2547859Y-847013D01*
X-2559468Y-850882D01*
X-2567207D01*
X-2578816Y-847013D01*
X-2586555Y-839274D01*
X-2559468Y-769620D02*
X-2551728Y-773489D01*
X-2543989Y-781229D01*
X-2540119Y-788968D01*
X-2536250Y-800577D01*
Y-819925D01*
X-2540119Y-831534D01*
X-2543989Y-839274D01*
X-2551728Y-847013D01*
X-2559468Y-850882D01*
X-2586555Y-819925D02*
Y-850882D01*
X-2590425Y-819925D02*
Y-850882D01*
X-2574946Y-819925D02*
X-2602034D01*
X-2624091Y-769620D02*
Y-850882D01*
X-2627960Y-769620D02*
X-2674396Y-843143D01*
X-2627960Y-777359D02*
X-2674396Y-850882D01*
Y-769620D02*
Y-850882D01*
X-2612482Y-769620D02*
X-2627960D01*
X-2662787D02*
X-2686005D01*
X-2612482Y-850882D02*
X-2635700D01*
X-2707675Y-769620D02*
Y-850882D01*
X-2711544Y-769620D02*
Y-850882D01*
X-2696066Y-769620D02*
X-2734762D01*
X-2746371Y-773489D01*
X-2754111Y-781229D01*
X-2757980Y-788968D01*
X-2761850Y-800577D01*
Y-819925D01*
X-2757980Y-831534D01*
X-2754111Y-839274D01*
X-2746371Y-847013D01*
X-2734762Y-850882D01*
X-2696066D01*
X-2734762Y-769620D02*
X-2742502Y-773489D01*
X-2750241Y-781229D01*
X-2754111Y-788968D01*
X-2757980Y-800577D01*
Y-819925D01*
X-2754111Y-831534D01*
X-2750241Y-839274D01*
X-2742502Y-847013D01*
X-2734762Y-850882D01*
X-1599365Y-1504771D02*
X-1595495Y-1493162D01*
Y-1516380D01*
X-1599365Y-1504771D01*
X-1607104Y-1512511D01*
X-1618713Y-1516380D01*
X-1626452D01*
X-1638061Y-1512511D01*
X-1645801Y-1504771D01*
X-1649670Y-1497032D01*
X-1653540Y-1485423D01*
Y-1466075D01*
X-1649670Y-1454466D01*
X-1645801Y-1446726D01*
X-1638061Y-1438987D01*
X-1626452Y-1435118D01*
X-1618713D01*
X-1607104Y-1438987D01*
X-1599365Y-1446726D01*
X-1626452Y-1516380D02*
X-1634192Y-1512511D01*
X-1641931Y-1504771D01*
X-1645801Y-1497032D01*
X-1649670Y-1485423D01*
Y-1466075D01*
X-1645801Y-1454466D01*
X-1641931Y-1446726D01*
X-1634192Y-1438987D01*
X-1626452Y-1435118D01*
X-1599365Y-1466075D02*
Y-1435118D01*
X-1595495Y-1466075D02*
Y-1435118D01*
X-1610974Y-1466075D02*
X-1583886D01*
X-1561829Y-1516380D02*
Y-1435118D01*
X-1557960Y-1516380D02*
X-1511524Y-1442857D01*
X-1557960Y-1508641D02*
X-1511524Y-1435118D01*
Y-1516380D02*
Y-1435118D01*
X-1573438Y-1516380D02*
X-1557960D01*
X-1523133D02*
X-1499915D01*
X-1573438Y-1435118D02*
X-1550220D01*
X-1478245Y-1516380D02*
Y-1435118D01*
X-1474376Y-1516380D02*
Y-1435118D01*
X-1489854Y-1516380D02*
X-1451158D01*
X-1439549Y-1512511D01*
X-1431809Y-1504771D01*
X-1427940Y-1497032D01*
X-1424070Y-1485423D01*
Y-1466075D01*
X-1427940Y-1454466D01*
X-1431809Y-1446726D01*
X-1439549Y-1438987D01*
X-1451158Y-1435118D01*
X-1489854D01*
X-1451158Y-1516380D02*
X-1443418Y-1512511D01*
X-1435679Y-1504771D01*
X-1431809Y-1497032D01*
X-1427940Y-1485423D01*
Y-1466075D01*
X-1431809Y-1454466D01*
X-1435679Y-1446726D01*
X-1443418Y-1438987D01*
X-1451158Y-1435118D01*
%TF.MD5,2ddc28cc1537ee80576514e74727f613*%
M02*
